<svg version="1.1" id="Layer_1" xmlns="http://www.w3.org/2000/svg" xmlns:xlink="http://www.w3.org/1999/xlink" x="0px" y="0px"
	 width="100%" viewBox="0 0 920 448" enable-background="new 0 0 920 448" xml:space="preserve">
<path fill="#000000" opacity="1.000000" stroke="none" 
	d="
M920.000000,449.000000 
	C614.303955,449.000000 308.607941,449.000000 2.455639,448.531342 
	C2.015360,396.094513 2.031342,344.126343 2.510141,292.115173 
	C6.901940,292.070648 10.836432,292.176208 14.755134,291.974731 
	C15.514071,291.935669 16.211346,290.697510 17.038891,289.552490 
	C17.124552,280.464172 17.108387,271.835846 17.538094,263.072388 
	C37.510567,262.937286 57.037167,262.937286 76.710281,262.937286 
	C76.710281,272.814789 76.710281,282.312103 76.710281,291.917480 
	C79.374123,292.086975 81.784470,292.240326 84.313698,292.401245 
	C84.313698,321.896912 84.306305,351.028839 84.331490,380.160736 
	C84.333054,381.967773 84.590736,383.774567 84.717789,385.725739 
	C84.706322,385.869995 84.973946,385.980133 85.095047,386.313507 
	C86.136147,386.620697 87.056152,386.594482 88.311478,386.585083 
	C89.093971,386.586792 89.541153,386.571655 90.241852,386.696411 
	C90.664871,386.743896 90.834351,386.651489 91.334297,386.579773 
	C92.104950,386.584961 92.545135,386.569458 93.393265,386.666565 
	C94.199173,385.663605 94.943222,384.548431 94.944839,383.432251 
	C94.994408,349.289093 94.945534,315.145752 94.968430,281.002533 
	C94.982712,259.688507 95.088211,238.374557 95.481644,216.930511 
	C100.875793,214.419785 105.941055,212.039093 111.306129,209.584656 
	C112.870132,208.819794 114.134331,208.128662 115.407455,207.427795 
	C115.416374,207.418030 115.442955,207.423080 115.801376,207.356384 
	C128.726868,201.639771 141.293945,195.989838 154.339294,190.124893 
	C154.339294,192.717804 154.339294,194.539459 154.339294,196.361115 
	C154.339294,257.816284 154.334229,319.271484 154.364761,380.726654 
	C154.365646,382.498718 154.743973,384.270630 154.994232,386.308655 
	C155.355942,386.586639 155.669754,386.598541 156.320648,386.631012 
	C157.107544,386.636932 157.557358,386.622284 158.250610,386.735291 
	C158.656891,386.778870 158.819733,386.694824 159.319809,386.631195 
	C160.107101,386.636963 160.557129,386.622314 161.250610,386.735291 
	C161.656891,386.778870 161.819733,386.694824 162.319809,386.631195 
	C163.107101,386.636963 163.557129,386.622284 164.250610,386.735291 
	C164.656891,386.778870 164.819733,386.694824 165.319702,386.631226 
	C166.106735,386.636932 166.556610,386.622192 167.228027,386.743286 
	C167.746475,386.733673 168.043427,386.588287 168.367310,386.422363 
	C168.394226,386.401825 168.395523,386.334106 168.628586,385.964783 
	C168.889603,361.227325 168.925079,336.859192 168.921631,312.491058 
	C168.921478,311.364410 168.572693,310.237793 168.505417,308.679260 
	C168.545120,306.173920 168.465668,304.100525 168.524002,301.658264 
	C168.569931,300.519104 168.478058,299.748840 168.504868,298.618958 
	C168.544418,297.515137 168.465302,296.770935 168.523987,295.657928 
	C168.569931,294.518921 168.478073,293.748749 168.504883,292.618958 
	C168.544434,291.515137 168.465317,290.770935 168.524002,289.657928 
	C168.569931,288.518921 168.478073,287.748749 168.504883,286.618958 
	C168.544418,285.515137 168.465302,284.770935 168.523987,283.657898 
	C168.569931,282.518860 168.478058,281.748657 168.505478,280.572357 
	C168.694214,278.759613 168.763657,277.352966 169.305862,275.856201 
	C174.237534,275.762329 178.703186,275.610138 183.152832,275.811340 
	C185.757690,275.929138 186.791595,275.073822 186.737274,272.470917 
	C186.567917,264.355743 186.502045,256.238434 186.508362,247.666962 
	C186.167648,244.100250 187.955231,243.860580 190.457077,243.865234 
	C223.537399,243.926758 256.617920,243.884613 289.698029,243.984970 
	C291.028503,243.989014 292.355469,245.147903 293.540771,246.235001 
	C293.492065,261.805298 293.586700,276.909332 293.536652,292.458496 
	C293.391998,298.175507 293.391998,303.447418 293.391998,308.622589 
	C305.349731,309.860504 305.349731,309.860504 304.911102,300.597412 
	C304.930603,299.145874 304.884918,298.087341 304.918030,296.652527 
	C304.944305,295.512970 304.891724,294.749695 304.899750,293.745667 
	C304.960327,293.504944 304.839172,293.023499 304.918030,292.647919 
	C304.944305,291.510345 304.891754,290.748383 304.899750,289.745667 
	C304.960327,289.504944 304.839172,289.023499 304.918030,288.647919 
	C304.944305,287.510345 304.891754,286.748383 304.899750,285.745667 
	C304.960327,285.504944 304.839172,285.023499 304.918030,284.647919 
	C304.944305,283.510345 304.891754,282.748383 304.899780,281.745667 
	C304.960327,281.504944 304.839172,281.023499 304.918030,280.647919 
	C304.944305,279.510345 304.891754,278.748383 304.899780,277.745667 
	C304.960327,277.504944 304.839172,277.023499 304.918030,276.647919 
	C304.944305,275.510345 304.891754,274.748383 304.899780,273.745667 
	C304.960327,273.504944 304.839172,273.023499 304.918030,272.647919 
	C304.944305,271.510345 304.891724,270.748383 304.899750,269.745667 
	C304.960327,269.504944 304.839172,269.023499 304.918030,268.647919 
	C304.944305,267.510345 304.891724,266.748383 304.899750,265.745667 
	C304.960327,265.504944 304.839172,265.023499 304.918030,264.647919 
	C304.944305,263.510345 304.891754,262.748383 304.899750,261.745667 
	C304.960327,261.504944 304.839172,261.023499 304.918030,260.647919 
	C304.944305,259.510345 304.891754,258.748383 304.899750,257.745667 
	C304.960327,257.504944 304.839172,257.023499 304.918030,256.647888 
	C304.944305,255.510223 304.891754,254.748154 304.899750,253.745514 
	C304.960327,253.504944 304.839172,253.023788 304.918030,252.648132 
	C304.944275,251.510345 304.891724,250.748230 304.899750,249.745514 
	C304.960327,249.504944 304.839172,249.023788 304.918030,248.647873 
	C304.944305,247.509323 304.891754,246.746674 304.907288,245.611237 
	C304.926422,244.485260 304.877441,243.732071 304.906067,242.517273 
	C304.933594,229.040237 304.883545,216.024796 304.906433,202.571045 
	C304.932648,199.767914 304.885895,197.403137 304.917847,194.659760 
	C304.944122,193.513290 304.891632,192.745438 304.899750,191.741257 
	C304.960358,191.504944 304.839142,191.032333 304.917847,190.654510 
	C304.944122,189.510315 304.891632,188.743942 304.899750,187.741257 
	C304.960358,187.504944 304.839142,187.032333 304.917877,186.654510 
	C304.944122,185.510315 304.891632,184.743942 304.899780,183.741257 
	C304.960358,183.504944 304.839142,183.032333 304.917847,182.654510 
	C304.944092,181.510315 304.891632,180.743942 304.899750,179.741257 
	C304.960358,179.504944 304.839142,179.032333 304.917847,178.654510 
	C304.944122,177.510315 304.891632,176.743942 304.899750,175.741257 
	C304.960358,175.504944 304.839142,175.032333 304.917847,174.654510 
	C304.944092,173.510315 304.891602,172.743942 304.899750,171.741257 
	C304.960358,171.504944 304.839142,171.032333 304.917847,170.654510 
	C304.944092,169.510315 304.891632,168.743942 304.899750,167.741257 
	C304.960358,167.504944 304.839142,167.032333 304.917847,166.654510 
	C304.944122,165.510315 304.891632,164.743942 304.899750,163.741257 
	C304.960358,163.504944 304.839142,163.032333 304.917847,162.654510 
	C304.944092,161.510315 304.891602,160.743942 304.899750,159.741257 
	C304.960358,159.504944 304.839142,159.032333 304.917847,158.654510 
	C304.944122,157.510315 304.891632,156.743942 304.899750,155.741257 
	C304.960358,155.504944 304.839142,155.032333 304.917877,154.654510 
	C304.944122,153.510315 304.891632,152.743942 304.899780,151.741257 
	C304.960358,151.504944 304.839142,151.032333 304.917847,150.654510 
	C304.944092,149.510315 304.891632,148.743942 304.899750,147.741257 
	C304.960358,147.504944 304.839142,147.032333 304.917847,146.654510 
	C304.944122,145.510315 304.891632,144.743942 304.899750,143.741257 
	C304.960358,143.504944 304.839142,143.032333 304.917877,142.654510 
	C304.944122,141.510315 304.891632,140.743942 304.899780,139.741257 
	C304.960358,139.504944 304.839142,139.032333 304.917847,138.654510 
	C304.944092,137.510315 304.891632,136.743942 304.899750,135.741257 
	C304.960358,135.504944 304.839142,135.032333 304.917847,134.654510 
	C304.944122,133.510315 304.891632,132.743942 304.899750,131.741257 
	C304.960358,131.504944 304.839142,131.032333 304.917877,130.654510 
	C304.944122,129.510315 304.891632,128.743942 304.899780,127.741257 
	C304.960358,127.504951 304.839142,127.032333 304.917847,126.654503 
	C304.944092,125.510307 304.891602,124.743935 304.899750,123.741257 
	C304.960358,123.504951 304.839142,123.032333 304.917847,122.654503 
	C304.944092,121.510307 304.891632,120.743935 304.899750,119.741257 
	C304.960358,119.504951 304.839142,119.032333 304.917847,118.654503 
	C304.944122,117.510307 304.891632,116.743935 304.899750,115.741264 
	C304.960358,115.504959 304.839142,115.032341 304.916992,114.692810 
	C304.942932,113.894707 304.891052,113.436134 304.899231,112.745842 
	C304.959320,112.514122 304.829193,112.053375 305.032806,111.655441 
	C308.644897,110.981133 312.053375,110.704758 315.969482,110.387215 
	C315.969482,101.667633 315.969482,92.961304 315.969482,83.931442 
	C320.271027,83.931442 324.067383,84.048172 327.853333,83.899429 
	C331.842468,83.742706 335.821625,83.332382 339.926697,82.614799 
	C341.763611,62.243324 343.478943,42.289906 345.194305,22.336489 
	C345.556976,22.343679 345.919678,22.350870 346.282349,22.358061 
	C348.042572,42.798824 349.802795,63.239590 351.590668,84.001389 
	C359.697235,84.001389 367.305084,84.001389 375.515442,84.001389 
	C375.515442,93.093872 375.515442,101.828911 375.515442,110.796204 
	C379.103455,110.796204 382.126617,111.122223 385.048096,110.716270 
	C388.977448,110.170265 389.755066,111.938423 389.712769,115.339760 
	C389.568787,126.919907 389.589691,138.502274 389.575989,150.083817 
	C389.559540,163.974960 389.572113,177.866119 389.572113,191.945969 
	C405.744629,191.945969 421.378784,191.945969 437.462646,192.043671 
	C440.513336,192.141373 443.114227,192.141373 446.067108,192.141373 
	C446.067108,194.301300 446.067108,196.097412 446.067108,197.893539 
	C446.067108,240.979034 446.051788,284.064514 446.074097,327.150024 
	C446.084076,346.443756 446.169525,365.737396 446.148010,385.272034 
	C446.155914,385.660309 446.236542,385.807709 446.372437,386.236481 
	C446.952057,386.535278 447.476410,386.552643 448.328003,386.586975 
	C449.091614,386.588959 449.527985,386.573944 450.229828,386.700836 
	C450.672699,386.748993 450.850128,386.655243 451.350159,386.582092 
	C452.103302,386.588104 452.533844,386.573517 453.229828,386.700806 
	C453.672699,386.748993 453.850128,386.655243 454.351868,386.582153 
	C455.109161,386.589417 455.542114,386.576080 456.329407,386.698975 
	C457.418793,386.679138 458.153839,386.523010 459.290161,386.493835 
	C462.144043,386.533203 464.596710,386.445648 467.389648,386.241882 
	C467.730103,385.428619 467.730286,384.731567 467.810486,383.569763 
	C467.897675,308.403778 467.903442,233.702484 467.919647,159.001205 
	C467.920074,157.009491 468.034271,155.017792 468.558075,153.022034 
	C480.341248,152.960098 491.661804,152.902206 503.449249,152.914642 
	C513.623474,152.984970 523.330811,152.984970 532.994629,152.984970 
	C532.994629,144.208405 532.994629,136.094727 533.375854,127.768234 
	C537.163818,127.494179 540.570374,127.401909 543.977417,127.376991 
	C559.952087,127.260147 575.926941,127.161835 592.030029,127.259773 
	C592.366028,127.716881 592.622986,127.903221 592.883545,128.493835 
	C592.837830,136.876099 592.837830,144.786194 592.837830,153.143234 
	C599.701111,153.143234 606.111145,153.143234 612.942993,153.143234 
	C612.942993,216.636429 612.942993,279.675720 612.942993,342.802795 
	C618.315979,342.802795 623.241272,342.802795 628.829102,342.802795 
	C628.829102,306.778625 628.829102,270.970215 628.829102,234.762680 
	C634.512573,236.792175 639.479675,238.565857 644.727417,240.584747 
	C653.195984,243.894318 661.428955,246.844910 669.557190,250.059998 
	C675.789429,252.525116 681.889709,255.323990 687.960815,258.439331 
	C687.865295,299.942139 687.854675,340.980042 687.863281,382.017975 
	C687.863525,383.332672 688.061279,384.647339 688.297363,386.339355 
	C690.915894,386.141876 693.403931,385.567108 695.947754,384.618683 
	C695.950439,383.494202 695.897339,382.743347 695.905884,381.748596 
	C695.926453,381.342133 695.885315,381.179535 695.921570,380.642670 
	C695.947327,379.509735 695.895752,378.751099 695.905884,377.748596 
	C695.926453,377.342133 695.885315,377.179535 695.921570,376.642670 
	C695.947327,375.509735 695.895752,374.751099 695.905884,373.748596 
	C695.926453,373.342133 695.885315,373.179535 695.921570,372.642670 
	C695.947388,371.509735 695.895752,370.751099 695.905884,369.748596 
	C695.926453,369.342133 695.885315,369.179535 695.921570,368.642670 
	C695.947388,367.509735 695.895752,366.751099 695.905884,365.748596 
	C695.926453,365.342133 695.885315,365.179535 695.921570,364.642670 
	C695.947388,363.509735 695.895813,362.751099 695.905884,361.748596 
	C695.926453,361.342133 695.885315,361.179535 695.921570,360.642670 
	C695.947388,359.509735 695.895813,358.751099 695.905884,357.748596 
	C695.926453,357.342133 695.885315,357.179535 695.921570,356.642670 
	C695.947327,355.509735 695.895752,354.751099 695.905884,353.748596 
	C695.926453,353.342133 695.885315,353.179535 695.921570,352.642670 
	C695.947327,351.509735 695.895752,350.751099 695.905884,349.748596 
	C695.926453,349.342133 695.885315,349.179535 695.921570,348.642670 
	C695.947327,347.509735 695.895752,346.751099 695.905884,345.748596 
	C695.926453,345.342133 695.885315,345.179535 695.921570,344.642670 
	C695.947388,343.509735 695.895752,342.751099 695.905884,341.748596 
	C695.926453,341.342133 695.885315,341.179535 695.921570,340.642670 
	C695.947388,339.509735 695.895752,338.751099 695.905884,337.748596 
	C695.926453,337.342133 695.885315,337.179535 695.921570,336.642670 
	C695.947388,335.509735 695.895813,334.751099 695.905884,333.748596 
	C695.926453,333.342133 695.885315,333.179535 695.921570,332.642670 
	C695.947388,331.509735 695.895813,330.751099 695.905884,329.748596 
	C695.926453,329.342133 695.885315,329.179535 695.921570,328.642456 
	C695.947388,327.508881 695.895752,326.749756 695.913696,325.593414 
	C695.935120,324.125854 695.887024,323.055573 695.911743,321.522247 
	C695.935913,311.707611 695.887146,302.355988 695.912964,292.610901 
	C695.939697,291.152618 695.891968,290.087860 695.920715,288.648010 
	C695.946228,287.512726 695.895325,286.752502 695.906006,285.748505 
	C695.926514,285.342255 695.885376,285.179779 695.920715,284.642944 
	C695.946228,283.509827 695.895264,282.751038 695.905945,281.748505 
	C695.926514,281.342255 695.885376,281.179779 695.920715,280.642944 
	C695.946167,279.509827 695.895264,278.751038 695.905945,277.748505 
	C695.926514,277.342255 695.885376,277.179779 695.920715,276.642944 
	C695.946167,275.509827 695.895264,274.751038 695.905945,273.748505 
	C695.926514,273.342255 695.885376,273.179779 695.920715,272.642944 
	C695.946167,271.509827 695.895264,270.751038 695.905945,269.748505 
	C695.926514,269.342255 695.885376,269.179779 695.920715,268.642944 
	C695.946167,267.509827 695.895203,266.751038 695.905945,265.748505 
	C695.926514,265.342255 695.885376,265.179779 695.920715,264.642944 
	C695.946167,263.509827 695.895203,262.751038 695.905945,261.748505 
	C695.926514,261.342255 695.885376,261.179779 695.920715,260.642944 
	C695.946167,259.509827 695.895203,258.751038 695.905945,257.748505 
	C695.926514,257.342255 695.885376,257.179779 695.920654,256.642944 
	C695.946167,255.509827 695.895203,254.751022 695.905884,253.748474 
	C695.926514,253.342239 695.885376,253.179749 695.920715,252.642960 
	C695.946167,251.509842 695.895264,250.751022 695.905945,249.748474 
	C695.926514,249.342239 695.885376,249.179749 695.920715,248.642960 
	C695.946167,247.509842 695.895264,246.751022 695.905945,245.748474 
	C695.926514,245.342239 695.885376,245.179749 695.920715,244.642960 
	C695.946167,243.509842 695.895264,242.751022 695.905945,241.748474 
	C695.926514,241.342239 695.885376,241.179749 695.920715,240.642960 
	C695.946167,239.509842 695.895264,238.751022 695.905945,237.748474 
	C695.926514,237.342239 695.885376,237.179749 695.920715,236.642960 
	C695.946167,235.509842 695.895264,234.751022 695.905945,233.748474 
	C695.926514,233.342239 695.885376,233.179749 695.920715,232.642960 
	C695.946167,231.509842 695.895264,230.751022 695.905945,229.748474 
	C695.926514,229.342239 695.885376,229.179749 695.920715,228.642960 
	C695.946167,227.509842 695.895264,226.751022 695.905945,225.748474 
	C695.926514,225.342239 695.885376,225.179749 695.920715,224.642746 
	C695.946167,223.508987 695.895264,222.749741 695.913696,221.621216 
	C695.933350,220.505936 695.883484,219.759964 695.953491,218.686661 
	C699.922424,215.520264 703.630920,212.462830 707.643982,209.878433 
	C729.583862,195.749435 755.259888,198.141144 774.316467,216.135147 
	C775.662415,217.406052 776.644653,219.703949 776.720032,221.567810 
	C777.048950,229.699203 776.980225,237.846680 776.961060,246.449829 
	C776.927429,259.941986 776.988586,272.972656 776.950745,286.462311 
	C776.851746,294.029907 776.851746,301.138519 776.851746,308.709137 
	C790.142822,308.709137 802.882812,308.709137 816.247437,308.709137 
	C816.247437,335.017517 816.247437,360.855774 816.247437,386.446136 
	C824.145264,386.446136 831.405579,386.446136 839.075562,386.446136 
	C839.075562,353.344269 839.075562,320.630585 839.075562,287.560883 
	C844.570190,287.560883 849.641235,287.560883 854.904480,287.560883 
	C855.564392,278.456116 856.199280,269.695831 856.907104,260.513367 
	C857.831665,250.678299 858.683411,241.265427 859.535095,231.852539 
	C859.883606,231.895142 860.232056,231.937729 860.580505,231.980331 
	C861.399353,239.994568 862.218262,248.008804 862.987671,256.470276 
	C863.779297,267.109802 864.620361,277.302094 865.483643,287.763550 
	C883.973206,287.763550 901.921509,287.763550 919.929077,288.243835 
	C919.992126,342.149414 919.996033,395.574707 920.000000,449.000000 
z"/>
<path fill="#66CCFF" opacity="1.000000" stroke="none" 
	d="
M695.844299,273.992249 
	C695.895264,274.751038 695.946167,275.509827 695.820435,276.750610 
	C695.508606,277.524475 695.575439,277.777710 695.844299,277.992249 
	C695.895264,278.751038 695.946167,279.509827 695.820435,280.750610 
	C695.508606,281.524475 695.575439,281.777710 695.844299,281.992249 
	C695.895264,282.751038 695.946228,283.509827 695.820435,284.750610 
	C695.508606,285.524475 695.575439,285.777710 695.844360,285.992249 
	C695.895325,286.752502 695.946228,287.512726 695.722412,288.926361 
	C695.287048,290.701965 695.126465,291.824188 694.968140,292.955078 
	C694.970459,292.963745 694.947571,292.967163 694.604248,293.028137 
	C692.521362,293.717743 690.781860,294.346405 689.028687,294.509003 
	C689.010010,283.933197 689.053467,273.822968 688.957092,263.714081 
	C688.938782,261.798157 688.365723,259.887543 688.048645,257.974457 
	C681.889709,255.323990 675.789429,252.525116 669.557190,250.059998 
	C661.428955,246.844910 653.195984,243.894318 645.025208,240.363739 
	C657.784546,226.343399 670.479065,212.743973 683.279114,199.244736 
	C708.898987,172.225540 734.565125,145.250229 760.234131,118.277733 
	C778.677551,98.897728 797.161011,79.555794 815.618469,60.189186 
	C834.417419,40.464321 853.206543,20.730099 872.000000,0.999992 
	C887.687561,1.000000 903.375122,1.000000 919.531372,1.468657 
	C919.967529,56.615746 919.935059,111.294182 919.558228,166.047699 
	C916.963745,167.199081 914.641235,168.147415 912.474243,169.371017 
	C882.495972,186.298523 852.538696,203.263184 822.577026,220.220093 
	C807.402527,228.808151 792.229553,237.398834 777.055908,245.988327 
	C776.980225,237.846680 777.048950,229.699203 776.720032,221.567810 
	C776.644653,219.703949 775.662415,217.406052 774.316467,216.135147 
	C755.259888,198.141144 729.583862,195.749435 707.643982,209.878433 
	C703.630920,212.462830 699.922424,215.520264 695.719116,218.742859 
	C695.524719,220.081070 695.684509,221.035797 695.844299,221.990509 
	C695.895264,222.749741 695.946167,223.508987 695.820496,224.750412 
	C695.508606,225.524490 695.575439,225.777695 695.844299,225.992218 
	C695.895264,226.751022 695.946167,227.509842 695.820496,228.750626 
	C695.508606,229.524490 695.575439,229.777695 695.844299,229.992218 
	C695.895264,230.751022 695.946167,231.509842 695.820496,232.750626 
	C695.508606,233.524490 695.575439,233.777695 695.844299,233.992218 
	C695.895264,234.751022 695.946167,235.509842 695.820496,236.750626 
	C695.508606,237.524490 695.575439,237.777695 695.844299,237.992218 
	C695.895264,238.751022 695.946167,239.509842 695.820496,240.750626 
	C695.508606,241.524490 695.575439,241.777695 695.844299,241.992218 
	C695.895264,242.751022 695.946167,243.509842 695.820496,244.750626 
	C695.508606,245.524490 695.575439,245.777695 695.844299,245.992218 
	C695.895264,246.751022 695.946167,247.509842 695.820496,248.750626 
	C695.508606,249.524490 695.575439,249.777695 695.844299,249.992218 
	C695.895264,250.751022 695.946167,251.509842 695.820496,252.750626 
	C695.508606,253.524490 695.575439,253.777695 695.844238,253.992218 
	C695.895203,254.751022 695.946167,255.509827 695.820435,256.750610 
	C695.508606,257.524475 695.575439,257.777710 695.844299,257.992249 
	C695.895203,258.751038 695.946167,259.509827 695.820435,260.750610 
	C695.508606,261.524475 695.575439,261.777710 695.844299,261.992249 
	C695.895203,262.751038 695.946167,263.509827 695.820435,264.750610 
	C695.508606,265.524475 695.575439,265.777710 695.844299,265.992249 
	C695.895203,266.751038 695.946167,267.509827 695.820435,268.750610 
	C695.508606,269.524475 695.575439,269.777710 695.844299,269.992249 
	C695.895264,270.751038 695.946167,271.509827 695.820435,272.750610 
	C695.508606,273.524475 695.575439,273.777710 695.844299,273.992249 
z"/>
<path fill="#66CCFF" opacity="1.000000" stroke="none" 
	d="
M304.839172,285.986389 
	C304.891754,286.748383 304.944305,287.510345 304.821411,288.755554 
	C304.512512,289.522766 304.576904,289.771973 304.839172,289.986389 
	C304.891754,290.748383 304.944305,291.510345 304.821411,292.755554 
	C304.512512,293.522766 304.576904,293.771973 304.839172,293.986389 
	C304.891724,294.749695 304.944305,295.512970 304.735413,296.863525 
	C304.317139,297.981384 304.160339,298.511993 303.660034,298.975616 
	C300.532776,296.606598 297.749023,294.304596 294.972748,291.533722 
	C294.983185,276.993713 295.023224,262.922333 294.945099,248.851639 
	C294.934540,246.949371 294.330566,245.050400 293.626465,242.959595 
	C291.294220,242.517548 289.337402,242.051819 287.379456,242.047104 
	C267.236572,241.998642 247.093445,242.024780 226.722549,242.011887 
	C226.494705,241.993637 226.039368,241.953278 225.860703,241.669357 
	C224.965179,240.697327 224.310272,239.926987 223.522293,239.333237 
	C207.993515,227.632584 192.419724,215.991531 176.914413,204.259949 
	C145.373550,180.395584 113.865761,156.487518 82.348541,132.591934 
	C56.785370,113.210579 31.270683,93.764664 5.607891,74.516182 
	C2.815557,72.421776 1.946859,70.221046 1.958967,66.973503 
	C2.040954,44.982590 2.000718,22.991220 2.000000,1.000000 
	C32.687561,1.000000 63.375122,1.000000 94.694839,1.292580 
	C105.571213,13.576839 115.774895,25.603447 126.071564,37.549919 
	C135.504105,48.493809 145.070175,59.322536 154.517365,70.253906 
	C166.350388,83.945930 178.082962,97.724838 189.932465,111.402489 
	C199.719406,122.699356 209.662918,133.860626 219.447235,145.159760 
	C231.293381,158.839920 243.031540,172.613541 254.841263,186.325333 
	C267.092377,200.549622 279.295532,214.816574 291.687622,228.917252 
	C295.471832,233.223221 299.811157,237.041367 303.918060,241.397720 
	C303.970001,242.132828 304.000122,242.553162 304.031097,243.296234 
	C304.301025,244.407349 304.570099,245.195694 304.839172,245.984039 
	C304.891754,246.746674 304.944305,247.509323 304.821411,248.755402 
	C304.512421,249.522736 304.576843,249.771835 304.839172,249.986099 
	C304.891724,250.748230 304.944275,251.510345 304.821411,252.755646 
	C304.512421,253.522736 304.576843,253.771835 304.839172,253.986099 
	C304.891754,254.748154 304.944305,255.510223 304.821411,256.755524 
	C304.512512,257.522766 304.576904,257.771973 304.839172,257.986389 
	C304.891754,258.748383 304.944305,259.510345 304.821411,260.755554 
	C304.512512,261.522766 304.576904,261.771973 304.839172,261.986389 
	C304.891754,262.748383 304.944305,263.510345 304.821411,264.755554 
	C304.512512,265.522766 304.576904,265.771973 304.839172,265.986389 
	C304.891724,266.748383 304.944305,267.510345 304.821411,268.755554 
	C304.512512,269.522766 304.576904,269.771973 304.839172,269.986389 
	C304.891724,270.748383 304.944305,271.510345 304.821411,272.755554 
	C304.512512,273.522766 304.576904,273.771973 304.839172,273.986389 
	C304.891754,274.748383 304.944305,275.510345 304.821442,276.755554 
	C304.512512,277.522766 304.576904,277.771973 304.839172,277.986389 
	C304.891754,278.748383 304.944305,279.510345 304.821442,280.755554 
	C304.512512,281.522766 304.576904,281.771973 304.839172,281.986389 
	C304.891754,282.748383 304.944305,283.510345 304.821442,284.755554 
	C304.512512,285.522766 304.576904,285.771973 304.839172,285.986389 
z"/>
<path fill="#7EDBFE" opacity="1.000000" stroke="none" 
	d="
M871.531372,0.999992 
	C853.206543,20.730099 834.417419,40.464321 815.618469,60.189186 
	C797.161011,79.555794 778.677551,98.897728 760.234131,118.277733 
	C734.565125,145.250229 708.898987,172.225540 683.279114,199.244736 
	C670.479065,212.743973 657.784546,226.343399 644.744507,240.118561 
	C639.479675,238.565857 634.512573,236.792175 628.829102,234.762680 
	C628.829102,270.970215 628.829102,306.778625 628.829102,342.802795 
	C623.241272,342.802795 618.315979,342.802795 612.942993,342.802795 
	C612.942993,279.675720 612.942993,216.636429 612.942993,153.143234 
	C606.111145,153.143234 599.701111,153.143234 592.837830,153.143234 
	C592.837830,144.786194 592.837830,136.876099 593.141602,128.816803 
	C593.625427,131.637970 593.949585,134.607773 593.960876,137.578766 
	C594.015320,151.890366 593.988098,152.091827 608.254761,151.903030 
	C613.054138,151.839539 614.135620,153.567368 614.069336,157.986160 
	C613.847290,172.813217 613.978455,187.645691 613.995789,202.476044 
	C613.997498,203.977448 614.143677,205.478683 614.290039,208.256180 
	C615.926697,205.990646 616.768860,204.969254 617.455750,203.852371 
	C626.607361,188.970947 635.756104,174.087646 644.869141,159.182602 
	C670.384155,117.450958 695.908508,75.724953 721.369202,33.960167 
	C728.025146,23.041960 734.462341,11.990337 741.000000,1.000002 
	C784.354248,1.000000 827.708435,1.000000 871.531372,0.999992 
M627.014648,295.500000 
	C627.014648,283.688232 627.014648,271.876465 627.014648,258.669495 
	C623.659302,262.361023 621.704468,265.143372 619.153198,267.177917 
	C614.788574,270.658508 613.801758,274.949432 613.885620,280.295135 
	C614.154175,297.413605 613.985352,314.538971 613.985352,331.661652 
	C613.985352,333.416260 613.985352,335.170868 613.985352,337.743011 
	C617.268860,336.006073 619.604431,334.449402 622.164062,333.491394 
	C626.070374,332.029327 627.208252,329.468597 627.098694,325.423431 
	C626.837830,315.788605 627.014587,306.141907 627.014648,295.500000 
z"/>
<path fill="#66CCFF" opacity="1.000000" stroke="none" 
	d="
M740.531372,1.000002 
	C734.462341,11.990337 728.025146,23.041960 721.369202,33.960167 
	C695.908508,75.724953 670.384155,117.450958 644.869141,159.182602 
	C635.756104,174.087646 626.607361,188.970947 617.455750,203.852371 
	C616.768860,204.969254 615.926697,205.990646 614.290039,208.256180 
	C614.143677,205.478683 613.997498,203.977448 613.995789,202.476044 
	C613.978455,187.645691 613.847290,172.813217 614.069336,157.986160 
	C614.135620,153.567368 613.054138,151.839539 608.254761,151.903030 
	C593.988098,152.091827 594.015320,151.890366 593.960876,137.578766 
	C593.949585,134.607773 593.625427,131.637970 593.187317,128.344635 
	C592.622986,127.903221 592.366028,127.716881 592.020996,126.979279 
	C590.268799,126.335602 588.654358,126.040138 587.039185,126.036087 
	C572.557556,125.999756 558.075745,126.029716 543.593994,126.006989 
	C537.964050,125.998154 537.417419,125.249741 538.498901,119.991241 
	C543.381348,96.251274 548.207336,72.499702 553.088013,48.759384 
	C556.362183,32.833454 559.693970,16.919369 563.000000,0.999996 
	C622.020874,1.000000 681.041809,1.000000 740.531372,1.000002 
z"/>
<path fill="#66CBFE" opacity="1.000000" stroke="none" 
	d="
M446.220703,385.031097 
	C446.169525,365.737396 446.084076,346.443756 446.074097,327.150024 
	C446.051788,284.064514 446.067108,240.979034 446.067108,197.893539 
	C446.067108,196.097412 446.067108,194.301300 446.067108,192.141373 
	C443.114227,192.141373 440.513336,192.141373 437.599304,191.710312 
	C437.332825,190.468506 437.487732,189.647217 437.409790,188.848618 
	C436.283691,177.307098 435.180817,165.762848 433.960785,154.231079 
	C432.793304,143.196060 431.457825,132.178909 430.266174,121.146339 
	C428.807129,107.637985 427.419647,94.121895 426.003510,80.608910 
	C424.466949,65.946800 422.891205,51.288628 421.411133,36.620808 
	C420.213654,24.753305 419.132660,12.874044 418.000000,1.000000 
	C450.354218,1.000000 482.708466,1.000000 515.530884,1.448566 
	C514.999695,14.293621 514.000671,26.690132 513.000977,39.086594 
	C511.934753,52.309120 510.899719,65.534271 509.792969,78.753403 
	C508.562195,93.454041 507.319153,108.154053 505.979065,122.844994 
	C505.091187,132.578720 504.023376,142.296036 503.017090,152.226227 
	C502.998108,152.431778 502.982330,152.844315 502.982330,152.844315 
	C491.661804,152.902206 480.341248,152.960098 468.182556,153.154144 
	C466.896240,155.453247 466.058441,157.615829 466.056396,159.779190 
	C465.988312,232.133545 466.000214,304.487976 465.999756,376.842407 
	C465.999725,384.983368 465.998077,384.983368 457.987915,385.010437 
	C457.982849,385.015381 457.967194,385.019867 457.969635,384.592896 
	C457.584045,380.217102 457.224640,376.265259 456.803040,372.320038 
	C454.871033,354.240509 452.957489,336.158905 450.954010,318.087250 
	C450.431702,313.376312 449.609558,308.698608 448.928131,303.561829 
	C448.517914,297.622101 448.104675,292.126190 447.691467,286.630310 
	C447.473816,286.638763 447.256165,286.647217 447.038513,286.655670 
	C447.038513,288.789307 447.038483,290.922943 447.038483,293.056580 
	C447.038452,321.614624 447.055634,350.172668 447.003204,378.730621 
	C446.999329,380.831238 446.493286,382.930969 446.220703,385.031097 
z"/>
<path fill="#7FDBFE" opacity="1.000000" stroke="none" 
	d="
M417.531342,1.000000 
	C419.132660,12.874044 420.213654,24.753305 421.411133,36.620808 
	C422.891205,51.288628 424.466949,65.946800 426.003510,80.608910 
	C427.419647,94.121895 428.807129,107.637985 430.266174,121.146339 
	C431.457825,132.178909 432.793304,143.196060 433.960785,154.231079 
	C435.180817,165.762848 436.283691,177.307098 437.409790,188.848618 
	C437.487732,189.647217 437.332825,190.468506 437.149567,191.612610 
	C421.378784,191.945969 405.744629,191.945969 389.572113,191.945969 
	C389.572113,177.866119 389.559540,163.974960 389.575989,150.083817 
	C389.589691,138.502274 389.568787,126.919907 389.712769,115.339760 
	C389.755066,111.938423 388.977448,110.170265 385.048096,110.716270 
	C382.126617,111.122223 379.103455,110.796204 375.515442,110.796204 
	C375.515442,101.828911 375.515442,93.093872 375.515442,84.001389 
	C367.305084,84.001389 359.697235,84.001389 351.590668,84.001389 
	C349.802795,63.239590 348.042572,42.798824 346.282349,22.358061 
	C345.919678,22.350870 345.556976,22.343679 345.194305,22.336489 
	C343.478943,42.289906 341.763611,62.243324 339.470825,82.604889 
	C332.587128,83.006744 326.277191,82.870575 319.976044,83.047745 
	C316.718384,83.139336 315.008148,82.128792 313.699554,78.895279 
	C308.666138,66.457710 303.170197,54.208344 297.962280,41.840157 
	C292.241791,28.254719 286.648621,14.615683 281.000000,1.000002 
	C326.354218,1.000000 371.708466,1.000000 417.531342,1.000000 
z"/>
<path fill="#66CCFF" opacity="1.000000" stroke="none" 
	d="
M280.531342,1.000002 
	C286.648621,14.615683 292.241791,28.254719 297.962280,41.840157 
	C303.170197,54.208344 308.666138,66.457710 313.699554,78.895279 
	C315.008148,82.128792 316.718384,83.139336 319.976044,83.047745 
	C326.277191,82.870575 332.587128,83.006744 339.349304,83.022949 
	C335.821625,83.332382 331.842468,83.742706 327.853333,83.899429 
	C324.067383,84.048172 320.271027,83.931442 315.969482,83.931442 
	C315.969482,92.961304 315.969482,101.667633 315.969482,110.387215 
	C312.053375,110.704758 308.644897,110.981133 304.938843,111.758347 
	C304.514679,112.534912 304.580627,112.774376 304.839172,112.977562 
	C304.891052,113.436134 304.942932,113.894707 304.821289,114.798126 
	C304.515686,115.522697 304.579498,115.767563 304.839142,115.977570 
	C304.891632,116.743935 304.944122,117.510307 304.822205,118.759827 
	C304.515747,119.522675 304.579529,119.767540 304.839142,119.977570 
	C304.891632,120.743935 304.944092,121.510307 304.822205,122.759827 
	C304.515747,123.522675 304.579529,123.767540 304.839142,123.977570 
	C304.891602,124.743935 304.944092,125.510307 304.822205,126.759827 
	C304.515747,127.522675 304.579529,127.767540 304.839172,127.977570 
	C304.891632,128.743942 304.944122,129.510315 304.822205,130.759842 
	C304.515747,131.522690 304.579529,131.767548 304.839142,131.977570 
	C304.891632,132.743942 304.944122,133.510315 304.822205,134.759842 
	C304.515747,135.522690 304.579529,135.767548 304.839142,135.977570 
	C304.891632,136.743942 304.944092,137.510315 304.822205,138.759842 
	C304.515747,139.522690 304.579529,139.767548 304.839172,139.977570 
	C304.891632,140.743942 304.944122,141.510315 304.822205,142.759842 
	C304.515747,143.522690 304.579529,143.767548 304.839142,143.977570 
	C304.891632,144.743942 304.944122,145.510315 304.822205,146.759842 
	C304.515747,147.522690 304.579529,147.767548 304.839142,147.977570 
	C304.891632,148.743942 304.944092,149.510315 304.822205,150.759842 
	C304.515747,151.522690 304.579529,151.767548 304.839172,151.977570 
	C304.891632,152.743942 304.944122,153.510315 304.822205,154.759842 
	C304.515747,155.522690 304.579529,155.767548 304.839142,155.977570 
	C304.891632,156.743942 304.944122,157.510315 304.822205,158.759842 
	C304.515747,159.522690 304.579529,159.767548 304.839142,159.977570 
	C304.891602,160.743942 304.944092,161.510315 304.822205,162.759842 
	C304.515747,163.522690 304.579529,163.767548 304.839142,163.977570 
	C304.891632,164.743942 304.944122,165.510315 304.822205,166.759842 
	C304.515747,167.522690 304.579529,167.767548 304.839142,167.977570 
	C304.891632,168.743942 304.944092,169.510315 304.822205,170.759842 
	C304.515747,171.522690 304.579529,171.767548 304.839142,171.977570 
	C304.891602,172.743942 304.944092,173.510315 304.822205,174.759842 
	C304.515747,175.522690 304.579529,175.767548 304.839142,175.977570 
	C304.891632,176.743942 304.944122,177.510315 304.822205,178.759842 
	C304.515747,179.522690 304.579529,179.767548 304.839142,179.977570 
	C304.891632,180.743942 304.944092,181.510315 304.822205,182.759842 
	C304.515747,183.522690 304.579529,183.767548 304.839172,183.977570 
	C304.891632,184.743942 304.944122,185.510315 304.822205,186.759842 
	C304.515747,187.522690 304.579529,187.767548 304.839142,187.977570 
	C304.891632,188.743942 304.944122,189.510315 304.822205,190.759842 
	C304.515747,191.522690 304.579529,191.767548 304.839142,191.977570 
	C304.891632,192.745438 304.944122,193.513290 304.730530,194.920944 
	C304.127350,196.747757 303.790192,197.934784 302.955841,200.872269 
	C301.733032,198.839569 301.205750,197.792252 300.525024,196.856567 
	C284.982300,175.492676 269.439972,154.128464 253.862564,132.789871 
	C229.077820,98.838676 204.247055,64.921051 179.480942,30.956266 
	C172.241776,21.028332 165.156052,10.988530 158.000000,1.000001 
	C198.687561,1.000000 239.375122,1.000000 280.531342,1.000002 
z"/>
<path fill="#7EDAFD" opacity="1.000000" stroke="none" 
	d="
M1.500000,1.000000 
	C2.000718,22.991220 2.040954,44.982590 1.958967,66.973503 
	C1.946859,70.221046 2.815557,72.421776 5.607891,74.516182 
	C31.270683,93.764664 56.785370,113.210579 82.348541,132.591934 
	C113.865761,156.487518 145.373550,180.395584 176.914413,204.259949 
	C192.419724,215.991531 207.993515,227.632584 223.522293,239.333237 
	C224.310272,239.926987 224.965179,240.697327 225.387970,241.683228 
	C212.972549,241.981003 200.851166,241.981003 188.729797,241.981003 
	C199.881012,242.949905 211.023712,242.986389 222.165588,242.908981 
	C223.762482,242.897888 225.355560,242.336731 226.950394,242.030136 
	C247.093445,242.024780 267.236572,241.998642 287.379456,242.047104 
	C289.337402,242.051819 291.294220,242.517548 293.627686,243.221558 
	C293.897247,244.372116 293.790680,245.070419 293.684082,245.768723 
	C292.355469,245.147903 291.028503,243.989014 289.698029,243.984970 
	C256.617920,243.884613 223.537399,243.926758 190.457077,243.865234 
	C187.955231,243.860580 186.167648,244.100250 186.384003,247.910309 
	C185.945145,249.371323 185.742981,250.133957 185.617996,250.605423 
	C175.946304,244.569199 166.361115,238.586960 155.993286,232.116287 
	C155.993286,254.129944 155.878769,274.910431 156.039108,295.688751 
	C156.125961,306.945374 153.325577,305.979950 167.175446,309.985443 
	C167.384781,309.995758 167.802811,310.012299 167.853485,310.477661 
	C167.938721,326.592896 167.935364,342.242920 168.022003,357.892456 
	C168.074478,367.373413 168.266312,376.853577 168.395523,386.334106 
	C168.395523,386.334106 168.394226,386.401825 168.140167,386.357422 
	C167.558395,386.308044 167.265198,386.406219 167.006500,386.607483 
	C166.556610,386.622192 166.106735,386.636932 165.216171,386.530518 
	C164.472565,386.296143 164.216461,386.362244 164.007172,386.607635 
	C163.557129,386.622284 163.107101,386.636963 162.216278,386.530518 
	C161.472565,386.296143 161.216461,386.362244 161.007172,386.607635 
	C160.557129,386.622314 160.107101,386.636963 159.216278,386.530518 
	C158.472565,386.296143 158.216461,386.362244 158.007172,386.607635 
	C157.557358,386.622284 157.107544,386.636932 156.176331,386.489166 
	C155.471405,386.163452 155.221878,386.068726 154.946304,386.042603 
	C154.743973,384.270630 154.365646,382.498718 154.364761,380.726654 
	C154.334229,319.271484 154.339294,257.816284 154.339294,196.361115 
	C154.339294,194.539459 154.339294,192.717804 154.339294,190.124893 
	C141.293945,195.989838 128.726868,201.639771 115.554520,207.071930 
	C114.020172,206.153976 113.139137,205.376526 112.155045,204.764877 
	C82.797249,186.518661 53.426937,168.292587 24.064520,150.053802 
	C16.938524,145.627396 9.833222,141.167679 2.005605,136.278030 
	C2.005605,173.491013 2.005605,209.742889 1.754203,245.995880 
	C1.335200,245.997986 1.167600,245.998993 1.000000,246.000000 
	C1.000000,164.333328 1.000000,82.666664 1.500000,1.000000 
z"/>
<path fill="#7FDBFF" opacity="1.000000" stroke="none" 
	d="
M157.531342,1.000001 
	C165.156052,10.988530 172.241776,21.028332 179.480942,30.956266 
	C204.247055,64.921051 229.077820,98.838676 253.862564,132.789871 
	C269.439972,154.128464 284.982300,175.492676 300.525024,196.856567 
	C301.205750,197.792252 301.733032,198.839569 302.955841,200.872269 
	C303.790192,197.934784 304.127350,196.747757 304.651825,195.299530 
	C304.885895,197.403137 304.932648,199.767914 304.620056,202.692108 
	C304.139221,215.861984 304.017731,228.472458 303.896240,241.082932 
	C299.811157,237.041367 295.471832,233.223221 291.687622,228.917252 
	C279.295532,214.816574 267.092377,200.549622 254.841263,186.325333 
	C243.031540,172.613541 231.293381,158.839920 219.447235,145.159760 
	C209.662918,133.860626 199.719406,122.699356 189.932465,111.402489 
	C178.082962,97.724838 166.350388,83.945930 154.517365,70.253906 
	C145.070175,59.322536 135.504105,48.493809 126.071564,37.549919 
	C115.774895,25.603447 105.571213,13.576839 95.163498,1.292580 
	C115.687561,1.000000 136.375122,1.000000 157.531342,1.000001 
z"/>
<path fill="#7EDBFE" opacity="1.000000" stroke="none" 
	d="
M503.036072,152.020691 
	C504.023376,142.296036 505.091187,132.578720 505.979065,122.844994 
	C507.319153,108.154053 508.562195,93.454041 509.792969,78.753403 
	C510.899719,65.534271 511.934753,52.309120 513.000977,39.086594 
	C514.000671,26.690132 514.999695,14.293621 515.999512,1.448566 
	C531.354248,1.000000 546.708435,1.000000 562.531311,0.999996 
	C559.693970,16.919369 556.362183,32.833454 553.088013,48.759384 
	C548.207336,72.499702 543.381348,96.251274 538.498901,119.991241 
	C537.417419,125.249741 537.964050,125.998154 543.593994,126.006989 
	C558.075745,126.029716 572.557556,125.999756 587.039185,126.036087 
	C588.654358,126.040138 590.268799,126.335602 591.892639,126.776413 
	C575.926941,127.161835 559.952087,127.260147 543.977417,127.376991 
	C540.570374,127.401909 537.163818,127.494179 533.093750,127.810638 
	C532.285828,134.503540 531.990295,140.942795 532.057861,147.378250 
	C532.093689,150.791962 530.938599,152.122498 527.445007,152.051300 
	C519.311890,151.885574 511.172760,152.012405 503.036072,152.020691 
z"/>
<path fill="#CADDE6" opacity="1.000000" stroke="none" 
	d="
M919.902588,165.972610 
	C919.935059,111.294182 919.967529,56.615746 920.000000,1.468661 
	C920.333313,2.333341 920.956360,3.666314 920.958008,5.000060 
	C921.009399,46.333321 921.000000,87.666664 921.000000,129.000000 
	C921.000000,235.666672 921.000000,342.333344 920.500000,449.000000 
	C919.996033,395.574707 919.992126,342.149414 919.981689,287.801056 
	C919.950928,265.598145 919.926819,244.318268 919.942505,222.568817 
	C919.955750,203.390350 919.929199,184.681473 919.902588,165.972610 
z"/>
<path fill="#20353E" opacity="1.000000" stroke="none" 
	d="
M2.047324,292.158173 
	C2.031342,344.126343 2.015360,396.094513 1.999691,448.531342 
	C1.666670,447.671295 1.043175,446.342865 1.041877,445.013855 
	C0.992394,394.321686 1.000000,343.629517 1.266409,292.477905 
	C1.704320,292.065033 1.875822,292.111603 2.047324,292.158173 
z"/>
<path fill="#8CF1FF" opacity="1.000000" stroke="none" 
	d="
M2.510141,292.115173 
	C1.875822,292.111603 1.704320,292.065033 1.266409,292.009216 
	C1.000000,276.979095 1.000000,261.958221 1.000000,246.468658 
	C1.167600,245.998993 1.335200,245.997986 1.751470,245.998505 
	C2.000139,246.000000 2.001440,245.997726 2.000871,246.466614 
	C2.000531,259.927490 1.906404,272.920990 2.116533,285.909576 
	C2.143796,287.594788 3.653037,290.624786 4.626513,290.687378 
	C8.698745,290.949127 12.828432,290.317017 16.937065,290.012482 
	C16.211346,290.697510 15.514071,291.935669 14.755134,291.974731 
	C10.836432,292.176208 6.901940,292.070648 2.510141,292.115173 
z"/>
<path fill="#66CCFE" opacity="1.000000" stroke="none" 
	d="
M2.002872,245.997375 
	C2.005605,209.742889 2.005605,173.491013 2.005605,136.278030 
	C9.833222,141.167679 16.938524,145.627396 24.064520,150.053802 
	C53.426937,168.292587 82.797249,186.518661 112.155045,204.764877 
	C113.139137,205.376526 114.020172,206.153976 115.196098,207.138611 
	C115.442955,207.423080 115.416374,207.418030 115.063721,207.342773 
	C113.476151,208.064468 112.241241,208.861435 111.006325,209.658401 
	C105.941055,212.039093 100.875793,214.419785 95.101181,217.049210 
	C93.930260,219.118423 93.078331,220.936615 93.067741,222.759720 
	C92.966293,240.220108 93.016296,257.681335 92.992348,275.142303 
	C92.989983,276.869324 92.784607,278.596039 92.624893,281.077423 
	C87.452759,278.912811 82.348274,277.894562 78.970909,274.917175 
	C77.131226,273.295349 78.143723,268.352051 78.013557,264.901398 
	C77.882774,261.434204 75.681747,260.984894 72.907829,260.995728 
	C62.597694,261.035919 52.287319,261.014191 41.613281,260.996399 
	C39.827305,260.670868 38.405083,260.364655 36.755920,259.791321 
	C25.019802,255.015396 13.510621,250.506561 2.001441,245.997726 
	C2.001440,245.997726 2.000139,246.000000 2.002872,245.997375 
z"/>
<path fill="#7FDBFF" opacity="1.000000" stroke="none" 
	d="
M919.558228,166.047699 
	C919.929199,184.681473 919.955750,203.390350 919.591797,222.618851 
	C903.310364,230.168900 887.452881,237.276733 871.507996,244.182693 
	C866.705811,246.262573 862.492371,248.378098 863.750122,254.760010 
	C863.821045,255.120178 863.288635,255.599274 863.037109,256.023010 
	C862.218262,248.008804 861.399353,239.994568 860.580505,231.980331 
	C860.232056,231.937729 859.883606,231.895142 859.535095,231.852539 
	C858.683411,241.265427 857.831665,250.678299 856.699829,260.185608 
	C856.166809,257.532501 855.913879,254.784988 855.652161,251.941620 
	C854.887512,252.012741 854.357117,251.934830 853.943604,252.119064 
	C840.766785,257.989746 827.625488,263.940460 814.427185,269.762115 
	C801.998230,275.244446 789.511169,280.594849 777.049683,286.003296 
	C776.988586,272.972656 776.927429,259.941986 776.961060,246.449829 
	C792.229553,237.398834 807.402527,228.808151 822.577026,220.220093 
	C852.538696,203.263184 882.495972,186.298523 912.474243,169.371017 
	C914.641235,168.147415 916.963745,167.199081 919.558228,166.047699 
z"/>
<path fill="#65CAFB" opacity="1.000000" stroke="none" 
	d="
M776.950684,286.462280 
	C789.511169,280.594849 801.998230,275.244446 814.427185,269.762115 
	C827.625488,263.940460 840.766785,257.989746 853.943604,252.119064 
	C854.357117,251.934830 854.887512,252.012741 855.652161,251.941620 
	C855.913879,254.784988 856.166809,257.532501 856.626953,260.607788 
	C856.199280,269.695831 855.564392,278.456116 854.904480,287.560883 
	C849.641235,287.560883 844.570190,287.560883 839.075562,287.560883 
	C839.075562,320.630585 839.075562,353.344269 839.075562,386.446136 
	C831.405579,386.446136 824.145264,386.446136 816.247437,386.446136 
	C816.247437,360.855774 816.247437,335.017517 816.247437,308.709137 
	C802.882812,308.709137 790.142822,308.709137 776.851746,308.709137 
	C776.851746,301.138519 776.851746,294.029907 776.950684,286.462280 
z"/>
<path fill="#66CBFD" opacity="1.000000" stroke="none" 
	d="
M862.987671,256.470245 
	C863.288635,255.599274 863.821045,255.120178 863.750122,254.760010 
	C862.492371,248.378098 866.705811,246.262573 871.507996,244.182693 
	C887.452881,237.276733 903.310364,230.168900 919.552002,223.088440 
	C919.926819,244.318268 919.950928,265.598145 919.922485,287.320770 
	C901.921509,287.763550 883.973206,287.763550 865.483643,287.763550 
	C864.620361,277.302094 863.779297,267.109802 862.987671,256.470245 
z"/>
<path fill="#64C7F8" opacity="1.000000" stroke="none" 
	d="
M166.966110,309.975128 
	C153.325577,305.979950 156.125961,306.945374 156.039108,295.688751 
	C155.878769,274.910431 155.993286,254.129944 155.993286,232.116287 
	C166.361115,238.586960 175.946304,244.569199 185.617996,250.605423 
	C185.742981,250.133957 185.945145,249.371323 186.271698,248.365326 
	C186.502045,256.238434 186.567917,264.355743 186.737274,272.470917 
	C186.791595,275.073822 185.757690,275.929138 183.152832,275.811340 
	C178.703186,275.610138 174.237534,275.762329 169.035889,275.798737 
	C168.324188,277.547058 168.355194,279.262756 168.386200,280.978424 
	C168.478058,281.748657 168.569931,282.518860 168.293396,283.776184 
	C168.078735,285.168365 168.232468,286.073456 168.386200,286.978546 
	C168.478073,287.748749 168.569931,288.518921 168.293411,289.776184 
	C168.078751,291.168365 168.232468,292.073456 168.386200,292.978546 
	C168.478073,293.748749 168.569931,294.518921 168.293411,295.776184 
	C168.078735,297.168365 168.232468,298.073456 168.386200,298.978546 
	C168.478058,299.748840 168.569931,300.519104 168.235382,301.858398 
	C167.528030,304.943298 167.247070,307.459229 166.966110,309.975128 
z"/>
<path fill="#78D4F6" opacity="1.000000" stroke="none" 
	d="
M41.977032,261.015686 
	C52.287319,261.014191 62.597694,261.035919 72.907829,260.995728 
	C75.681747,260.984894 77.882774,261.434204 78.013557,264.901398 
	C78.143723,268.352051 77.131226,273.295349 78.970909,274.917175 
	C82.348274,277.894562 87.452759,278.912811 92.624893,281.077423 
	C92.784607,278.596039 92.989983,276.869324 92.992348,275.142303 
	C93.016296,257.681335 92.966293,240.220108 93.067741,222.759720 
	C93.078331,220.936615 93.930260,219.118423 94.772308,217.179260 
	C95.088211,238.374557 94.982712,259.688507 94.968430,281.002533 
	C94.945534,315.145752 94.994408,349.289093 94.944839,383.432251 
	C94.943222,384.548431 94.199173,385.663605 93.549225,386.412506 
	C93.492973,385.171265 93.688690,384.296753 93.730461,384.110107 
	C91.482475,384.271729 89.183762,384.980560 87.362930,384.337097 
	C86.461067,384.018433 86.077316,381.211792 86.072525,379.529022 
	C85.995781,352.553223 86.018112,325.577179 86.017921,298.601166 
	C86.017906,296.977478 86.017929,295.353790 86.017929,293.730103 
	C85.146347,321.878723 85.156822,350.001099 85.128227,378.123444 
	C85.125702,380.609589 84.868286,383.095490 84.729256,385.581482 
	C84.590736,383.774567 84.333054,381.967773 84.331490,380.160736 
	C84.306305,351.028839 84.313698,321.896912 84.313698,292.401245 
	C81.784470,292.240326 79.374123,292.086975 76.710281,291.917480 
	C76.710281,282.312103 76.710281,272.814789 76.710281,262.937286 
	C57.037167,262.937286 37.510567,262.937286 17.520203,262.750122 
	C17.056320,262.347839 17.056200,262.132690 17.518742,261.911621 
	C19.793289,261.917633 21.608574,262.006836 23.416441,261.927338 
	C29.604708,261.655396 35.790375,261.324280 41.977032,261.015686 
z"/>
<path fill="#7FDBFF" opacity="1.000000" stroke="none" 
	d="
M17.056078,261.917511 
	C17.056200,262.132690 17.056320,262.347839 17.074329,262.885254 
	C17.108387,271.835846 17.124552,280.464172 17.038891,289.552490 
	C12.828432,290.317017 8.698745,290.949127 4.626513,290.687378 
	C3.653037,290.624786 2.143796,287.594788 2.116533,285.909576 
	C1.906404,272.920990 2.000531,259.927490 2.000871,246.466614 
	C13.510621,250.506561 25.019802,255.015396 36.420387,260.026245 
	C34.380928,260.685089 32.451260,260.858917 30.518955,260.995392 
	C26.032007,261.312347 21.543783,261.611267 17.056078,261.917511 
z"/>
<path fill="#70DAFF" opacity="1.000000" stroke="none" 
	d="
M457.992950,385.005463 
	C465.998077,384.983368 465.999725,384.983368 465.999756,376.842407 
	C466.000214,304.487976 465.988312,232.133545 466.056396,159.779190 
	C466.058441,157.615829 466.896240,155.453247 467.719910,153.158203 
	C468.034271,155.017792 467.920074,157.009491 467.919647,159.001205 
	C467.903442,233.702484 467.897675,308.403778 467.634705,383.824890 
	C467.269073,385.149231 467.159210,385.753662 467.049316,386.358124 
	C464.596710,386.445648 462.144043,386.533203 459.137512,386.370117 
	C458.355286,385.988251 458.125275,385.860077 457.920197,385.552795 
	C457.946777,385.370667 457.992950,385.005463 457.992950,385.005463 
z"/>
<path fill="#66CCFF" opacity="1.000000" stroke="none" 
	d="
M695.844177,341.992462 
	C695.895752,342.751099 695.947388,343.509735 695.821350,344.750427 
	C695.508484,345.524475 695.575317,345.777802 695.844177,345.992462 
	C695.895752,346.751099 695.947327,347.509735 695.821350,348.750427 
	C695.508484,349.524475 695.575317,349.777802 695.844177,349.992462 
	C695.895752,350.751099 695.947327,351.509735 695.821350,352.750427 
	C695.508484,353.524475 695.575317,353.777802 695.844177,353.992462 
	C695.895752,354.751099 695.947327,355.509735 695.821350,356.750427 
	C695.508484,357.524475 695.575317,357.777802 695.844177,357.992462 
	C695.895813,358.751099 695.947388,359.509735 695.821350,360.750427 
	C695.508484,361.524475 695.575317,361.777802 695.844177,361.992462 
	C695.895813,362.751099 695.947388,363.509735 695.821350,364.750427 
	C695.508484,365.524475 695.575317,365.777802 695.844177,365.992462 
	C695.895752,366.751099 695.947388,367.509735 695.821350,368.750427 
	C695.508484,369.524475 695.575317,369.777802 695.844177,369.992462 
	C695.895752,370.751099 695.947388,371.509735 695.821350,372.750427 
	C695.508484,373.524475 695.575317,373.777802 695.844177,373.992462 
	C695.895752,374.751099 695.947327,375.509735 695.821350,376.750427 
	C695.508484,377.524475 695.575317,377.777802 695.844177,377.992462 
	C695.895752,378.751099 695.947327,379.509735 695.821350,380.750427 
	C695.508484,381.524475 695.575317,381.777802 695.844238,381.992493 
	C695.897339,382.743347 695.950439,383.494202 695.519409,384.621216 
	C693.040039,384.990692 691.044861,384.984039 689.036377,384.510315 
	C689.036438,364.374603 689.049683,344.705963 689.407837,325.017334 
	C691.814209,325.138214 694.415039,321.971741 695.844177,325.990662 
	C695.895752,326.749756 695.947388,327.508881 695.821350,328.750244 
	C695.508484,329.524475 695.575317,329.777802 695.844177,329.992462 
	C695.895813,330.751099 695.947388,331.509735 695.821350,332.750427 
	C695.508484,333.524475 695.575317,333.777802 695.844177,333.992462 
	C695.895813,334.751099 695.947388,335.509735 695.821350,336.750427 
	C695.508484,337.524475 695.575317,337.777802 695.844177,337.992462 
	C695.895752,338.751099 695.947388,339.509735 695.821350,340.750427 
	C695.508484,341.524475 695.575317,341.777802 695.844177,341.992462 
z"/>
<path fill="#76D9FD" opacity="1.000000" stroke="none" 
	d="
M695.913696,325.593414 
	C694.415039,321.971741 691.814209,325.138214 689.391052,324.544891 
	C689.033691,314.386658 689.038025,304.680847 689.042358,294.975067 
	C690.781860,294.346405 692.521362,293.717743 694.617859,293.500244 
	C694.979919,297.050598 694.897583,300.192902 695.008606,303.328339 
	C695.229004,309.549286 695.555969,315.766510 695.838867,321.985260 
	C695.887024,323.055573 695.935120,324.125854 695.913696,325.593414 
z"/>
<path fill="#7EDAFD" opacity="1.000000" stroke="none" 
	d="
M294.965240,292.002594 
	C297.749023,294.304596 300.532776,296.606598 303.694153,299.245453 
	C304.329803,300.051666 304.587860,300.521057 304.845886,300.990417 
	C305.349731,309.860504 305.349731,309.860504 293.391998,308.622589 
	C293.391998,303.447418 293.391998,298.175507 293.750854,292.453125 
	C294.109680,292.002686 294.537445,292.002014 294.537445,292.002014 
	C294.537445,292.002014 294.965240,292.002594 294.965240,292.002594 
z"/>
<path fill="#8CF1FF" opacity="1.000000" stroke="none" 
	d="
M689.028687,294.509003 
	C689.038025,304.680847 689.033691,314.386658 689.046143,324.564880 
	C689.049683,344.705963 689.036438,364.374603 688.916138,384.697998 
	C688.628662,385.591248 688.414612,385.794342 688.166931,385.962006 
	C688.061279,384.647339 687.863525,383.332672 687.863281,382.017975 
	C687.854675,340.980042 687.865295,299.942139 687.960815,258.439331 
	C688.365723,259.887543 688.938782,261.798157 688.957092,263.714081 
	C689.053467,273.822968 689.010010,283.933197 689.028687,294.509003 
z"/>
<path fill="#8BF0FF" opacity="1.000000" stroke="none" 
	d="
M457.987915,385.010437 
	C457.992950,385.005463 457.946777,385.370667 457.664612,385.621643 
	C456.913269,386.102692 456.444153,386.332703 455.975037,386.562744 
	C455.542114,386.576080 455.109161,386.589417 454.242737,386.463959 
	C453.466492,386.196991 453.184906,386.274933 452.964386,386.558929 
	C452.533844,386.573517 452.103302,386.588104 451.240967,386.463928 
	C450.466492,386.196991 450.184906,386.274933 449.964386,386.558960 
	C449.527985,386.573944 449.091614,386.588959 448.161957,386.421661 
	C447.218170,386.144592 446.767670,386.049835 446.317139,385.955078 
	C446.236542,385.807709 446.155914,385.660309 446.148010,385.272034 
	C446.493286,382.930969 446.999329,380.831238 447.003204,378.730621 
	C447.055634,350.172668 447.038452,321.614624 447.038483,293.056580 
	C447.038483,290.922943 447.038513,288.789307 447.038513,286.655670 
	C447.256165,286.647217 447.473816,286.638763 447.691467,286.630310 
	C448.104675,292.126190 448.517914,297.622101 448.698334,303.901917 
	C448.310913,306.656281 448.024872,308.626556 448.021912,310.597198 
	C447.989624,332.012512 447.961792,353.428009 448.017456,374.843262 
	C448.048157,386.652924 446.718048,384.776001 457.967194,385.019867 
	C457.967194,385.019867 457.982849,385.015381 457.987915,385.010437 
z"/>
<path fill="#8CF1FF" opacity="1.000000" stroke="none" 
	d="
M84.717789,385.725739 
	C84.868286,383.095490 85.125702,380.609589 85.128227,378.123444 
	C85.156822,350.001099 85.146347,321.878723 86.017929,293.730103 
	C86.017929,295.353790 86.017906,296.977478 86.017921,298.601166 
	C86.018112,325.577179 85.995781,352.553223 86.072525,379.529022 
	C86.077316,381.211792 86.461067,384.018433 87.362930,384.337097 
	C89.183762,384.980560 91.482475,384.271729 93.730461,384.110107 
	C93.688690,384.296753 93.492973,385.171265 93.141281,386.299866 
	C92.545135,386.569458 92.104950,386.584961 91.231171,386.463928 
	C90.466690,386.200439 90.196938,386.276825 89.988327,386.556549 
	C89.541153,386.571655 89.093971,386.586792 88.051178,386.408569 
	C86.628349,386.136871 85.801147,386.058502 84.973946,385.980164 
	C84.973946,385.980133 84.706322,385.869995 84.717789,385.725739 
z"/>
<path fill="#7ADEFF" opacity="1.000000" stroke="none" 
	d="
M294.972748,291.533722 
	C294.965240,292.002594 294.537445,292.002014 294.537445,292.002014 
	C294.537445,292.002014 294.109680,292.002686 293.895508,292.008026 
	C293.586700,276.909332 293.492065,261.805298 293.540771,246.235001 
	C293.790680,245.070419 293.897247,244.372116 294.002594,243.411865 
	C294.330566,245.050400 294.934540,246.949371 294.945099,248.851639 
	C295.023224,262.922333 294.983185,276.993713 294.972748,291.533722 
z"/>
<path fill="#64C7F8" opacity="1.000000" stroke="none" 
	d="
M168.628586,385.964783 
	C168.266312,376.853577 168.074478,367.373413 168.022003,357.892456 
	C167.935364,342.242920 167.938721,326.592896 167.932343,310.314270 
	C168.051788,309.456482 168.193710,309.265045 168.386261,309.111176 
	C168.572693,310.237793 168.921478,311.364410 168.921631,312.491058 
	C168.925079,336.859192 168.889603,361.227325 168.628586,385.964783 
z"/>
<path fill="#8CF1FF" opacity="1.000000" stroke="none" 
	d="
M503.017090,152.226242 
	C511.172760,152.012405 519.311890,151.885574 527.445007,152.051300 
	C530.938599,152.122498 532.093689,150.791962 532.057861,147.378250 
	C531.990295,140.942795 532.285828,134.503540 532.712524,128.023453 
	C532.994629,136.094727 532.994629,144.208405 532.994629,152.984970 
	C523.330811,152.984970 513.623474,152.984970 503.449249,152.914642 
	C502.982330,152.844315 502.998108,152.431778 503.017090,152.226242 
z"/>
<path fill="#8CF1FF" opacity="1.000000" stroke="none" 
	d="
M303.918060,241.397720 
	C304.017731,228.472458 304.139221,215.861984 304.547089,203.130432 
	C304.883545,216.024796 304.933594,229.040237 304.706512,242.516541 
	C304.429382,242.977432 304.030273,242.973480 304.030273,242.973480 
	C304.000122,242.553162 303.970001,242.132828 303.918060,241.397720 
z"/>
<path fill="#8CF1FF" opacity="1.000000" stroke="none" 
	d="
M695.911743,321.522247 
	C695.555969,315.766510 695.229004,309.549286 695.008606,303.328339 
	C694.897583,300.192902 694.979919,297.050598 694.961182,293.439270 
	C694.947571,292.967163 694.970459,292.963745 695.186279,292.973328 
	C695.402161,292.982941 695.838440,293.004364 695.838440,293.004364 
	C695.887146,302.355988 695.935913,311.707611 695.911743,321.522247 
z"/>
<path fill="#76D9FD" opacity="1.000000" stroke="none" 
	d="
M688.297363,386.339355 
	C688.414612,385.794342 688.628662,385.591248 688.929382,385.165039 
	C691.044861,384.984039 693.040039,384.990692 695.463623,384.994843 
	C693.403931,385.567108 690.915894,386.141876 688.297363,386.339355 
z"/>
<path fill="#70DAFF" opacity="1.000000" stroke="none" 
	d="
M168.505417,308.679260 
	C168.193710,309.265045 168.051788,309.456482 167.881653,309.848877 
	C167.802811,310.012299 167.384781,309.995758 167.175446,309.985443 
	C167.247070,307.459229 167.528030,304.943298 168.097595,302.227264 
	C168.465668,304.100525 168.545120,306.173920 168.505417,308.679260 
z"/>
<path fill="#70DAFF" opacity="1.000000" stroke="none" 
	d="
M168.505478,280.572357 
	C168.355194,279.262756 168.324188,277.547058 168.563141,275.888855 
	C168.763657,277.352966 168.694214,278.759613 168.505478,280.572357 
z"/>
<path fill="#7EDAFD" opacity="1.000000" stroke="none" 
	d="
M111.306129,209.584656 
	C112.241241,208.861435 113.476151,208.064468 115.054794,207.352524 
	C114.134331,208.128662 112.870132,208.819794 111.306129,209.584656 
z"/>
<path fill="#70DAFF" opacity="1.000000" stroke="none" 
	d="
M168.504883,292.618958 
	C168.232468,292.073456 168.078751,291.168365 168.155609,290.145020 
	C168.465317,290.770935 168.544434,291.515137 168.504883,292.618958 
z"/>
<path fill="#70DAFF" opacity="1.000000" stroke="none" 
	d="
M168.504868,298.618958 
	C168.232468,298.073456 168.078735,297.168365 168.155609,296.145020 
	C168.465302,296.770935 168.544418,297.515137 168.504868,298.618958 
z"/>
<path fill="#70DAFF" opacity="1.000000" stroke="none" 
	d="
M168.504868,286.618958 
	C168.232468,286.073456 168.078735,285.168365 168.155609,284.145020 
	C168.465302,284.770935 168.544418,285.515137 168.504868,286.618958 
z"/>
<path fill="#7ADEFF" opacity="1.000000" stroke="none" 
	d="
M304.911102,300.597412 
	C304.587860,300.521057 304.329803,300.051666 304.037659,299.312469 
	C304.160339,298.511993 304.317139,297.981384 304.656616,297.239746 
	C304.884918,298.087341 304.930603,299.145874 304.911102,300.597412 
z"/>
<path fill="#76D9FD" opacity="1.000000" stroke="none" 
	d="
M695.913696,221.621216 
	C695.684509,221.035797 695.524719,220.081070 695.599243,219.070160 
	C695.883484,219.759964 695.933350,220.505936 695.913696,221.621216 
z"/>
<path fill="#76D9FD" opacity="1.000000" stroke="none" 
	d="
M695.912964,292.610901 
	C695.838440,293.004364 695.402161,292.982941 695.184021,292.964691 
	C695.126465,291.824188 695.287048,290.701965 695.645935,289.301392 
	C695.891968,290.087860 695.939697,291.152618 695.912964,292.610901 
z"/>
<path fill="#78D4F6" opacity="1.000000" stroke="none" 
	d="
M85.095047,386.313538 
	C85.801147,386.058502 86.628349,386.136871 87.715858,386.391754 
	C87.056152,386.594482 86.136147,386.620697 85.095047,386.313538 
z"/>
<path fill="#66CBFE" opacity="1.000000" stroke="none" 
	d="
M456.329407,386.698975 
	C456.444153,386.332703 456.913269,386.102692 457.638000,385.803772 
	C458.125275,385.860077 458.355286,385.988251 458.736267,386.243164 
	C458.153839,386.523010 457.418793,386.679138 456.329407,386.698975 
z"/>
<path fill="#7ADEFF" opacity="1.000000" stroke="none" 
	d="
M304.031128,243.296234 
	C304.030273,242.973480 304.429382,242.977432 304.628906,242.978165 
	C304.877441,243.732071 304.926422,244.485260 304.907288,245.611237 
	C304.570099,245.195694 304.301025,244.407349 304.031128,243.296234 
z"/>
<path fill="#66CBFE" opacity="1.000000" stroke="none" 
	d="
M467.389618,386.241882 
	C467.159210,385.753662 467.269073,385.149231 467.554688,384.289642 
	C467.730286,384.731567 467.730103,385.428619 467.389618,386.241882 
z"/>
<path fill="#66CBFE" opacity="1.000000" stroke="none" 
	d="
M446.372437,386.236511 
	C446.767670,386.049835 447.218170,386.144592 447.834717,386.404663 
	C447.476410,386.552643 446.952057,386.535278 446.372437,386.236511 
z"/>
<path fill="#76D9FD" opacity="1.000000" stroke="none" 
	d="
M695.905884,357.748596 
	C695.575317,357.777802 695.508484,357.524475 695.743958,357.124725 
	C695.885315,357.179535 695.926453,357.342133 695.905884,357.748596 
z"/>
<path fill="#78D4F6" opacity="1.000000" stroke="none" 
	d="
M90.241852,386.696411 
	C90.196938,386.276825 90.466690,386.200439 90.900703,386.443237 
	C90.834351,386.651489 90.664871,386.743896 90.241852,386.696411 
z"/>
<path fill="#76D9FD" opacity="1.000000" stroke="none" 
	d="
M695.905945,285.748505 
	C695.575439,285.777710 695.508606,285.524475 695.744019,285.124939 
	C695.885376,285.179779 695.926514,285.342255 695.905945,285.748505 
z"/>
<path fill="#7ADEFF" opacity="1.000000" stroke="none" 
	d="
M304.899750,289.745667 
	C304.576904,289.771973 304.512512,289.522766 304.742584,289.131134 
	C304.839172,289.023499 304.960327,289.504944 304.899750,289.745667 
z"/>
<path fill="#76D9FD" opacity="1.000000" stroke="none" 
	d="
M695.905884,381.748596 
	C695.575317,381.777802 695.508484,381.524475 695.743958,381.124725 
	C695.885315,381.179535 695.926453,381.342133 695.905884,381.748596 
z"/>
<path fill="#76D9FD" opacity="1.000000" stroke="none" 
	d="
M695.905884,377.748596 
	C695.575317,377.777802 695.508484,377.524475 695.743958,377.124725 
	C695.885315,377.179535 695.926453,377.342133 695.905884,377.748596 
z"/>
<path fill="#76D9FD" opacity="1.000000" stroke="none" 
	d="
M695.905884,373.748596 
	C695.575317,373.777802 695.508484,373.524475 695.743958,373.124725 
	C695.885315,373.179535 695.926453,373.342133 695.905884,373.748596 
z"/>
<path fill="#76D9FD" opacity="1.000000" stroke="none" 
	d="
M695.905884,369.748596 
	C695.575317,369.777802 695.508484,369.524475 695.743958,369.124725 
	C695.885315,369.179535 695.926453,369.342133 695.905884,369.748596 
z"/>
<path fill="#66CBFE" opacity="1.000000" stroke="none" 
	d="
M453.229828,386.700806 
	C453.184906,386.274933 453.466492,386.196991 453.918365,386.443329 
	C453.850128,386.655243 453.672699,386.748993 453.229828,386.700806 
z"/>
<path fill="#66CBFE" opacity="1.000000" stroke="none" 
	d="
M450.229828,386.700806 
	C450.184906,386.274933 450.466492,386.196991 450.918365,386.443329 
	C450.850128,386.655243 450.672699,386.748993 450.229828,386.700806 
z"/>
<path fill="#7ADEFF" opacity="1.000000" stroke="none" 
	d="
M304.899750,293.745667 
	C304.576904,293.771973 304.512512,293.522766 304.742584,293.131134 
	C304.839172,293.023499 304.960327,293.504944 304.899750,293.745667 
z"/>
<path fill="#76D9FD" opacity="1.000000" stroke="none" 
	d="
M695.905884,365.748596 
	C695.575317,365.777802 695.508484,365.524475 695.743958,365.124725 
	C695.885315,365.179535 695.926453,365.342133 695.905884,365.748596 
z"/>
<path fill="#76D9FD" opacity="1.000000" stroke="none" 
	d="
M695.905884,361.748596 
	C695.575317,361.777802 695.508484,361.524475 695.743958,361.124725 
	C695.885315,361.179535 695.926453,361.342133 695.905884,361.748596 
z"/>
<path fill="#76D9FD" opacity="1.000000" stroke="none" 
	d="
M695.905884,353.748596 
	C695.575317,353.777802 695.508484,353.524475 695.743958,353.124725 
	C695.885315,353.179535 695.926453,353.342133 695.905884,353.748596 
z"/>
<path fill="#64C7F8" opacity="1.000000" stroke="none" 
	d="
M167.228027,386.743256 
	C167.265198,386.406219 167.558395,386.308044 168.113251,386.377960 
	C168.043427,386.588287 167.746475,386.733673 167.228027,386.743256 
z"/>
<path fill="#64C7F8" opacity="1.000000" stroke="none" 
	d="
M164.250610,386.735291 
	C164.216461,386.362244 164.472565,386.296143 164.879028,386.510071 
	C164.819733,386.694824 164.656891,386.778870 164.250610,386.735291 
z"/>
<path fill="#76D9FD" opacity="1.000000" stroke="none" 
	d="
M695.905884,349.748596 
	C695.575317,349.777802 695.508484,349.524475 695.743958,349.124725 
	C695.885315,349.179535 695.926453,349.342133 695.905884,349.748596 
z"/>
<path fill="#64C7F8" opacity="1.000000" stroke="none" 
	d="
M161.250610,386.735291 
	C161.216461,386.362244 161.472565,386.296143 161.879028,386.510071 
	C161.819733,386.694824 161.656891,386.778870 161.250610,386.735291 
z"/>
<path fill="#76D9FD" opacity="1.000000" stroke="none" 
	d="
M695.905945,273.748505 
	C695.575439,273.777710 695.508606,273.524475 695.744019,273.124939 
	C695.885376,273.179779 695.926514,273.342255 695.905945,273.748505 
z"/>
<path fill="#64C7F8" opacity="1.000000" stroke="none" 
	d="
M158.250610,386.735291 
	C158.216461,386.362244 158.472565,386.296143 158.879028,386.510071 
	C158.819733,386.694824 158.656891,386.778870 158.250610,386.735291 
z"/>
<path fill="#76D9FD" opacity="1.000000" stroke="none" 
	d="
M695.905884,329.748596 
	C695.575317,329.777802 695.508484,329.524475 695.743958,329.124725 
	C695.885315,329.179535 695.926453,329.342133 695.905884,329.748596 
z"/>
<path fill="#76D9FD" opacity="1.000000" stroke="none" 
	d="
M695.905884,333.748596 
	C695.575317,333.777802 695.508484,333.524475 695.743958,333.124725 
	C695.885315,333.179535 695.926453,333.342133 695.905884,333.748596 
z"/>
<path fill="#76D9FD" opacity="1.000000" stroke="none" 
	d="
M695.905884,337.748596 
	C695.575317,337.777802 695.508484,337.524475 695.743958,337.124725 
	C695.885315,337.179535 695.926453,337.342133 695.905884,337.748596 
z"/>
<path fill="#76D9FD" opacity="1.000000" stroke="none" 
	d="
M695.905884,341.748596 
	C695.575317,341.777802 695.508484,341.524475 695.743958,341.124725 
	C695.885315,341.179535 695.926453,341.342133 695.905884,341.748596 
z"/>
<path fill="#64C7F8" opacity="1.000000" stroke="none" 
	d="
M154.994232,386.308655 
	C155.221878,386.068726 155.471405,386.163452 155.839233,386.468597 
	C155.669754,386.598541 155.355942,386.586639 154.994232,386.308655 
z"/>
<path fill="#76D9FD" opacity="1.000000" stroke="none" 
	d="
M695.905884,345.748596 
	C695.575317,345.777802 695.508484,345.524475 695.743958,345.124725 
	C695.885315,345.179535 695.926453,345.342133 695.905884,345.748596 
z"/>
<path fill="#7FDBFF" opacity="1.000000" stroke="none" 
	d="
M304.899750,179.741257 
	C304.579529,179.767548 304.515747,179.522690 304.743469,179.137665 
	C304.839142,179.032333 304.960358,179.504944 304.899750,179.741257 
z"/>
<path fill="#76D9FD" opacity="1.000000" stroke="none" 
	d="
M695.905945,241.748474 
	C695.575439,241.777695 695.508606,241.524490 695.744080,241.124939 
	C695.885376,241.179749 695.926514,241.342239 695.905945,241.748474 
z"/>
<path fill="#76D9FD" opacity="1.000000" stroke="none" 
	d="
M695.905945,237.748474 
	C695.575439,237.777695 695.508606,237.524490 695.744080,237.124939 
	C695.885376,237.179749 695.926514,237.342239 695.905945,237.748474 
z"/>
<path fill="#76D9FD" opacity="1.000000" stroke="none" 
	d="
M695.905945,233.748474 
	C695.575439,233.777695 695.508606,233.524490 695.744080,233.124939 
	C695.885376,233.179749 695.926514,233.342239 695.905945,233.748474 
z"/>
<path fill="#7FDBFF" opacity="1.000000" stroke="none" 
	d="
M304.899750,123.741257 
	C304.579529,123.767540 304.515747,123.522675 304.743469,123.137657 
	C304.839142,123.032333 304.960358,123.504951 304.899750,123.741257 
z"/>
<path fill="#76D9FD" opacity="1.000000" stroke="none" 
	d="
M695.905945,229.748474 
	C695.575439,229.777695 695.508606,229.524490 695.744080,229.124939 
	C695.885376,229.179749 695.926514,229.342239 695.905945,229.748474 
z"/>
<path fill="#76D9FD" opacity="1.000000" stroke="none" 
	d="
M695.905945,225.748474 
	C695.575439,225.777695 695.508606,225.524490 695.744080,225.124939 
	C695.885376,225.179749 695.926514,225.342239 695.905945,225.748474 
z"/>
<path fill="#7FDBFF" opacity="1.000000" stroke="none" 
	d="
M304.899750,127.741257 
	C304.579529,127.767540 304.515747,127.522675 304.743469,127.137657 
	C304.839142,127.032333 304.960358,127.504951 304.899750,127.741257 
z"/>
<path fill="#7FDBFF" opacity="1.000000" stroke="none" 
	d="
M304.899750,131.741257 
	C304.579529,131.767548 304.515747,131.522690 304.743469,131.137665 
	C304.839142,131.032333 304.960358,131.504944 304.899750,131.741257 
z"/>
<path fill="#7FDBFF" opacity="1.000000" stroke="none" 
	d="
M304.899750,191.741257 
	C304.579529,191.767548 304.515747,191.522690 304.743469,191.137665 
	C304.839142,191.032333 304.960358,191.504944 304.899750,191.741257 
z"/>
<path fill="#7FDBFF" opacity="1.000000" stroke="none" 
	d="
M304.899750,187.741257 
	C304.579529,187.767548 304.515747,187.522690 304.743469,187.137665 
	C304.839142,187.032333 304.960358,187.504944 304.899750,187.741257 
z"/>
<path fill="#7FDBFF" opacity="1.000000" stroke="none" 
	d="
M304.899750,183.741257 
	C304.579529,183.767548 304.515747,183.522690 304.743469,183.137665 
	C304.839142,183.032333 304.960358,183.504944 304.899750,183.741257 
z"/>
<path fill="#7FDBFF" opacity="1.000000" stroke="none" 
	d="
M304.899750,119.741257 
	C304.579529,119.767540 304.515747,119.522675 304.743469,119.137657 
	C304.839142,119.032333 304.960358,119.504951 304.899750,119.741257 
z"/>
<path fill="#7FDBFF" opacity="1.000000" stroke="none" 
	d="
M304.899750,175.741257 
	C304.579529,175.767548 304.515747,175.522690 304.743469,175.137665 
	C304.839142,175.032333 304.960358,175.504944 304.899750,175.741257 
z"/>
<path fill="#7FDBFF" opacity="1.000000" stroke="none" 
	d="
M304.899750,171.741257 
	C304.579529,171.767548 304.515747,171.522690 304.743469,171.137665 
	C304.839142,171.032333 304.960358,171.504944 304.899750,171.741257 
z"/>
<path fill="#7FDBFF" opacity="1.000000" stroke="none" 
	d="
M304.899750,167.741257 
	C304.579529,167.767548 304.515747,167.522690 304.743469,167.137665 
	C304.839142,167.032333 304.960358,167.504944 304.899750,167.741257 
z"/>
<path fill="#7FDBFF" opacity="1.000000" stroke="none" 
	d="
M304.899750,135.741257 
	C304.579529,135.767548 304.515747,135.522690 304.743469,135.137665 
	C304.839142,135.032333 304.960358,135.504944 304.899750,135.741257 
z"/>
<path fill="#7FDBFF" opacity="1.000000" stroke="none" 
	d="
M304.899750,163.741257 
	C304.579529,163.767548 304.515747,163.522690 304.743469,163.137665 
	C304.839142,163.032333 304.960358,163.504944 304.899750,163.741257 
z"/>
<path fill="#7FDBFF" opacity="1.000000" stroke="none" 
	d="
M304.899750,159.741257 
	C304.579529,159.767548 304.515747,159.522690 304.743469,159.137665 
	C304.839142,159.032333 304.960358,159.504944 304.899750,159.741257 
z"/>
<path fill="#7FDBFF" opacity="1.000000" stroke="none" 
	d="
M304.899750,155.741257 
	C304.579529,155.767548 304.515747,155.522690 304.743469,155.137665 
	C304.839142,155.032333 304.960358,155.504944 304.899750,155.741257 
z"/>
<path fill="#7FDBFF" opacity="1.000000" stroke="none" 
	d="
M304.899750,151.741257 
	C304.579529,151.767548 304.515747,151.522690 304.743469,151.137665 
	C304.839142,151.032333 304.960358,151.504944 304.899750,151.741257 
z"/>
<path fill="#7FDBFF" opacity="1.000000" stroke="none" 
	d="
M304.899750,147.741257 
	C304.579529,147.767548 304.515747,147.522690 304.743469,147.137665 
	C304.839142,147.032333 304.960358,147.504944 304.899750,147.741257 
z"/>
<path fill="#7FDBFF" opacity="1.000000" stroke="none" 
	d="
M304.899750,143.741257 
	C304.579529,143.767548 304.515747,143.522690 304.743469,143.137665 
	C304.839142,143.032333 304.960358,143.504944 304.899750,143.741257 
z"/>
<path fill="#76D9FD" opacity="1.000000" stroke="none" 
	d="
M695.905945,261.748505 
	C695.575439,261.777710 695.508606,261.524475 695.744019,261.124939 
	C695.885376,261.179779 695.926514,261.342255 695.905945,261.748505 
z"/>
<path fill="#76D9FD" opacity="1.000000" stroke="none" 
	d="
M695.905945,281.748505 
	C695.575439,281.777710 695.508606,281.524475 695.744019,281.124939 
	C695.885376,281.179779 695.926514,281.342255 695.905945,281.748505 
z"/>
<path fill="#7ADEFF" opacity="1.000000" stroke="none" 
	d="
M304.899750,281.745667 
	C304.576904,281.771973 304.512512,281.522766 304.742584,281.131134 
	C304.839172,281.023499 304.960327,281.504944 304.899750,281.745667 
z"/>
<path fill="#76D9FD" opacity="1.000000" stroke="none" 
	d="
M695.905945,277.748505 
	C695.575439,277.777710 695.508606,277.524475 695.744019,277.124939 
	C695.885376,277.179779 695.926514,277.342255 695.905945,277.748505 
z"/>
<path fill="#7ADEFF" opacity="1.000000" stroke="none" 
	d="
M304.899750,277.745667 
	C304.576904,277.771973 304.512512,277.522766 304.742584,277.131134 
	C304.839172,277.023499 304.960327,277.504944 304.899750,277.745667 
z"/>
<path fill="#7FDBFF" opacity="1.000000" stroke="none" 
	d="
M304.899750,139.741257 
	C304.579529,139.767548 304.515747,139.522690 304.743469,139.137665 
	C304.839142,139.032333 304.960358,139.504944 304.899750,139.741257 
z"/>
<path fill="#7ADEFF" opacity="1.000000" stroke="none" 
	d="
M304.899750,273.745667 
	C304.576904,273.771973 304.512512,273.522766 304.742584,273.131134 
	C304.839172,273.023499 304.960327,273.504944 304.899750,273.745667 
z"/>
<path fill="#76D9FD" opacity="1.000000" stroke="none" 
	d="
M695.905945,269.748505 
	C695.575439,269.777710 695.508606,269.524475 695.744019,269.124939 
	C695.885376,269.179779 695.926514,269.342255 695.905945,269.748505 
z"/>
<path fill="#7ADEFF" opacity="1.000000" stroke="none" 
	d="
M304.899750,269.745667 
	C304.576904,269.771973 304.512512,269.522766 304.742584,269.131134 
	C304.839172,269.023499 304.960327,269.504944 304.899750,269.745667 
z"/>
<path fill="#76D9FD" opacity="1.000000" stroke="none" 
	d="
M695.905945,265.748505 
	C695.575439,265.777710 695.508606,265.524475 695.744019,265.124939 
	C695.885376,265.179779 695.926514,265.342255 695.905945,265.748505 
z"/>
<path fill="#7ADEFF" opacity="1.000000" stroke="none" 
	d="
M304.899750,265.745667 
	C304.576904,265.771973 304.512512,265.522766 304.742584,265.131134 
	C304.839172,265.023499 304.960327,265.504944 304.899750,265.745667 
z"/>
<path fill="#7ADEFF" opacity="1.000000" stroke="none" 
	d="
M304.899750,285.745667 
	C304.576904,285.771973 304.512512,285.522766 304.742584,285.131134 
	C304.839172,285.023499 304.960327,285.504944 304.899750,285.745667 
z"/>
<path fill="#7ADEFF" opacity="1.000000" stroke="none" 
	d="
M304.899750,261.745667 
	C304.576904,261.771973 304.512512,261.522766 304.742584,261.131134 
	C304.839172,261.023499 304.960327,261.504944 304.899750,261.745667 
z"/>
<path fill="#76D9FD" opacity="1.000000" stroke="none" 
	d="
M695.905945,257.748505 
	C695.575439,257.777710 695.508606,257.524475 695.744019,257.124939 
	C695.885376,257.179779 695.926514,257.342255 695.905945,257.748505 
z"/>
<path fill="#7ADEFF" opacity="1.000000" stroke="none" 
	d="
M304.899750,257.745667 
	C304.576904,257.771973 304.512512,257.522766 304.742584,257.131134 
	C304.839172,257.023499 304.960327,257.504944 304.899750,257.745667 
z"/>
<path fill="#76D9FD" opacity="1.000000" stroke="none" 
	d="
M695.905945,253.748474 
	C695.575439,253.777695 695.508606,253.524490 695.744080,253.124939 
	C695.885376,253.179749 695.926514,253.342239 695.905945,253.748474 
z"/>
<path fill="#7ADEFF" opacity="1.000000" stroke="none" 
	d="
M304.899750,253.745514 
	C304.576843,253.771835 304.512421,253.522736 304.742554,253.131317 
	C304.839172,253.023788 304.960327,253.504944 304.899750,253.745514 
z"/>
<path fill="#7FDBFF" opacity="1.000000" stroke="none" 
	d="
M304.899231,112.745842 
	C304.580627,112.774376 304.514679,112.534912 304.735229,112.156281 
	C304.829193,112.053375 304.959320,112.514122 304.899231,112.745842 
z"/>
<path fill="#76D9FD" opacity="1.000000" stroke="none" 
	d="
M695.905945,249.748474 
	C695.575439,249.777695 695.508606,249.524490 695.744080,249.124939 
	C695.885376,249.179749 695.926514,249.342239 695.905945,249.748474 
z"/>
<path fill="#7ADEFF" opacity="1.000000" stroke="none" 
	d="
M304.899750,249.745514 
	C304.576843,249.771835 304.512421,249.522736 304.742554,249.131317 
	C304.839172,249.023788 304.960327,249.504944 304.899750,249.745514 
z"/>
<path fill="#7FDBFF" opacity="1.000000" stroke="none" 
	d="
M304.899750,115.741264 
	C304.579498,115.767563 304.515686,115.522697 304.743469,115.137657 
	C304.839142,115.032341 304.960358,115.504959 304.899750,115.741264 
z"/>
<path fill="#76D9FD" opacity="1.000000" stroke="none" 
	d="
M695.905945,245.748474 
	C695.575439,245.777695 695.508606,245.524490 695.744080,245.124939 
	C695.885376,245.179749 695.926514,245.342239 695.905945,245.748474 
z"/>
<path fill="#8BF0FF" opacity="1.000000" stroke="none" 
	d="
M226.722549,242.011887 
	C225.355560,242.336731 223.762482,242.897888 222.165588,242.908981 
	C211.023712,242.986389 199.881012,242.949905 188.729797,241.981003 
	C200.851166,241.981003 212.972549,241.981003 225.566650,241.967133 
	C226.039368,241.953278 226.494705,241.993637 226.722549,242.011887 
z"/>
<path fill="#66CCFF" opacity="1.000000" stroke="none" 
	d="
M627.014648,296.000000 
	C627.014587,306.141907 626.837830,315.788605 627.098694,325.423431 
	C627.208252,329.468597 626.070374,332.029327 622.164062,333.491394 
	C619.604431,334.449402 617.268860,336.006073 613.985352,337.743011 
	C613.985352,335.170868 613.985352,333.416260 613.985352,331.661652 
	C613.985352,314.538971 614.154175,297.413605 613.885620,280.295135 
	C613.801758,274.949432 614.788574,270.658508 619.153198,267.177917 
	C621.704468,265.143372 623.659302,262.361023 627.014648,258.669495 
	C627.014648,271.876465 627.014648,283.688232 627.014648,296.000000 
z"/>
<path fill="#7EDBFF" opacity="1.000000" stroke="none" 
	d="
M457.969635,384.592896 
	C446.718048,384.776001 448.048157,386.652924 448.017456,374.843262 
	C447.961792,353.428009 447.989624,332.012512 448.021912,310.597198 
	C448.024872,308.626556 448.310913,306.656281 448.695312,304.345764 
	C449.609558,308.698608 450.431702,313.376312 450.954010,318.087250 
	C452.957489,336.158905 454.871033,354.240509 456.803040,372.320038 
	C457.224640,376.265259 457.584045,380.217102 457.969635,384.592896 
z"/>
<path fill="#8BF0FF" opacity="1.000000" stroke="none" 
	d="
M17.518742,261.911621 
	C21.543783,261.611267 26.032007,261.312347 30.518955,260.995392 
	C32.451260,260.858917 34.380928,260.685089 36.647331,260.293335 
	C38.405083,260.364655 39.827305,260.670868 41.613281,260.996399 
	C35.790375,261.324280 29.604708,261.655396 23.416441,261.927338 
	C21.608574,262.006836 19.793289,261.917633 17.518742,261.911621 
z"/>
</svg>