<svg version="1.1" id="Layer_1" xmlns="http://www.w3.org/2000/svg" xmlns:xlink="http://www.w3.org/1999/xlink" x="0px" y="0px"
	 width="100%" viewBox="0 0 624 672" enable-background="new 0 0 624 672" xml:space="preserve">
<path fill="#000000" opacity="1.000000" stroke="none" 
	d="
M241.672028,67.237885 
	C247.235901,68.393066 250.944580,65.678688 253.409256,61.795628 
	C258.097565,54.409237 264.977966,53.571423 272.590424,54.374653 
	C277.585754,54.901737 282.603943,55.076141 287.547577,54.461109 
	C290.902405,54.043736 292.784882,55.104485 294.517517,57.840889 
	C302.970673,71.191109 309.573120,71.230698 318.144470,57.864628 
	C320.242310,54.593266 323.151398,54.235298 326.310059,54.267952 
	C333.589600,54.343212 340.873260,54.908215 348.142731,54.738609 
	C352.634216,54.633820 355.787750,56.070511 358.277191,59.729843 
	C359.473328,61.488155 361.082947,63.043587 362.748901,64.389442 
	C368.104858,68.716339 375.366760,67.920250 378.511078,61.815601 
	C382.208496,54.637169 387.963593,53.058262 395.027008,53.555435 
	C401.001465,53.975960 406.993195,53.170963 412.975616,54.226196 
	C416.917236,54.921467 419.708527,56.662445 421.626831,60.158371 
	C423.615814,63.783043 426.446136,66.493385 430.681122,67.430313 
	C433.884613,68.139030 437.718384,67.673935 438.707489,64.977631 
	C442.708984,54.069443 451.928192,54.125946 460.811981,53.832573 
	C466.919830,53.630875 473.070740,54.447338 479.188873,54.967999 
	C482.113678,55.216904 484.010803,57.003307 484.981384,59.786301 
	C486.467896,64.048683 489.218964,67.234779 493.872284,67.439499 
	C498.705963,67.652145 502.655884,65.275604 504.775421,60.865276 
	C507.573822,55.042477 512.047119,53.113266 518.215942,53.729050 
	C520.484009,53.955452 522.889160,53.623283 525.133118,53.112362 
	C530.271973,51.942291 533.319946,53.477692 533.911316,58.767025 
	C534.613220,65.044495 534.379944,71.398689 533.588684,77.707581 
	C533.168762,81.056129 530.715820,82.343620 528.132507,83.626617 
	C524.003174,85.677437 520.140747,87.876610 520.306030,93.459213 
	C520.473572,99.118271 523.989624,102.235527 528.545227,104.334961 
	C532.272034,106.052422 534.857666,108.290833 534.082275,112.661713 
	C532.665283,120.650169 533.714539,128.612839 534.132812,136.570602 
	C534.348511,140.674576 533.093262,143.200516 528.950439,144.302307 
	C523.976990,145.625000 520.014771,148.103851 519.794373,154.026627 
	C519.625427,158.566589 523.345459,164.193939 528.860535,166.050873 
	C533.873413,167.738693 534.817444,170.592377 534.413818,175.498718 
	C533.801514,182.942307 534.029907,190.464722 534.109253,197.951462 
	C534.149231,201.722229 533.260315,204.151169 529.047546,205.164551 
	C525.070740,206.121185 521.998535,208.796265 520.383179,212.823517 
	C518.823730,216.711517 519.796265,219.989304 522.684387,222.788879 
	C523.632202,223.707550 524.729248,224.530640 525.885010,225.166672 
	C532.470947,228.790909 534.972107,234.198257 534.300476,241.727982 
	C533.740112,248.009674 534.082275,254.383804 534.229797,260.712189 
	C534.317993,264.496216 533.443542,266.820160 529.143005,267.815460 
	C524.382874,268.917084 521.553528,272.450836 521.436584,277.647583 
	C521.324951,282.610565 523.522156,285.916595 528.402222,287.271484 
	C532.717651,288.469604 534.446472,291.136810 534.257874,295.749847 
	C533.924500,303.903107 533.994995,312.081299 534.170349,320.243195 
	C534.252930,324.088501 532.987061,326.656708 529.303711,327.959015 
	C527.215637,328.697296 525.607910,330.147064 524.050659,331.686432 
	C518.050232,337.618134 518.781433,344.569580 526.517334,348.167450 
	C532.613220,351.002594 534.803772,354.980377 534.253052,361.516022 
	C533.737122,367.639404 534.016418,373.841309 534.153320,380.004059 
	C534.241089,383.958649 533.136414,386.816467 528.957092,387.925507 
	C527.701599,388.258698 526.550110,389.055511 525.409546,389.737854 
	C518.945801,393.604858 517.424683,404.439972 525.658875,408.038849 
	C532.757202,411.141235 534.825867,416.310974 534.142090,423.673462 
	C533.544128,430.111481 534.331787,436.622772 533.512390,443.123596 
	C533.101196,446.385468 531.948547,448.070312 528.987671,449.426056 
	C521.477478,452.864838 519.641235,455.705353 520.385559,461.730255 
	C520.981140,466.551514 524.528748,469.194763 528.249878,471.455933 
	C534.907959,475.501862 535.148132,476.278961 534.453247,484.330841 
	C533.953186,490.125000 534.197144,495.984894 534.146423,501.815826 
	C534.107422,506.299500 532.828796,509.919159 528.280273,511.877289 
	C526.493896,512.646301 524.875488,514.003540 523.447754,515.371704 
	C518.638550,519.979980 519.432129,526.640808 525.541382,529.297424 
	C532.002319,532.106995 533.997437,536.817749 534.479858,543.424805 
	C535.002747,550.586914 535.024536,557.632874 534.379211,564.779663 
	C534.048401,568.442688 532.926331,570.706848 529.458923,571.910706 
	C525.095154,573.425842 521.102966,575.441895 520.353149,580.729614 
	C519.524170,586.577026 522.962158,589.986755 527.251343,593.013306 
	C534.969788,598.459595 538.462402,613.210266 533.700317,621.362793 
	C531.595459,624.966248 527.179688,625.083130 523.585388,626.029480 
	C520.571350,626.823059 517.313904,627.063721 514.183716,626.959961 
	C509.134583,626.792480 504.192566,626.156372 501.585358,620.661926 
	C500.443329,618.255188 498.334839,616.433044 496.106842,614.930725 
	C491.862427,612.068787 488.350037,612.595642 486.257568,617.294556 
	C483.601044,623.260132 477.954437,624.743042 473.014313,625.900391 
	C464.110413,627.986450 454.831909,627.697449 445.711151,626.181702 
	C443.149139,625.755920 441.091797,624.475220 439.368011,622.511780 
	C437.502625,620.387024 435.645447,618.207886 433.502747,616.383667 
	C429.274231,612.783508 426.091583,613.444702 423.894287,618.560852 
	C422.251282,622.386475 418.902466,623.171997 415.600647,624.215576 
	C405.132782,627.524109 394.477478,628.331604 383.628662,626.516663 
	C380.109070,625.927917 377.494934,624.081421 375.606079,621.123962 
	C373.941986,618.518433 371.597748,616.707703 368.912720,615.268921 
	C366.272095,613.853882 363.903809,614.299927 362.398071,616.807068 
	C357.494537,624.971802 349.331848,626.439209 340.973846,627.298218 
	C337.015625,627.705017 332.969360,627.174622 328.984344,627.418152 
	C321.547302,627.872620 315.591217,625.994507 310.630585,619.731873 
	C305.197968,612.873352 302.981995,613.225342 297.216583,619.654297 
	C291.994263,625.477722 284.910828,626.545410 277.789764,627.271118 
	C273.664734,627.691528 269.451019,627.166626 265.301147,627.435791 
	C257.930511,627.913940 252.116043,625.596252 247.417618,619.634033 
	C243.419937,614.561157 240.544388,615.339417 235.965149,619.900269 
	C230.424332,625.418823 222.781647,626.631104 215.332977,627.270874 
	C209.708328,627.754028 204.008621,627.351685 198.342377,627.365112 
	C193.872147,627.375732 190.369324,625.571411 187.572815,622.072327 
	C181.925858,615.006531 179.972076,614.875061 173.030563,620.079285 
	C168.318466,623.612000 162.930374,625.801941 157.090729,626.724609 
	C148.644684,628.059143 140.141800,627.488586 131.681015,627.063171 
	C128.265793,626.891479 125.471420,624.754822 123.760437,621.599182 
	C122.354752,619.006653 120.083305,617.332214 117.700241,615.776733 
	C115.023338,614.029419 112.536270,614.303101 110.773613,617.007263 
	C105.245598,625.487976 96.391777,626.332153 87.579102,627.289185 
	C86.266029,627.431885 84.916801,627.231934 83.584015,627.204712 
	C77.210403,627.074524 76.854851,626.567383 77.432350,620.221497 
	C77.928711,614.767212 77.309052,609.243042 78.667511,603.827026 
	C79.631393,599.984009 81.092659,596.830750 84.791267,594.645935 
	C90.465927,591.293945 90.860428,587.429199 86.477600,582.384583 
	C85.293213,581.021301 83.849556,579.805847 82.328323,578.828491 
	C78.902107,576.627136 77.492821,573.610962 77.573494,569.569641 
	C77.723145,562.072815 77.671951,554.571411 77.654572,547.072021 
	C77.642517,541.869202 79.553604,537.876587 84.005722,534.843628 
	C91.061249,530.037170 90.929329,522.932190 83.675659,518.450195 
	C79.344620,515.774170 77.527802,512.198425 77.607033,507.282196 
	C77.725174,499.951050 77.711365,492.617767 77.751968,485.285400 
	C77.780807,480.077820 79.741852,476.074982 84.344704,473.218170 
	C90.690796,469.279419 90.920525,467.420746 86.662468,461.198761 
	C86.380325,460.786438 86.135460,460.317017 85.764839,460.001434 
	C71.434898,447.798676 78.769836,432.163025 79.172180,417.674011 
	C79.232018,415.519196 81.328606,414.060455 83.135643,412.754822 
	C90.487068,407.443298 90.948723,401.020355 83.243683,395.718475 
	C77.674889,391.886566 77.125168,387.281036 77.395622,381.570435 
	C77.679214,375.582397 77.545547,369.575653 77.672028,363.578766 
	C77.787338,358.111664 79.703773,353.592957 84.446671,350.407837 
	C90.832787,346.119171 91.539383,340.803802 84.914886,336.808044 
	C77.595779,332.393341 77.083954,326.555725 77.572838,319.447968 
	C78.074043,312.161133 77.068779,304.818817 78.573982,297.538422 
	C79.154068,294.732635 80.077957,292.319550 82.582077,290.999878 
	C91.686226,286.202087 89.641739,278.852051 82.371986,273.199127 
	C78.327927,270.054443 77.182510,266.803619 77.351402,262.195953 
	C77.595413,255.538818 77.506470,248.870178 77.635620,242.207901 
	C77.744179,236.608597 79.319260,231.503021 84.347542,228.468384 
	C91.283218,224.282623 89.549614,216.640533 83.764114,213.565918 
	C77.814301,210.403961 77.240685,205.601776 76.684624,199.924377 
	C75.976143,192.690674 77.558586,185.674805 77.827499,178.547882 
	C78.003098,173.894073 80.500420,170.143204 84.419884,167.309204 
	C89.910866,163.338867 90.152290,160.671066 85.951683,155.358032 
	C85.641693,154.965958 85.377220,154.499588 84.984245,154.217041 
	C74.574684,146.732269 75.175758,136.207138 76.898994,125.316147 
	C77.339249,122.533707 77.468712,119.697449 77.652466,116.880150 
	C77.926689,112.675812 79.126732,108.816650 83.092422,106.833557 
	C91.019730,102.869408 90.238541,97.572128 83.550369,91.970207 
	C76.759865,86.282585 75.270020,80.085182 76.929237,72.114548 
	C77.500374,69.370872 77.485077,66.499596 77.670387,63.682186 
	C78.172310,56.050774 82.013824,53.036034 89.478394,54.409939 
	C90.617485,54.619595 91.817520,54.836834 92.947502,54.701366 
	C99.452736,53.921474 103.784164,56.554771 107.568687,61.978588 
	C113.579865,70.593575 122.395752,70.087982 127.586967,61.136574 
	C130.206070,56.620365 133.289352,54.478058 138.735306,54.550716 
	C146.110764,54.649124 153.489563,53.672123 160.893036,54.571255 
	C165.070267,55.078571 167.935425,57.284630 170.068863,60.721088 
	C170.595413,61.569225 171.127213,62.422871 171.744568,63.204510 
	C177.859650,70.946907 186.238220,70.587814 190.353516,61.643963 
	C193.431549,54.954403 197.915222,53.083897 204.585098,53.636429 
	C210.044830,54.088715 215.535522,53.850334 221.029449,54.227497 
	C226.384613,54.595139 229.562775,57.286839 232.602310,60.954155 
	C234.940933,63.775780 237.219925,66.734413 241.672028,67.237885 
M321.248108,59.564953 
	C320.710876,60.196068 320.011658,60.748341 319.660461,61.469986 
	C313.244904,74.652924 297.542389,74.311562 291.642761,62.474312 
	C290.398529,59.977844 288.031952,58.550053 285.168396,58.354259 
	C279.686951,57.979462 274.198425,57.441612 268.713989,57.454933 
	C263.712646,57.467075 259.087463,58.110504 255.740005,63.134029 
	C248.146439,74.529633 236.961838,74.435707 229.072464,63.326519 
	C227.282440,60.805946 225.365829,58.579178 222.000793,58.375191 
	C216.681274,58.052731 211.364441,57.638371 206.039871,57.459175 
	C200.305435,57.266186 195.745880,58.596931 192.236725,64.215462 
	C186.559418,73.305450 174.059555,74.602478 168.631943,66.439095 
	C164.010101,59.487644 158.436340,57.623238 150.942291,58.197777 
	C148.129944,58.413383 145.271927,58.286716 142.451096,58.086124 
	C136.492081,57.662369 132.261383,59.457737 128.822281,64.971992 
	C123.198944,73.988434 110.572632,73.689766 104.428513,65.034088 
	C103.465240,63.677052 102.593697,62.232182 101.481529,61.007999 
	C98.647522,57.888577 87.441597,55.565350 83.524994,57.729523 
	C79.379280,60.020287 81.992165,64.364639 81.376755,67.748909 
	C81.142128,69.039169 81.400261,70.411400 81.332970,71.741173 
	C81.137856,75.596840 82.326424,78.209053 86.264809,79.946831 
	C91.710739,82.349762 94.359390,86.971466 94.554985,93.099205 
	C94.750076,99.211082 93.467644,104.467903 87.496674,107.300911 
	C83.111961,109.381302 81.669151,113.030807 81.495140,117.404671 
	C81.316376,121.897995 81.230255,126.411415 81.446564,130.899521 
	C81.671913,135.575180 82.598969,139.381592 87.798080,142.043198 
	C97.139954,146.825592 97.583054,163.120926 88.473740,168.103058 
	C83.079536,171.053268 81.914398,175.019669 81.648216,180.125763 
	C81.483887,183.278275 81.226807,186.470413 81.534836,189.593109 
	C82.051178,194.827545 81.749649,199.811646 88.323013,203.002563 
	C97.132294,207.278854 98.215424,223.203552 90.165146,227.665680 
	C82.914940,231.684326 81.717270,237.201233 82.093155,244.214447 
	C82.226852,246.708984 82.547661,249.245407 82.257751,251.700699 
	C81.483284,258.259857 84.094299,262.611664 89.588623,266.250854 
	C96.621361,270.909058 96.698380,284.734894 89.644684,289.252228 
	C83.786018,293.004211 81.660477,297.755463 82.277031,304.341492 
	C82.524544,306.985382 82.571396,309.696747 82.287849,312.332031 
	C81.594543,318.775909 83.761597,323.278076 89.421318,326.954742 
	C96.698524,331.682159 96.936676,345.766357 89.743752,350.410889 
	C83.669632,354.332947 81.803238,359.313446 82.300072,365.978241 
	C82.522461,368.961578 82.450790,371.980286 82.314163,374.973907 
	C82.074211,380.231689 83.825035,384.074280 88.534973,387.049103 
	C96.972160,392.378174 97.208519,406.493713 88.919762,412.125061 
	C84.060791,415.426239 82.140007,419.570312 82.321686,425.147003 
	C82.424744,428.310181 82.459053,431.484711 82.316856,434.644836 
	C82.049080,440.595673 83.929382,445.014648 89.286942,448.458679 
	C96.980469,453.404327 96.930885,468.120117 89.229118,472.913666 
	C84.500847,475.856567 82.626907,479.732269 82.463982,484.822571 
	C82.309479,489.649841 82.213081,494.497955 82.494263,499.313354 
	C82.674225,502.395203 83.117233,505.457062 86.322876,507.483429 
	C99.407227,515.754333 99.766380,527.565186 87.192245,536.363342 
	C84.602814,538.175171 83.241203,540.194153 83.214165,543.308350 
	C83.167900,548.637817 83.345802,554.002319 82.789871,559.284790 
	C82.244972,564.462463 83.761383,568.125610 88.573502,570.146301 
	C94.302498,572.551941 96.580696,577.181458 96.141869,582.906616 
	C95.660904,589.181274 93.956963,595.135803 87.274185,597.959290 
	C85.587135,598.672119 83.738411,599.328491 83.494820,601.526611 
	C83.000069,605.991028 82.178307,610.443359 82.667725,614.964478 
	C82.877502,616.902283 83.445671,618.637573 85.898087,618.613342 
	C93.973129,618.533630 101.767555,619.446228 107.363304,610.654114 
	C113.176186,601.520752 129.340561,603.820068 131.596359,613.676331 
	C132.164398,616.158264 133.938263,617.370972 136.612534,617.800598 
	C144.264862,619.030029 151.844193,618.615845 159.500641,617.814331 
	C163.341827,617.412292 166.233383,616.029358 168.201447,612.853210 
	C174.903244,602.037292 189.075333,601.811218 195.081848,613.850586 
	C196.394501,616.481689 198.476456,617.595642 201.488815,617.742310 
	C208.992401,618.107666 216.478485,617.785767 223.973389,617.680420 
	C226.702667,617.642029 228.106674,616.274902 229.381348,614.055176 
	C237.759415,599.465820 252.620529,604.183716 257.936157,613.577881 
	C259.510681,616.360474 261.691895,617.659607 264.805908,617.653198 
	C271.805511,617.638672 278.805145,617.653198 285.804779,617.644836 
	C288.050446,617.642212 290.552490,617.383423 291.376373,615.112366 
	C293.312073,609.776672 297.838928,607.674438 302.403168,605.682495 
	C308.709137,602.930725 317.691589,606.202393 320.143127,612.567932 
	C321.747009,616.732544 324.502716,617.629761 328.226318,617.644592 
	C334.225922,617.668518 340.227814,617.553528 346.224701,617.683472 
	C350.807373,617.782715 354.045654,616.051453 356.619720,612.136597 
	C363.578583,601.552979 376.649200,601.746094 383.200287,612.522766 
	C385.365356,616.084229 388.168335,617.680664 392.176544,617.654297 
	C397.842712,617.617004 403.510132,617.698975 409.175293,617.612976 
	C413.144196,617.552856 416.016113,616.323303 418.553101,612.507385 
	C425.197205,602.513977 441.122467,600.805298 446.095123,612.299744 
	C447.598419,615.774658 450.542786,617.177551 454.069366,617.375977 
	C461.052734,617.768738 468.038818,618.030823 475.016785,617.078735 
	C477.661926,616.717773 479.413666,615.736572 480.867676,613.224182 
	C486.880280,602.835571 503.377869,600.004456 509.270081,612.546326 
	C511.374634,617.025940 523.442383,619.160583 527.748169,616.505127 
	C528.662781,615.941162 529.047241,615.050842 529.344604,614.069702 
	C531.685303,606.345825 529.215393,598.906677 522.676514,594.042786 
	C514.613525,588.045227 514.057678,574.982117 522.258057,570.039368 
	C528.147522,566.489563 530.144104,561.976318 529.682739,555.586304 
	C529.455261,552.436401 529.554626,549.252686 529.670227,546.090332 
	C529.875488,540.474609 527.859680,536.386414 522.973999,533.119446 
	C513.931091,527.072510 514.050110,514.013794 523.257935,508.452271 
	C527.559326,505.854187 529.359070,502.491150 529.496643,497.960510 
	C529.658081,492.638641 529.545410,487.301331 529.349365,481.978149 
	C529.206421,478.094879 527.413879,475.319916 523.965881,473.049774 
	C513.292358,466.022308 513.254578,453.421478 523.836182,446.327362 
	C527.029846,444.186249 528.917847,441.642426 529.292542,437.929291 
	C529.879089,432.116791 529.906555,426.276886 529.354126,420.476807 
	C529.032227,417.096924 527.482849,414.369812 524.338013,412.330963 
	C513.148071,405.076233 513.111206,392.674255 524.167236,385.111694 
	C526.996460,383.176453 528.487854,380.897369 528.840759,377.391479 
	C529.494263,370.898193 529.639954,364.480286 528.814087,357.983307 
	C528.416016,354.851959 527.368652,352.676147 524.453918,351.336487 
	C511.586029,345.422272 514.553101,328.393494 524.536560,323.026245 
	C527.681580,321.335449 528.772705,319.219208 528.702332,315.879883 
	C528.579407,310.049561 528.544495,304.210388 528.729431,298.383026 
	C528.854370,294.446960 527.297729,291.859222 523.980469,289.776794 
	C513.466003,283.176270 512.153137,271.144196 522.396423,263.930634 
	C528.436646,259.676971 528.870789,255.119034 528.682922,249.237671 
	C528.587219,246.240891 528.429382,243.215820 528.715515,240.243561 
	C529.267639,234.507401 527.010010,230.511536 522.449219,227.043961 
	C512.800781,219.708374 513.750610,206.909073 524.355530,201.164413 
	C527.335876,199.549973 528.530701,197.456177 528.581665,194.508102 
	C528.699646,187.677811 528.711853,180.841370 528.547913,174.012680 
	C528.482788,171.302322 527.457825,169.255524 524.540771,167.795151 
	C513.178223,162.106674 512.468445,147.333267 523.422424,140.606552 
	C527.367859,138.183670 528.513977,135.207352 528.602783,131.277420 
	C528.734497,125.447472 528.728394,119.610054 528.592590,113.780205 
	C528.521362,110.722084 527.627625,108.406837 524.322937,106.694000 
	C514.052246,101.370689 512.253784,88.448433 521.382263,81.553719 
	C529.600403,75.346565 528.723877,67.351067 528.568420,59.075077 
	C528.539734,57.545807 527.618774,56.787952 526.105835,56.410030 
	C518.265503,54.451527 511.720947,56.867813 506.740753,63.667450 
	C500.343536,72.401817 488.169708,73.515884 482.563110,65.093231 
	C478.320435,58.719608 473.041412,56.909744 466.100250,57.306419 
	C462.943817,57.486805 459.743378,57.605450 456.608032,57.295471 
	C450.671173,56.708511 446.782562,58.857357 443.392151,63.999596 
	C437.219208,73.362122 425.277008,73.762978 419.171661,64.709694 
	C415.260620,58.910194 410.532990,56.958443 404.059082,57.307037 
	C400.403229,57.503899 396.712799,57.554276 393.065186,57.291954 
	C387.700775,56.906162 384.123016,58.813381 381.104218,63.511421 
	C374.319733,74.069946 362.586304,73.947731 355.278534,63.672066 
	C353.928619,61.773952 352.791718,59.269508 350.362274,58.938496 
	C340.862518,57.644142 331.311707,55.632114 321.248108,59.564953 
z"/>
<path fill="#000000" opacity="1.000000" stroke="none" 
	d="
M208.999542,489.335358 
	C199.215988,489.334229 189.932419,489.334229 180.648865,489.334229 
	C180.625900,488.639160 180.602936,487.944061 180.579971,487.248993 
	C190.852310,486.322052 201.212112,486.763672 211.533203,486.692352 
	C221.968674,486.620209 232.405014,486.676453 242.840775,485.882996 
	C213.209000,482.093201 183.337219,484.545837 153.659531,482.598846 
	C153.663818,481.788361 153.668106,480.977905 153.672394,480.167450 
	C178.043304,478.704559 202.505234,480.173615 226.917465,479.006073 
	C211.357651,477.420319 195.577225,478.994751 180.101624,475.694458 
	C194.297745,471.920197 209.034195,475.299500 224.573868,471.875061 
	C211.772644,468.471588 199.891953,472.198822 188.347946,469.404968 
	C197.089828,466.295624 206.377441,468.679871 215.282745,466.899567 
	C204.272552,464.968536 192.851822,467.885071 181.934601,464.267365 
	C192.346756,460.052094 203.546127,463.247986 215.283966,460.419525 
	C207.516006,458.151703 200.524216,458.985840 193.753265,457.516205 
	C199.300323,456.474030 204.998703,456.805328 210.353226,454.697510 
	C188.290131,451.631531 165.857224,455.124756 143.884705,450.666321 
	C164.932663,446.921600 186.125015,451.127594 207.193558,448.951202 
	C189.482346,446.532227 171.477982,448.451904 153.758499,445.489105 
	C171.668777,441.257507 190.028580,444.066223 208.042984,441.229218 
	C199.414291,439.774658 190.699921,439.268097 181.915039,438.563904 
	C190.204041,437.566742 198.559753,437.807648 206.722473,435.721741 
	C186.522156,432.676208 165.994644,435.783386 145.782852,433.070801 
	C145.778198,432.592590 145.773544,432.114410 145.768875,431.636200 
	C156.362503,431.636200 166.957001,431.720886 177.549515,431.612396 
	C188.156540,431.503784 198.812225,432.309662 210.126297,430.170258 
	C206.103699,427.977112 201.910629,429.096741 197.862244,427.096985 
	C202.181610,424.473907 207.039948,426.970154 210.683258,424.060547 
	C207.244095,421.769135 203.211456,422.880890 198.916779,421.620972 
	C202.120529,419.833160 205.016403,420.249969 209.012482,419.499268 
	C194.259857,416.715057 180.389008,421.015137 166.985153,416.798645 
	C182.448547,412.590454 198.645386,416.649902 214.117264,412.646912 
	C183.004242,409.903595 151.820435,414.602478 120.026794,412.337677 
	C121.707474,409.117767 123.874962,409.790619 125.657333,409.658752 
	C148.785217,407.947510 171.956696,409.052277 195.104065,408.594116 
	C202.476974,408.448181 209.842087,407.908691 217.222153,406.628937 
	C212.250626,406.084229 207.279099,405.539490 202.307571,404.994781 
	C202.293503,404.524170 202.279419,404.053558 202.265335,403.582947 
	C208.799118,401.775146 215.969177,403.822510 223.236176,400.800079 
	C218.383820,400.045990 214.321716,399.414673 209.342041,398.640778 
	C212.856750,396.102692 215.969437,397.133911 218.853226,396.649506 
	C217.838257,395.517700 215.743668,396.601929 214.922470,394.070923 
	C221.483444,393.060425 228.224319,394.574371 235.779709,391.758759 
	C223.126480,388.702362 211.198532,391.261078 199.923065,389.494690 
	C199.549789,388.211395 200.045425,388.031586 200.518997,387.909180 
	C216.475204,383.785004 232.775070,384.730835 249.006195,384.589905 
	C252.663437,384.558167 256.318207,384.223358 259.973785,384.021515 
	C263.460724,383.828949 265.173737,385.374146 265.339355,388.962341 
	C265.669037,396.106079 266.922302,403.142944 268.119507,410.182617 
	C268.959198,415.119781 268.058594,416.396667 263.256653,415.800934 
	C259.867920,415.380524 259.851135,419.475220 256.990143,419.305267 
	C259.675781,419.825562 262.403839,419.633850 264.674469,422.461365 
	C259.123718,426.023407 253.065735,423.234009 247.222580,424.769928 
	C252.654083,426.919434 258.472260,424.053711 263.726959,427.344574 
	C257.334290,431.660248 250.348907,426.591339 244.112305,429.262787 
	C244.696442,432.014618 247.543182,431.058929 248.916641,432.518799 
	C246.708481,434.046783 243.707245,433.129669 241.787476,435.755920 
	C248.283844,438.703247 255.267670,433.567291 261.635498,437.145294 
	C260.329132,440.421112 257.147430,438.649109 254.160065,440.521851 
	C258.854736,440.679993 262.657654,440.790253 266.463715,442.526031 
	C263.872162,446.252380 259.794464,444.735535 256.184998,445.820251 
	C258.733551,447.361023 261.794312,445.968353 263.342773,448.674561 
	C260.352753,451.169006 257.028198,449.866425 253.791153,449.615448 
	C250.524139,449.362183 247.235413,449.046417 243.671341,449.878418 
	C246.657990,453.936310 251.046982,451.930206 255.145660,453.292419 
	C252.277390,455.039978 248.904892,453.862000 247.003845,456.437286 
	C249.332718,459.088959 253.115128,456.618530 255.189941,459.002991 
	C255.738739,460.450470 253.467316,460.149567 253.917755,461.452515 
	C255.952438,462.063995 258.271545,461.068146 260.140594,462.498962 
	C260.992523,464.548950 258.075775,463.908264 258.154663,465.372314 
	C259.414185,467.774109 264.636749,468.381348 267.095459,466.361298 
	C269.083893,464.727661 270.311615,462.510864 271.198853,460.170746 
	C276.217804,446.933319 280.727539,433.528656 284.167419,419.782104 
	C284.534241,418.316223 285.192719,416.572906 283.980682,415.500854 
	C280.908356,412.783295 282.824341,411.385162 285.793976,409.678314 
	C283.149750,409.073730 280.619659,409.390564 279.089264,407.000061 
	C281.632294,402.900879 287.016663,406.837646 289.835938,403.174866 
	C287.610626,401.105774 284.514465,403.586761 282.292847,401.516541 
	C282.961884,399.100311 285.189026,399.174072 287.036438,398.439148 
	C286.548492,396.988190 283.779480,397.473328 284.185791,395.087830 
	C285.061401,393.059601 287.364014,393.291016 289.125702,392.521240 
	C288.708405,391.849365 288.307495,391.203918 287.883484,390.521210 
	C289.514618,388.947327 292.268829,389.958832 293.661865,387.644501 
	C289.707672,384.819122 284.819733,387.627319 280.293793,385.445251 
	C284.435394,382.081787 289.160736,384.912445 294.362885,382.379730 
	C285.672699,381.615967 278.066895,383.124176 270.768982,380.950195 
	C277.524658,377.877289 284.664886,378.158478 291.680084,377.236938 
	C288.814880,377.012146 285.941284,376.861908 283.087158,376.539185 
	C280.765656,376.276672 278.674652,375.344421 278.864258,372.588165 
	C279.048828,369.905975 281.412201,369.777954 283.390991,369.748322 
	C287.218567,369.691010 291.049530,369.914307 294.878967,369.910095 
	C298.723297,369.905853 302.110870,368.837830 304.361481,365.394379 
	C306.058197,362.798340 307.883270,362.812714 309.976013,365.053406 
	C313.385773,368.704285 317.737091,369.855713 322.632080,369.910187 
	C329.955444,369.991608 337.275757,370.363647 344.596710,370.630280 
	C346.043640,370.682983 347.594513,370.536560 349.180389,372.766327 
	C339.900513,376.118805 330.571106,373.179413 321.716888,375.040924 
	C329.086853,376.537506 336.726471,375.173431 344.092010,377.410217 
	C336.696045,378.600494 329.170258,378.381622 321.407013,380.031952 
	C324.827606,382.545624 328.900818,380.616913 332.376709,383.006805 
	C328.745178,385.584259 324.310364,382.997803 320.976990,386.187592 
	C325.357300,388.604431 330.173187,386.998871 334.678833,388.787262 
	C332.835297,389.311401 330.991791,389.835510 328.576996,390.522034 
	C331.928741,390.929413 334.881409,390.733002 336.783325,393.819214 
	C332.770355,396.795715 328.316772,393.880981 323.895996,395.059967 
	C326.099060,397.782928 329.738556,395.990814 332.173950,398.043915 
	C330.551392,400.225861 327.280640,398.475311 326.060303,401.028564 
	C326.995483,403.663239 330.009308,401.900208 331.521362,403.447266 
	C331.028931,405.638733 328.261932,404.954285 327.339813,406.834473 
	C329.371552,409.419189 332.869232,407.922363 335.511902,409.350189 
	C333.922363,411.138428 331.198090,409.819397 329.813293,412.769714 
	C335.536499,414.486176 341.192657,414.080841 346.727875,413.156036 
	C348.618744,412.840118 348.447388,410.201447 348.643494,408.380493 
	C349.302216,402.263336 349.974670,396.147400 350.691864,390.036865 
	C351.093536,386.614716 352.616119,384.670685 356.537109,384.821167 
	C368.017120,385.261902 379.507904,385.414642 390.992126,385.758301 
	C393.238861,385.825500 395.605164,385.852722 397.409729,387.584717 
	C396.738403,390.185150 394.401062,389.585724 392.904053,390.463074 
	C393.963531,391.557922 395.953461,390.803101 396.776123,392.586060 
	C396.053223,393.071442 395.314301,393.567596 394.486511,394.123413 
	C396.401001,395.363892 399.035095,393.777802 400.853821,396.606842 
	C397.433441,397.178436 394.304382,397.701385 390.003143,398.420197 
	C398.914825,401.984924 407.378174,399.850861 415.418121,401.455811 
	C409.253357,403.340576 402.611511,402.184082 395.585266,404.838928 
	C402.188293,406.774353 408.127380,406.451355 413.970703,407.244446 
	C409.989471,409.319611 405.260620,407.375519 400.631287,410.387817 
	C408.171356,413.356537 416.089447,410.208893 423.010132,413.867706 
	C416.374451,416.439575 409.279358,414.252716 402.542053,415.854218 
	C415.838348,419.172272 429.699249,416.143066 443.924255,419.091736 
	C439.362610,422.916931 434.490021,421.511230 428.904785,422.785919 
	C435.185486,422.988312 440.129181,423.042725 444.898071,425.142517 
	C432.186371,427.235291 419.281006,425.494232 406.500275,427.146088 
	C417.446136,430.186615 428.966644,427.499573 439.937836,430.944092 
	C429.030548,433.815674 417.696930,430.560028 406.734894,433.126251 
	C419.217407,436.501984 432.468292,432.467804 444.861176,436.911102 
	C438.770020,439.757141 432.316772,439.005219 425.991638,439.338837 
	C419.814362,439.664612 413.484680,438.384918 406.905670,440.945312 
	C411.799316,443.003601 416.498077,442.483368 421.067535,443.889069 
	C416.311676,444.604828 411.555847,445.320587 406.800018,446.036316 
	C415.357635,448.701904 424.126862,448.353180 432.763611,449.480347 
	C423.466492,451.036560 413.942169,449.587524 404.259277,451.900848 
	C409.087494,454.968567 414.661407,452.514191 419.965363,455.256866 
	C413.315643,457.703491 406.202332,454.441742 400.770538,459.581024 
	C417.692383,463.408325 435.092102,460.135040 452.094177,462.261261 
	C452.098938,462.887024 452.103699,463.512817 452.108429,464.138580 
	C434.426025,464.138580 416.743591,464.138580 399.061157,464.138580 
	C399.061737,464.640015 399.062317,465.141479 399.062897,465.642914 
	C407.681763,466.901703 416.504883,466.391754 425.089417,468.617859 
	C415.384125,469.897888 405.433655,468.449432 395.856720,471.523254 
	C407.082977,473.998474 418.883514,471.027863 429.996552,475.241669 
	C415.130157,478.943329 399.730591,475.695160 383.524567,479.295258 
	C411.737946,481.932587 438.812683,479.230499 465.718109,482.000305 
	C435.656677,484.178223 405.502197,482.321747 375.418854,484.663300 
	C385.686493,485.715607 395.916382,486.978577 406.282806,487.495544 
	C390.255280,488.592407 374.179535,487.914124 358.264130,490.421356 
	C378.535706,493.028503 399.075195,490.192169 419.319458,493.651794 
	C399.470184,494.657196 379.573822,493.790375 359.763092,495.973785 
	C371.571686,498.080872 383.521606,497.579224 395.445618,497.694092 
	C407.557434,497.810791 419.719849,496.882599 431.793488,499.757233 
	C414.980072,503.697235 397.695068,501.425964 380.695862,503.796814 
	C384.896637,503.796814 389.097412,503.796814 393.298187,503.796814 
	C393.324951,504.308655 393.351685,504.820496 393.378418,505.332336 
	C387.271790,506.691254 380.822784,505.532776 374.646698,507.096069 
	C382.273163,510.222778 390.790131,507.392761 398.416748,510.769684 
	C390.499481,511.333649 382.614441,511.757874 374.749451,513.268982 
	C390.704865,515.751587 407.016022,514.165405 422.940552,517.109497 
	C418.521362,519.106812 413.925690,519.218628 409.366333,519.224121 
	C388.378174,519.249207 367.386139,519.905640 346.406006,518.450012 
	C341.843842,518.133484 338.938995,516.321838 336.875214,512.460632 
	C333.856293,506.812408 332.491241,500.613861 330.750427,494.543854 
	C330.062225,492.144073 329.319214,490.021454 326.294891,490.098907 
	C313.851196,490.417419 301.363434,488.112061 288.521667,490.890869 
	C291.828949,493.027130 296.159882,491.357574 299.383759,494.586060 
	C295.358612,497.691864 290.439209,495.891541 285.974030,498.184235 
	C294.010956,499.554871 301.813049,496.478821 309.193329,500.055511 
	C301.643982,504.671509 292.496490,500.109131 284.829468,504.187561 
	C285.660278,506.495300 288.571167,504.808075 289.676392,506.704071 
	C287.655731,508.977844 284.058777,507.507111 281.988495,510.021881 
	C288.869446,512.410889 296.061523,507.450806 302.818207,510.756714 
	C302.297485,513.212158 300.654663,513.165527 299.214233,513.310608 
	C289.842743,514.254639 280.541840,514.680054 271.425598,518.162109 
	C264.017029,520.991821 255.610245,519.458313 247.646072,519.849060 
	C244.682602,519.994507 243.412888,518.471069 243.669540,515.531494 
	C243.883926,513.075867 243.993576,510.611176 244.181961,507.640045 
	C234.263062,507.087341 224.541718,506.545624 214.820389,506.003937 
	C226.665390,502.796753 238.883102,504.534454 250.807434,502.784912 
	C232.726959,501.378052 214.533875,503.764130 196.499557,500.506195 
	C216.189362,496.580170 236.224335,498.738281 256.015900,496.498901 
	C241.919968,494.376984 227.681244,494.677643 213.513901,493.562042 
	C228.045044,492.031494 242.691452,493.724762 257.144592,490.842499 
	C241.344818,488.350250 225.384705,489.768921 208.999542,489.335358 
M231.828690,470.670837 
	C235.667694,473.907837 239.874725,476.529236 244.410828,478.714630 
	C250.323685,481.563293 256.647400,482.963257 262.966370,484.378632 
	C266.454895,485.160034 267.873566,486.719330 266.486298,490.340881 
	C265.237823,493.600006 264.178589,496.940247 263.202850,500.293304 
	C261.431519,506.380310 258.891754,511.547028 251.388000,511.720886 
	C250.645538,511.738068 249.889038,512.435364 249.976822,513.921326 
	C254.475296,515.552734 259.243469,514.707581 263.965240,514.761963 
	C270.750488,514.840149 275.026306,511.707001 276.926147,505.311768 
	C278.490143,500.046997 280.082703,494.775940 281.280182,489.422150 
	C282.079834,485.846985 283.797760,484.550201 287.473419,484.596832 
	C301.134796,484.770203 314.801453,484.791901 328.462067,484.592468 
	C332.403015,484.534973 334.156891,486.068726 334.976166,489.747040 
	C335.841614,493.632629 337.089020,497.443390 338.337646,501.231445 
	C342.218414,513.004944 353.011749,518.317017 364.845306,514.327393 
	C365.950043,513.954956 367.060822,513.461243 367.051422,511.989166 
	C366.670105,510.845703 365.783630,510.375977 364.718933,510.548615 
	C360.738190,511.194214 358.473846,508.586975 356.441620,505.976837 
	C352.474274,500.881226 350.507202,494.854065 349.100159,488.633453 
	C348.534515,486.132782 349.569763,484.933380 352.133728,484.651031 
	C358.145050,483.989044 363.695526,481.690002 369.318115,479.630646 
	C381.308899,475.238892 390.309326,467.505402 395.619385,455.841217 
	C407.451385,429.850891 393.274506,399.853180 365.488770,391.842499 
	C354.596344,388.702179 354.390289,388.854614 354.346344,400.085358 
	C354.313660,408.434692 354.294678,408.481323 362.095184,411.656097 
	C366.629883,413.501648 370.970612,415.662842 373.888031,419.727936 
	C381.265839,430.008057 382.765900,441.188812 377.715027,452.797089 
	C372.431610,464.939789 362.342926,470.609283 349.599121,472.366943 
	C345.186188,472.975586 343.178375,471.352203 341.740845,467.091095 
	C331.956604,438.089172 321.903961,409.177612 311.888306,380.254150 
	C311.058502,377.857910 310.809814,375.004333 308.196808,373.688416 
	C306.047150,374.389557 305.773407,376.111511 305.221008,377.656403 
	C301.914001,386.904785 298.439941,396.096771 295.309143,405.404266 
	C288.195740,426.551636 281.131714,447.717560 274.335205,468.967926 
	C273.005798,473.124512 271.008942,474.146729 267.061371,473.228790 
	C262.183472,472.094421 257.322968,470.975098 252.876236,468.583435 
	C240.673355,462.020264 235.697540,451.162292 235.964798,437.975708 
	C236.222565,425.257904 243.114182,416.446259 254.632553,411.335266 
	C262.389557,407.893219 262.907471,407.125427 261.278259,398.610870 
	C259.579102,389.730743 259.577209,389.723999 250.888168,392.157318 
	C233.778488,396.948730 222.345856,407.690155 217.840195,424.956299 
	C213.242737,442.574249 217.666275,457.846130 231.828690,470.670837 
M350.751587,454.234985 
	C348.554718,454.417267 346.158203,453.540375 343.873749,455.450348 
	C346.013184,457.741150 348.392487,456.587952 350.526031,456.595520 
	C352.841370,456.603760 355.540253,455.362244 356.803680,458.648071 
	C354.820374,461.278290 352.071442,459.955505 349.744751,460.397552 
	C348.122040,460.705902 346.164825,460.755219 346.063202,462.965729 
	C345.970551,464.981689 347.651154,465.867645 349.265533,466.295624 
	C351.883484,466.989624 354.498962,466.816071 357.068848,465.716858 
	C367.138855,461.409424 372.880829,453.548187 374.515289,443.036896 
	C376.657288,429.261658 370.670898,418.269470 359.272400,415.898102 
	C350.477631,414.068390 341.462524,415.681305 332.691437,417.685455 
	C332.525513,417.723358 332.468201,418.236816 332.269653,418.772827 
	C337.604614,421.468597 344.383636,417.697266 349.932800,422.177246 
	C345.023956,425.947144 339.308685,422.876801 334.353760,425.842133 
	C341.820099,427.971466 349.323090,426.524872 356.138794,429.171082 
	C349.822174,432.213654 342.844452,428.540100 335.434265,431.679077 
	C341.458527,435.843414 348.377655,431.201111 353.806702,435.606567 
	C349.040802,439.118652 343.353729,435.580688 339.154907,439.230164 
	C343.011353,440.352875 347.223053,436.613098 350.594299,440.726135 
	C348.369965,444.245178 344.458923,442.630646 340.688721,444.190704 
	C346.259918,445.736511 351.402771,443.260803 355.834351,445.834229 
	C355.236237,448.913696 352.368958,448.066772 351.043274,449.557617 
	C355.496002,449.947144 360.027405,449.451233 364.357117,452.916168 
	C359.849091,455.307159 355.669586,454.054108 350.751587,454.234985 
z"/>
<path fill="#000000" opacity="1.000000" stroke="none" 
	d="
M289.170715,244.289612 
	C289.602448,242.436386 289.857941,240.962051 290.209595,239.511002 
	C292.611420,229.600388 296.003204,227.558990 305.934021,229.995041 
	C307.443573,230.365356 308.748352,230.893921 309.297882,232.571167 
	C313.898041,246.611465 318.528534,260.641846 323.124023,274.683655 
	C323.209137,274.943695 322.976990,275.307556 322.888306,275.621277 
	C308.566711,279.704529 303.965820,271.064636 302.597992,258.139404 
	C298.463409,261.782440 298.430817,265.666443 297.604126,268.942230 
	C296.611328,272.876282 294.255920,274.696075 290.755249,275.095917 
	C286.637268,275.566254 282.452118,275.459808 278.295258,275.573578 
	C275.578735,275.647949 275.843353,273.379242 275.343536,271.727386 
	C274.089508,267.582581 274.683441,262.827942 271.326263,259.013733 
	C268.644562,261.783752 268.488953,265.258301 267.465851,268.316254 
	C265.469604,274.283020 256.658142,278.001953 251.216507,275.010345 
	C249.174362,273.887604 249.905914,272.226715 250.390488,270.652466 
	C254.303024,257.941833 257.784332,245.072647 262.343719,232.597748 
	C264.670044,226.232712 271.467743,230.905151 275.999939,229.250443 
	C278.507538,228.334915 280.089874,230.423065 280.475800,233.250107 
	C280.900330,236.360107 281.644867,239.442169 282.465057,242.478287 
	C283.408295,245.969727 283.682343,249.688644 285.864807,253.232651 
	C288.699310,250.851532 288.184814,247.489807 289.170715,244.289612 
z"/>
<path fill="#000000" opacity="1.000000" stroke="none" 
	d="
M273.897552,346.297516 
	C262.523804,345.583893 253.732101,341.338745 249.580750,330.600708 
	C245.623245,320.364075 248.030624,310.871094 255.970154,303.760223 
	C264.646637,295.989319 275.282837,296.667603 285.591583,300.261658 
	C295.489990,303.712738 299.552643,311.823700 300.152679,322.080414 
	C300.737885,332.084290 291.837860,342.297913 281.207245,345.089233 
	C278.969208,345.676880 276.633911,345.894226 273.897552,346.297516 
M266.772522,326.682404 
	C271.136292,332.460785 280.387695,330.964172 281.707947,324.373779 
	C282.387329,320.982727 282.041870,317.619354 278.649628,315.624664 
	C275.394409,313.710571 271.814819,313.503082 268.827667,315.862579 
	C265.557068,318.445984 264.473358,322.001953 266.772522,326.682404 
z"/>
<path fill="#000000" opacity="1.000000" stroke="none" 
	d="
M206.115082,276.397827 
	C201.456268,274.737183 197.433456,272.750885 194.365906,269.313568 
	C188.377167,262.602936 186.185577,254.974823 189.246918,246.254669 
	C192.265305,237.656815 197.659012,231.960846 207.145493,230.237320 
	C222.448700,227.456985 235.238144,234.684708 238.397430,248.482483 
	C241.649887,262.687195 231.097565,276.577423 216.392166,277.284912 
	C213.101379,277.443268 209.726746,277.777039 206.115082,276.397827 
M211.391525,245.820648 
	C205.321060,249.585068 204.205154,257.094910 209.314880,260.312775 
	C212.193130,262.125366 215.307297,262.444275 218.094315,260.150970 
	C220.992477,257.766174 222.402359,254.712265 220.963913,250.925217 
	C219.418564,246.856735 216.527496,244.899796 211.391525,245.820648 
z"/>
<path fill="#000000" opacity="1.000000" stroke="none" 
	d="
M315.662231,329.997253 
	C315.661499,320.520020 315.752716,311.540588 315.614197,302.564728 
	C315.562592,299.219666 316.700775,297.737732 320.178345,297.720520 
	C327.828003,297.682709 335.468750,297.527069 343.035980,298.940765 
	C356.258881,301.411072 362.325134,308.371399 362.189026,320.926758 
	C362.048889,333.853546 355.433411,342.018494 342.813812,344.042480 
	C335.620941,345.196075 328.294647,345.498291 321.042603,346.310272 
	C316.886047,346.775635 315.320465,345.084991 315.615814,340.967072 
	C315.864929,337.493622 315.664459,333.987885 315.662231,329.997253 
M338.561493,331.296661 
	C344.122498,328.206207 346.471466,324.617340 345.573608,319.999054 
	C344.756195,315.794617 341.716431,313.543213 337.816345,312.458130 
	C334.531830,311.544281 332.336731,312.565369 331.810059,316.298218 
	C331.296143,319.940308 331.241791,323.536407 331.742798,327.190765 
	C332.256470,330.937775 334.066925,332.509918 338.561493,331.296661 
z"/>
<path fill="#000000" opacity="1.000000" stroke="none" 
	d="
M379.470398,298.463135 
	C391.940582,297.135071 404.084473,297.873169 416.218750,297.733337 
	C418.253510,297.709900 419.041443,298.756958 419.326965,300.775330 
	C420.676422,310.315186 419.801483,311.348175 410.296478,311.419556 
	C405.982086,311.451935 401.623016,310.866364 397.363617,311.862488 
	C395.897003,312.205536 393.484070,312.022369 393.655304,314.342255 
	C393.830933,316.721191 396.130432,316.754089 397.927887,316.775482 
	C402.753082,316.832886 407.580566,316.682922 412.406281,316.720978 
	C416.253998,316.751312 417.718414,318.885345 417.267212,322.579498 
	C416.947845,325.194336 415.326599,326.062042 412.893524,326.476135 
	C407.763580,327.349091 402.594849,326.988617 397.452118,327.309692 
	C395.773621,327.414520 393.635590,327.367279 393.606934,329.517059 
	C393.576752,331.782684 395.777557,331.606781 397.417145,331.649506 
	C403.077271,331.796936 408.734283,331.710510 414.356781,330.976471 
	C417.997284,330.501160 419.459595,331.893433 419.394226,335.662079 
	C419.189850,347.447327 420.398712,345.979492 409.446930,346.102386 
	C400.791992,346.199524 392.135437,346.164276 383.479614,346.168823 
	C381.066284,346.170074 378.646057,346.177612 378.697357,342.689728 
	C378.912628,328.060211 378.086029,313.420563 379.470398,298.463135 
z"/>
<path fill="#000000" opacity="1.000000" stroke="none" 
	d="
M317.154083,134.344345 
	C305.111603,133.466324 296.574463,124.350876 296.661926,112.949318 
	C296.752411,101.152351 305.317596,92.806206 318.092957,91.802139 
	C328.484955,90.985382 335.985840,95.718102 340.522034,104.461304 
	C344.313385,111.768944 343.309570,119.506256 338.019684,125.993370 
	C332.845795,132.338287 325.734924,134.787247 317.154083,134.344345 
M314.228943,108.749657 
	C311.923218,111.498642 311.420258,114.407089 313.807526,117.313141 
	C316.229095,120.260963 319.596741,120.665665 322.877380,119.495430 
	C326.275391,118.283333 325.690521,114.959236 325.616913,112.199463 
	C325.459534,106.297531 321.701019,104.952522 314.228943,108.749657 
z"/>
<path fill="#000000" opacity="1.000000" stroke="none" 
	d="
M318.897339,586.326294 
	C308.964569,586.187378 298.273529,579.281677 296.046021,571.871521 
	C292.939362,561.536804 299.791199,548.159302 309.975952,544.674805 
	C321.851807,540.611572 335.038940,546.151184 339.372925,556.627991 
	C344.677277,569.450684 338.234711,585.825806 318.897339,586.326294 
M325.599548,565.513672 
	C325.291138,564.402649 325.137695,563.216980 324.645508,562.194397 
	C323.093750,558.970215 320.501404,557.311646 316.951599,558.347717 
	C313.168610,559.451904 311.186340,562.283752 311.437439,566.231079 
	C311.683563,570.099915 314.138397,572.264099 317.888336,572.570801 
	C322.328308,572.933777 324.362091,569.997314 325.599548,565.513672 
z"/>
<path fill="#000000" opacity="1.000000" stroke="none" 
	d="
M436.760834,273.525085 
	C435.201477,272.580200 433.495361,272.597198 432.489807,270.837585 
	C433.976562,267.844452 436.177917,265.260773 438.863434,263.057587 
	C441.065125,261.251312 443.283020,260.513306 446.169464,261.930481 
	C448.846924,263.245087 451.830261,263.373962 455.233459,262.260468 
	C453.210358,259.165009 450.312622,258.337982 447.628418,257.324402 
	C437.561890,253.523193 434.252563,248.763428 435.762085,240.016357 
	C437.018127,232.738068 445.455597,226.706924 454.245148,227.071671 
	C459.444061,227.287415 464.353821,228.782242 468.990112,231.238678 
	C472.555481,233.127716 472.573364,235.292542 469.781281,237.773743 
	C465.862701,241.256088 461.525208,243.306671 456.104218,241.509033 
	C455.234650,241.220673 454.187195,241.468567 452.999603,241.468567 
	C452.961517,244.200974 454.934906,244.691208 456.423248,245.439240 
	C458.645386,246.556030 460.953552,247.510498 463.259155,248.450623 
	C468.708527,250.672668 472.233154,254.601288 471.926544,260.550659 
	C471.578918,267.296143 468.213684,272.478058 461.724060,275.275391 
	C453.228790,278.937195 445.140808,276.834473 436.760834,273.525085 
z"/>
<path fill="#000000" opacity="1.000000" stroke="none" 
	d="
M165.456940,244.077637 
	C163.581116,244.104919 162.064346,244.188736 160.618790,243.907150 
	C156.371872,243.079834 153.021851,244.486588 150.748062,248.019241 
	C148.317719,251.795120 148.939026,255.712097 151.243057,259.313751 
	C153.513031,262.862152 157.222137,261.933655 160.352631,261.374756 
	C165.632614,260.432129 169.404694,262.550842 172.708954,266.208282 
	C175.380539,269.165436 175.343307,272.253326 171.826111,274.131927 
	C162.533676,279.095123 152.730682,279.070160 143.605118,274.259369 
	C133.621094,268.996002 130.271042,259.642181 131.803772,248.843643 
	C133.182541,239.129715 139.044662,232.819031 148.337021,229.394104 
	C155.952316,226.587280 163.064758,227.783508 170.124908,230.934677 
	C176.235184,233.661896 176.612091,236.417526 171.365417,240.624649 
	C169.702377,241.958191 167.697174,242.865082 165.456940,244.077637 
z"/>
<path fill="#000000" opacity="1.000000" stroke="none" 
	d="
M192.497223,310.783142 
	C198.083618,297.332825 215.129440,293.059998 228.574326,300.137329 
	C231.541885,301.699524 232.024994,304.019104 230.575027,306.820923 
	C229.347290,309.193237 227.785858,311.338623 225.791428,313.170929 
	C223.195389,315.555969 221.223618,312.996002 218.958755,312.487335 
	C214.998703,311.598022 211.704666,312.874786 209.296555,316.143219 
	C206.638596,319.750793 206.676407,323.554108 208.805450,327.391449 
	C210.597260,330.621033 213.420761,331.300110 216.897995,330.872314 
	C219.803848,330.514801 222.306137,327.886353 225.502731,329.350464 
	C227.001724,330.037018 231.952927,336.127899 233.915817,339.629730 
	C226.466400,347.173767 209.661896,348.591614 199.950150,342.495544 
	C190.909653,336.820740 187.856979,324.244507 192.497223,310.783142 
z"/>
<path fill="#000000" opacity="1.000000" stroke="none" 
	d="
M403.174927,260.022491 
	C407.819733,259.975708 413.802582,264.872437 414.247040,268.663727 
	C414.567566,271.397888 412.977295,273.275238 410.838074,274.278412 
	C398.487915,280.070038 377.260834,277.458069 373.350861,259.249695 
	C371.181030,249.145004 372.629120,239.669601 381.068726,232.973572 
	C390.154572,225.764771 400.528168,226.267365 410.887299,230.325928 
	C412.968658,231.141357 414.992706,232.705872 414.459442,235.166275 
	C413.637939,238.956497 410.865448,241.536636 407.422516,243.068573 
	C405.662628,243.851624 403.581085,244.053787 401.534851,243.582916 
	C399.354462,243.081161 397.238251,243.540604 395.187531,244.369553 
	C390.953156,246.081192 388.732635,249.222610 389.415497,253.745590 
	C390.112732,258.363922 393.587402,260.367615 397.877625,260.856750 
	C399.461761,261.037384 401.138062,260.409760 403.174927,260.022491 
z"/>
<path fill="#000000" opacity="1.000000" stroke="none" 
	d="
M462.057800,95.746132 
	C469.929413,99.818329 470.362000,106.965096 470.164612,114.009087 
	C469.946533,121.791832 466.050598,127.673439 458.826080,130.863464 
	C450.542847,134.520966 441.708160,134.619797 432.850433,134.298233 
	C430.470306,134.211823 429.704346,132.871918 429.705444,130.724777 
	C429.711609,118.894829 429.710205,107.064850 429.682648,95.234947 
	C429.677643,93.092514 430.330811,91.744591 432.778534,91.702225 
	C442.627991,91.531731 452.476898,91.289085 462.057800,95.746132 
M453.504486,117.890297 
	C453.905243,117.364120 454.397125,116.884193 454.691742,116.304108 
	C456.369629,113.000145 456.102905,109.887627 453.468445,107.192780 
	C451.420654,105.098007 448.847992,103.277275 445.972046,104.635849 
	C442.727570,106.168526 443.539703,109.698616 443.376526,112.607254 
	C443.357971,112.937462 443.363251,113.269699 443.371674,113.600632 
	C443.443604,116.428146 443.269989,119.778099 446.024628,121.141449 
	C448.661804,122.446655 450.930206,120.086632 453.504486,117.890297 
z"/>
<path fill="#000000" opacity="1.000000" stroke="none" 
	d="
M289.029816,98.210541 
	C292.204346,103.750420 291.649445,108.919395 288.161102,113.468010 
	C285.525330,116.904915 285.969330,119.666725 288.124817,122.960464 
	C290.256775,126.218246 293.034058,129.210648 293.821442,133.503220 
	C282.976959,136.305237 274.723694,134.731552 272.188263,121.423271 
	C270.405640,124.050331 270.465973,125.721207 270.364471,127.353394 
	C269.984161,133.471329 263.066864,137.074020 257.664215,133.981583 
	C256.082092,133.076004 256.101044,131.513336 256.097229,130.042892 
	C256.068665,119.056061 256.056702,108.068924 256.121185,97.082359 
	C256.133972,94.903259 256.311005,92.439491 259.281647,92.279930 
	C267.763947,91.824333 276.263489,91.468102 284.387878,94.723808 
	C286.102600,95.410950 287.611237,96.446426 289.029816,98.210541 
M271.479797,108.306908 
	C273.438538,109.015038 275.668243,109.623062 276.262787,106.907661 
	C276.674408,105.027573 275.248840,103.007889 273.267578,103.142815 
	C270.542267,103.328400 269.976837,105.399658 271.479797,108.306908 
z"/>
<path fill="#000000" opacity="1.000000" stroke="none" 
	d="
M289.554932,585.555054 
	C288.241089,586.049561 287.265289,586.299011 286.281830,586.334229 
	C276.525696,586.683228 276.538147,586.673401 276.690582,577.120483 
	C276.721527,575.180786 277.389862,572.727112 275.068787,571.818726 
	C272.429352,570.785828 269.416718,570.537720 266.878387,572.094910 
	C264.764923,573.391541 265.757568,575.551025 266.103516,577.537231 
	C266.556091,580.135803 266.614838,582.802917 266.861969,585.659668 
	C262.713104,586.983398 258.566010,586.188599 254.482513,586.265320 
	C252.292633,586.306519 251.704636,584.846558 251.702271,582.965881 
	C251.687271,570.986267 251.686462,559.006531 251.644440,547.027039 
	C251.636414,544.738525 252.659409,543.672058 254.946411,543.717957 
	C256.941833,543.757996 258.939758,543.677246 260.934906,543.723145 
	C263.754333,543.788025 265.192688,545.314392 265.297882,548.096985 
	C265.373230,550.091797 265.335449,552.091553 265.438385,554.084473 
	C265.625946,557.715210 267.785950,558.697327 271.149414,558.723633 
	C274.584320,558.750488 276.095062,557.367493 275.975464,554.016113 
	C275.951721,553.351685 275.969788,552.684631 275.994873,552.019775 
	C276.290100,544.198303 280.678467,541.311279 288.282928,543.809753 
	C289.906250,544.343140 290.295380,545.429749 290.280060,546.824097 
	C290.139465,559.619507 290.880035,572.424133 289.554932,585.555054 
z"/>
<path fill="#000000" opacity="1.000000" stroke="none" 
	d="
M127.907707,121.056503 
	C131.178009,112.633690 134.390244,104.601784 137.382782,96.488846 
	C138.394455,93.746117 139.928452,92.680824 142.883484,92.592392 
	C155.084076,92.227249 155.085770,92.135971 159.465485,103.584862 
	C162.787262,112.268135 165.997452,120.995964 169.461334,129.622040 
	C170.761398,132.859558 169.809540,134.252670 166.594894,134.776169 
	C161.819733,135.553772 157.510269,135.575455 154.076813,131.103241 
	C150.937607,127.014313 143.316330,127.093430 139.875961,130.992752 
	C138.404175,132.660889 137.041153,134.083832 134.751572,134.636612 
	C131.243774,135.483536 127.296120,136.307129 124.731003,133.820862 
	C122.199440,131.367126 125.627388,128.392960 126.150810,125.595352 
	C126.420845,124.152069 127.209427,122.805809 127.907707,121.056503 
M148.712830,115.291969 
	C149.988968,113.098335 149.472900,111.351608 147.300629,109.648987 
	C145.354568,111.386322 144.221695,113.390076 145.049728,115.695145 
	C145.603912,117.237900 147.160706,116.791855 148.712830,115.291969 
z"/>
<path fill="#000000" opacity="1.000000" stroke="none" 
	d="
M157.452606,557.678955 
	C160.715546,565.888977 163.698975,573.796387 166.960022,581.587646 
	C168.364914,584.944153 167.397568,586.337769 164.004562,586.328674 
	C159.278015,586.315979 154.519501,587.174133 150.610031,582.856750 
	C148.055008,580.035217 140.358017,580.524170 137.650848,583.246765 
	C132.809891,588.115356 127.071465,586.385925 120.963455,586.514099 
	C121.988029,581.119324 124.232887,576.875793 125.953362,572.460327 
	C128.908585,564.876099 131.827988,557.276794 134.891327,549.736206 
	C136.974808,544.607605 147.103851,541.312866 151.576141,544.217285 
	C152.747360,544.977844 153.081543,546.319336 153.540756,547.583496 
	C154.728775,550.853943 156.029755,554.083435 157.452606,557.678955 
M142.398911,564.422913 
	C142.339951,565.244080 142.229843,566.065491 142.233932,566.886353 
	C142.240158,568.135803 142.646164,569.193909 144.046646,569.434631 
	C145.189575,569.631042 146.097580,569.000305 146.331619,567.998718 
	C146.810059,565.951111 146.132492,563.972290 144.700104,562.592468 
	C143.690842,561.620300 143.084579,563.016541 142.398911,564.422913 
z"/>
<path fill="#000000" opacity="1.000000" stroke="none" 
	d="
M183.223724,586.384644 
	C173.031113,585.597717 170.286438,583.180664 169.828964,573.590820 
	C169.416656,564.948059 169.728287,556.272217 169.633392,547.611877 
	C169.604095,544.937561 170.563339,543.526794 173.398529,543.693481 
	C176.517883,543.876953 179.689270,543.232117 183.406265,544.368958 
	C183.406265,552.389648 183.599365,560.505493 183.327591,568.605774 
	C183.184372,572.874329 184.564880,574.597046 188.950058,574.672729 
	C193.547684,574.752075 194.748657,572.534241 194.609863,568.531189 
	C194.390793,562.213318 195.075775,555.873169 194.196060,549.570312 
	C193.620148,545.444214 194.882538,543.490479 199.536682,543.579834 
	C208.317017,543.748535 208.473740,543.516541 208.295563,552.069824 
	C208.101822,561.370483 209.135498,570.701965 207.439377,579.977417 
	C206.847626,583.213440 205.413925,584.803223 202.106476,585.518372 
	C195.977646,586.843750 189.828262,586.139954 183.223724,586.384644 
z"/>
<path fill="#000000" opacity="1.000000" stroke="none" 
	d="
M346.730042,547.172607 
	C347.043182,545.304138 348.005829,544.762451 349.287262,544.732849 
	C357.105591,544.552063 364.944427,544.278931 372.650940,545.936462 
	C375.772064,546.607788 377.978302,548.565796 378.783875,551.837158 
	C380.057587,557.009521 380.342102,562.155884 377.053253,566.680054 
	C374.783936,569.801758 375.101685,572.412781 377.341187,575.251892 
	C378.677551,576.946045 379.907227,578.754761 380.955170,580.639709 
	C383.130585,584.552612 382.277527,585.866516 377.681793,586.229614 
	C371.468231,586.720459 366.581482,585.149475 364.038849,578.731262 
	C363.259644,576.764404 362.572327,574.280334 359.908051,573.296814 
	C358.555023,576.211792 359.803192,578.911194 360.162994,581.620056 
	C360.571320,584.693726 359.561493,586.118713 356.157898,586.271118 
	C345.805206,586.734619 345.684387,586.849365 345.827759,576.593384 
	C345.962646,566.943970 346.379364,557.298523 346.730042,547.172607 
M360.430298,556.461304 
	C359.071075,557.824158 358.753601,559.346375 360.057983,560.859314 
	C360.954712,561.899414 362.152893,561.721619 363.214233,561.016846 
	C364.381012,560.242126 365.364929,559.070068 365.007599,557.716003 
	C364.465515,555.661621 362.728210,555.655884 360.430298,556.461304 
z"/>
<path fill="#000000" opacity="1.000000" stroke="none" 
	d="
M364.243835,112.093124 
	C366.656708,115.309311 366.884186,112.407715 367.207611,111.212440 
	C368.463928,106.569695 369.716858,101.906876 370.559998,97.178238 
	C371.120819,94.033096 372.332367,92.273430 375.717651,92.632217 
	C376.044922,92.666901 376.382294,92.622147 376.713837,92.598633 
	C388.733337,91.746399 388.743347,91.749725 384.603058,103.332741 
	C381.583405,111.780647 378.340668,120.155624 375.591797,128.690155 
	C374.507904,132.055298 372.783264,133.723663 369.365479,133.859772 
	C368.542542,133.892548 367.730621,134.146637 366.906616,134.218369 
	C357.795288,135.011566 357.779572,135.012482 354.891388,126.478455 
	C351.276855,115.798164 348.067719,104.968086 343.053558,94.808731 
	C342.784912,94.264412 342.863861,93.548531 342.696442,92.264053 
	C347.735779,91.454964 352.630127,91.609337 357.481079,92.133514 
	C359.645538,92.367393 359.878693,94.571838 360.312256,96.362198 
	C361.559113,101.510857 362.853455,106.648033 364.243835,112.093124 
z"/>
<path fill="#000000" opacity="1.000000" stroke="none" 
	d="
M200.164886,119.473297 
	C199.633026,119.630928 199.483429,119.711311 199.323776,119.754013 
	C190.822830,122.026993 190.732880,122.022552 190.327240,130.925629 
	C190.184174,134.065460 189.344162,135.421753 185.839050,134.933121 
	C176.494278,133.630447 176.257599,133.777786 175.474594,124.255112 
	C174.725128,115.140549 174.558533,105.979416 174.003204,96.846802 
	C173.806885,93.618340 175.221146,92.110207 178.283646,92.175751 
	C184.435425,92.307434 190.603958,92.338074 196.729492,92.845779 
	C204.793930,93.514183 208.867203,97.306450 210.084717,104.582359 
	C211.027145,110.214424 206.977615,116.493576 200.164886,119.473297 
M193.574936,104.745117 
	C192.044769,103.803268 190.439026,102.429070 188.786148,104.270241 
	C188.014130,105.130219 188.158295,106.540215 188.776550,107.557129 
	C189.604492,108.918968 190.932480,109.731064 192.543640,109.117760 
	C194.338303,108.434601 195.164291,107.155708 193.574936,104.745117 
z"/>
<path fill="#000000" opacity="1.000000" stroke="none" 
	d="
M250.733337,109.424179 
	C248.905472,116.006737 244.321457,119.023766 238.458298,120.252457 
	C231.995056,121.606911 229.655716,122.415298 230.165115,129.428894 
	C230.499603,134.034119 228.095642,135.031998 221.137833,134.994949 
	C217.188690,134.973923 215.941330,133.245102 215.990173,129.501511 
	C216.129181,118.847900 216.125687,108.190201 215.994843,97.536369 
	C215.942535,93.278206 217.443237,91.440269 221.911835,91.983414 
	C227.351974,92.644661 232.885742,92.597733 238.300339,93.392776 
	C246.812378,94.642624 251.034012,100.160988 250.733337,109.424179 
M232.034561,108.604416 
	C233.893967,109.009720 236.288437,109.196938 236.294754,106.866249 
	C236.302856,103.882179 233.657776,103.244789 231.074265,103.100769 
	C230.021988,105.065773 229.980820,106.715233 232.034561,108.604416 
z"/>
<path fill="#000000" opacity="1.000000" stroke="none" 
	d="
M447.560364,543.571228 
	C451.640167,543.947327 455.865479,542.268921 458.599518,546.129578 
	C460.668915,549.051697 462.473969,552.161011 465.111481,556.312073 
	C470.078369,545.070862 477.596985,540.645813 489.395172,544.600281 
	C486.571411,551.086731 482.230316,556.095032 478.482819,561.453674 
	C473.720245,568.263855 468.647583,574.865112 464.088043,581.805725 
	C461.983643,585.009033 459.555603,586.304749 455.852661,586.088684 
	C452.273590,585.879822 448.672729,586.043396 444.224701,586.043396 
	C446.422150,580.561279 449.697144,576.816895 452.628357,572.971008 
	C454.851166,570.054688 455.244995,567.792847 453.254761,564.537292 
	C449.292053,558.055115 445.789764,551.291443 442.140411,544.721741 
	C443.823944,542.882812 445.592041,543.815247 447.560364,543.571228 
z"/>
<path fill="#000000" opacity="1.000000" stroke="none" 
	d="
M393.638519,119.993370 
	C393.643799,111.663940 393.740448,103.831329 393.610291,96.002495 
	C393.556732,92.779526 394.780090,91.558693 398.001282,91.633423 
	C404.495880,91.784081 410.998047,91.760437 417.493896,91.638771 
	C420.601685,91.580566 422.295288,92.690613 422.086151,95.942139 
	C421.882935,99.100845 423.018982,103.049072 417.984924,103.593445 
	C414.405518,103.980530 410.813965,104.255943 406.126740,104.681053 
	C409.143433,107.468300 411.842682,106.692162 414.254547,106.810768 
	C417.763947,106.983337 420.415497,107.664230 420.408569,112.133034 
	C420.401672,116.582527 417.875824,117.301468 414.277435,117.384178 
	C411.454620,117.449066 408.260681,116.397980 406.015472,119.103676 
	C406.429138,121.897339 408.505524,121.791611 410.235535,121.977379 
	C412.383423,122.208031 414.569000,122.082863 416.718750,122.302498 
	C421.725281,122.814018 424.447235,128.416458 421.977997,132.898117 
	C421.172180,134.360672 419.823669,134.312057 418.525238,134.317917 
	C411.527527,134.349564 404.529175,134.284302 397.531921,134.348358 
	C394.811951,134.373245 393.569092,133.254684 393.641968,130.487961 
	C393.729706,127.158211 393.647308,123.823997 393.638519,119.993370 
z"/>
<path fill="#000000" opacity="1.000000" stroke="none" 
	d="
M190.035416,164.662567 
	C194.349731,164.674515 198.173752,164.566269 201.986862,164.723404 
	C210.572891,165.077240 214.289017,170.458099 211.320374,178.489594 
	C210.335510,181.154160 210.551910,183.054733 212.294098,185.314804 
	C216.953049,191.358765 213.008682,200.479507 205.186691,201.119186 
	C198.093307,201.699265 190.918854,201.291183 183.780121,201.311569 
	C181.769012,201.317307 180.700958,200.357788 180.701721,198.285538 
	C180.705429,188.168930 180.713974,178.052277 180.684708,167.935745 
	C180.677948,165.603271 181.836746,164.663010 184.061279,164.698227 
	C185.886932,164.727127 187.713837,164.677597 190.035416,164.662567 
M199.880829,186.372772 
	C197.244263,186.422592 194.582550,186.264297 191.978027,186.579147 
	C189.219864,186.912567 188.196365,188.831238 188.376099,191.556702 
	C188.550873,194.207047 190.221405,194.843094 192.427856,194.775726 
	C195.059723,194.695374 197.722015,194.721466 200.308304,194.308182 
	C202.554947,193.949188 204.285492,192.530563 204.489685,190.048645 
	C204.706055,187.418777 202.773788,186.786057 199.880829,186.372772 
M189.647964,177.036331 
	C192.712143,180.297241 196.342010,180.204208 200.134521,178.704178 
	C202.015015,177.960388 203.958710,176.953201 203.766418,174.544342 
	C203.559982,171.958344 201.233200,171.683350 199.321075,171.469177 
	C197.032440,171.212814 194.690277,171.268463 192.382126,171.391769 
	C189.058014,171.569351 187.984314,173.284073 189.647964,177.036331 
z"/>
<path fill="#000000" opacity="1.000000" stroke="none" 
	d="
M237.360397,576.768677 
	C237.653214,586.600708 237.653046,586.445557 228.029617,586.455750 
	C224.179062,586.459839 222.635666,585.231873 222.758148,581.289551 
	C222.970093,574.468567 222.731491,567.634705 222.855118,560.809387 
	C222.917908,557.342773 221.857254,555.723938 218.153305,556.817505 
	C214.779144,557.813721 213.518036,556.150330 213.640350,552.958130 
	C213.653107,552.625549 213.645630,552.291992 213.639267,551.959045 
	C213.481247,543.697754 213.481018,543.687378 221.549210,543.673340 
	C228.876297,543.660583 236.204666,543.752930 243.529968,543.638916 
	C246.717773,543.589294 248.817688,544.353333 248.302505,548.065857 
	C247.828079,551.484741 248.977615,555.936584 243.438339,556.327026 
	C241.328705,556.475708 239.199829,556.351196 236.105347,556.351196 
	C237.468338,563.119446 237.394104,569.709167 237.360397,576.768677 
z"/>
<path fill="#000000" opacity="1.000000" stroke="none" 
	d="
M414.667969,580.869873 
	C414.994110,573.917786 415.259583,567.444763 415.673920,560.981262 
	C415.902405,557.416687 414.741211,555.591675 410.855652,556.114990 
	C406.739624,556.669312 404.895691,554.459473 405.193329,550.598816 
	C405.463165,547.098328 405.077789,543.208435 410.928986,543.548035 
	C418.714783,544.000061 426.553650,543.767578 434.361084,543.536743 
	C439.780426,543.376404 439.069214,547.055542 438.966461,550.303650 
	C438.863647,553.552734 438.656616,557.158997 433.780304,555.979980 
	C429.790161,555.015259 429.275574,557.051025 429.319794,560.246460 
	C429.418762,567.397522 429.248138,574.552856 429.385986,581.702576 
	C429.447205,584.876648 428.278381,586.368347 425.055267,586.216858 
	C423.229767,586.131042 421.387177,586.086548 419.569153,586.233154 
	C415.952179,586.524719 414.228333,585.063049 414.667969,580.869873 
z"/>
<path fill="#000000" opacity="1.000000" stroke="none" 
	d="
M356.308167,234.217957 
	C356.321014,246.676285 356.215576,258.660858 356.384216,270.641602 
	C356.434662,274.227844 355.540741,275.646149 351.632355,275.499207 
	C338.873413,275.019501 340.792358,277.014557 340.656342,264.680511 
	C340.540710,254.196594 340.739990,243.708679 340.573853,233.226120 
	C340.525604,230.181198 341.552368,228.924347 344.531494,229.017960 
	C346.858765,229.091049 349.195404,229.100204 351.519684,228.979553 
	C354.942291,228.801880 356.426758,230.427155 356.308167,234.217957 
z"/>
<path fill="#000000" opacity="1.000000" stroke="none" 
	d="
M356.368835,177.654785 
	C358.141113,177.662720 359.473083,177.671585 360.805023,177.668655 
	C368.241486,177.652283 368.236481,177.651016 368.670135,170.330444 
	C368.833282,167.576355 369.047852,164.742401 372.759918,164.644272 
	C376.413177,164.547699 376.432037,167.549927 376.650543,169.931763 
	C377.472443,178.891998 377.700745,187.864395 376.459015,196.819489 
	C376.148041,199.062302 375.808502,201.252823 372.802673,201.186951 
	C369.908173,201.123505 369.359406,198.779968 368.967377,196.716187 
	C368.568542,194.616547 368.446259,192.373947 368.709747,190.257019 
	C369.334167,185.240250 367.096252,183.636047 362.427216,184.289703 
	C360.788055,184.519196 359.096741,184.349014 357.442413,184.502945 
	C354.453949,184.781006 352.973053,186.326340 353.352142,189.482681 
	C353.629272,191.790436 353.846802,194.121292 353.848633,196.442047 
	C353.850861,199.256561 352.797760,201.271957 349.485504,201.289093 
	C346.528625,201.304367 344.975525,200.207504 344.533234,197.034836 
	C343.236542,187.733429 343.718689,178.445496 344.280640,169.146713 
	C344.473938,165.948013 346.062469,164.347534 349.474304,164.657303 
	C353.326965,165.007111 352.471313,167.884262 352.723846,170.228806 
	C353.025391,173.028198 349.854065,177.340958 356.368835,177.654785 
z"/>
<path fill="#000000" opacity="1.000000" stroke="none" 
	d="
M396.924683,178.047745 
	C399.208740,179.877884 401.571930,179.663559 403.894043,179.524414 
	C405.386169,179.434998 406.879547,178.954910 408.351929,179.033447 
	C411.466217,179.199615 416.112793,177.937866 416.145142,182.740646 
	C416.177948,187.617966 411.667084,185.040390 409.132996,185.328522 
	C406.340759,185.645966 403.478760,185.421768 400.650513,185.329651 
	C397.825562,185.237625 396.297485,186.286255 396.219788,189.336334 
	C396.144012,192.312088 397.208832,194.317688 400.278656,194.513107 
	C403.928680,194.745453 407.602386,194.577881 411.262695,194.687943 
	C413.248352,194.747681 415.249695,194.899094 417.202209,195.244827 
	C418.617371,195.495438 420.368256,195.741592 420.326019,197.798035 
	C420.285767,199.758881 418.708313,200.015808 417.209839,200.379868 
	C410.471100,202.017014 403.618286,201.212021 396.819275,201.294052 
	C386.738525,201.415695 387.768005,201.956146 387.696167,192.096771 
	C387.640350,184.437347 387.794830,176.774048 387.599457,169.119019 
	C387.507690,165.520798 388.720520,163.925995 392.436371,164.022964 
	C399.585114,164.209534 406.751648,163.699661 413.880646,164.656769 
	C415.862518,164.922852 418.302216,164.836777 418.307770,167.568527 
	C418.313416,170.351273 415.902191,170.307327 413.889435,170.341507 
	C410.060455,170.406525 406.220520,170.238342 402.402954,170.466278 
	C396.893677,170.795227 395.953217,172.121323 396.924683,178.047745 
z"/>
<path fill="#000000" opacity="1.000000" stroke="none" 
	d="
M392.195190,543.606201 
	C394.110138,543.588623 395.617340,543.677490 397.099915,543.525452 
	C399.932190,543.234985 401.037933,544.555786 401.030365,547.253357 
	C400.997711,558.890442 400.993134,570.527588 401.000885,582.164734 
	C401.002838,585.102966 399.566040,586.126587 396.673920,586.272888 
	C386.805847,586.772217 386.678131,586.740173 386.675659,576.827148 
	C386.673004,566.035828 386.675079,555.244446 386.675079,544.778503 
	C388.430145,543.106689 390.174194,543.748901 392.195190,543.606201 
z"/>
<path fill="#000000" opacity="1.000000" stroke="none" 
	d="
M243.421875,194.417419 
	C243.161346,196.770935 243.879364,198.941284 242.082382,200.473328 
	C239.929962,202.308380 236.082748,201.142059 235.901596,198.242767 
	C235.105270,185.498627 227.517502,176.488297 219.658310,167.557251 
	C219.246185,167.088913 219.027893,166.450012 218.514572,165.519150 
	C223.643539,163.618805 227.678024,164.737808 231.176254,168.457199 
	C234.234955,171.709290 235.812241,176.113571 239.327087,179.199936 
	C244.625443,175.191635 245.080536,167.048431 252.067215,164.949753 
	C253.904205,164.397964 255.987976,164.216278 258.270386,165.846512 
	C253.720688,175.411957 244.301300,182.544128 243.421875,194.417419 
z"/>
<path fill="#000000" opacity="1.000000" stroke="none" 
	d="
M312.034790,164.618591 
	C318.174561,164.650726 323.823730,164.585602 329.465149,164.764465 
	C331.552704,164.830688 334.427185,164.956009 334.549957,167.653564 
	C334.690216,170.733734 331.730408,170.222275 329.671783,170.424728 
	C319.608612,171.414429 319.599457,171.408829 320.205139,181.238846 
	C320.460205,185.377655 320.867615,189.510147 321.005737,193.652176 
	C321.118713,197.040604 321.999451,201.102676 316.552856,201.279190 
	C311.481079,201.443573 311.702576,197.612930 311.711945,194.346268 
	C311.728607,188.539734 311.714722,182.693817 312.379608,176.941360 
	C312.876160,172.645569 311.968506,170.612808 307.343292,170.901031 
	C305.384613,171.023087 303.385376,170.565155 301.410156,170.324982 
	C300.170258,170.174255 299.132751,169.626831 298.952057,168.266968 
	C298.735809,166.639420 299.856476,165.817001 301.162140,165.370819 
	C304.542694,164.215607 308.073517,164.783951 312.034790,164.618591 
z"/>
<path fill="#000000" opacity="1.000000" stroke="none" 
	d="
M189.196075,513.988403 
	C184.147446,513.282166 179.342484,513.905884 174.976227,511.684052 
	C196.783524,508.947266 218.511795,509.216705 240.268448,511.561707 
	C223.524673,515.200745 206.576813,514.149170 189.196075,513.988403 
z"/>
<path fill="#000000" opacity="1.000000" stroke="none" 
	d="
M228.947113,515.632019 
	C231.030106,515.646362 232.651642,515.817749 233.894180,517.210144 
	C229.514374,520.580444 206.702560,520.838379 200.514801,517.083191 
	C210.294785,514.377686 219.438828,515.246765 228.947113,515.632019 
z"/>
<path fill="#000000" opacity="1.000000" stroke="none" 
	d="
M302.249969,414.384491 
	C303.559601,410.007385 304.677948,405.999146 305.949463,402.040131 
	C306.344574,400.809967 306.958984,399.375000 308.614746,399.466156 
	C310.267059,399.557098 310.688202,401.025665 310.983551,402.308899 
	C316.094910,424.517395 322.579590,446.354248 328.821747,468.255920 
	C329.756836,471.536804 328.441437,473.003693 325.322205,473.302277 
	C314.184357,474.368591 303.044250,474.272034 291.909119,473.266144 
	C288.132660,472.924957 287.320007,470.900665 288.265503,467.373230 
	C292.959869,449.860229 297.514130,432.309662 302.249969,414.384491 
M318.922791,467.588013 
	C321.655853,467.739075 323.001740,466.961945 322.107544,463.809937 
	C319.980377,456.311951 318.086060,448.748169 316.054810,441.222565 
	C315.476074,439.078247 314.364441,437.572540 311.770050,438.429352 
	C312.120056,442.751587 312.065094,442.796295 307.508301,443.362885 
	C306.099609,443.537994 304.705078,443.827148 302.559204,444.190094 
	C306.272125,445.568604 310.051910,443.014740 312.283173,446.726471 
	C310.775909,449.007843 308.216644,448.541412 306.776581,449.535034 
	C308.194092,457.072296 300.306366,450.675323 299.593933,454.573181 
	C301.094238,456.460175 304.330627,454.832062 305.662292,457.677826 
	C302.726013,459.054260 299.013580,457.380798 296.354797,459.991425 
	C301.535461,462.716644 307.223175,457.829254 312.826141,461.619995 
	C308.326904,466.076447 302.588989,463.158844 297.395325,465.658203 
	C304.419983,469.578491 311.450623,466.703552 318.922791,467.588013 
z"/>
</svg>