<?xml version="1.0" standalone="no"?>
<!DOCTYPE svg PUBLIC "-//W3C//DTD SVG 20010904//EN"
 "http://www.w3.org/TR/2001/REC-SVG-20010904/DTD/svg10.dtd">
<svg version="1.0" xmlns="http://www.w3.org/2000/svg"
 width="900.000000pt" height="900.000000pt" viewBox="0 0 900.000000 900.000000"
 preserveAspectRatio="xMidYMid meet">

<g transform="translate(0.000000,900.000000) scale(0.100000,-0.100000)"
fill="#000000" stroke="none">
<path d="M2330 8949 c-61 -51 -92 -91 -125 -164 -10 -22 -33 -54 -52 -71 -18
-18 -33 -37 -33 -43 0 -6 -13 -23 -29 -38 -16 -16 -40 -45 -55 -67 -22 -33
-68 -88 -133 -161 -10 -11 -36 -42 -57 -70 -22 -27 -45 -53 -52 -58 -15 -8
-240 -276 -266 -315 -9 -13 -20 -28 -25 -31 -5 -3 -23 -25 -42 -48 -18 -24
-39 -43 -47 -43 -8 0 -14 -10 -14 -23 0 -13 -11 -34 -25 -47 -15 -14 -42 -48
-61 -77 -19 -29 -39 -53 -43 -53 -5 0 -16 -15 -24 -33 -9 -18 -25 -41 -37 -52
-11 -10 -20 -24 -20 -31 0 -7 -18 -31 -40 -52 -37 -36 -60 -68 -92 -129 -6
-13 -17 -23 -25 -23 -7 0 -13 -9 -13 -20 0 -10 -16 -36 -36 -55 -20 -20 -33
-39 -30 -42 3 -4 -2 -16 -13 -27 -11 -12 -31 -43 -45 -69 -14 -26 -42 -69 -64
-95 -34 -40 -59 -76 -107 -150 -5 -9 -22 -34 -37 -55 -16 -22 -28 -46 -28 -54
0 -7 -4 -13 -10 -13 -5 0 -10 -6 -10 -12 0 -7 -18 -41 -39 -74 -21 -34 -42
-70 -45 -80 -3 -11 -19 -34 -35 -51 -16 -18 -26 -34 -23 -37 2 -3 -2 -8 -11
-12 -9 -3 -13 -12 -10 -20 3 -8 0 -14 -6 -14 -6 0 -11 -10 -11 -23 0 -13 -11
-39 -26 -58 -14 -19 -39 -63 -55 -99 -17 -36 -37 -78 -45 -93 -8 -16 -14 -34
-14 -41 0 -7 -9 -21 -20 -31 -12 -10 -18 -25 -16 -32 5 -11 -5 -41 -33 -108
-22 -51 -51 -137 -72 -215 -12 -47 -28 -98 -36 -113 -8 -15 -16 -45 -19 -65
-10 -87 -17 -122 -44 -217 -6 -22 -11 -52 -11 -67 1 -15 -3 -30 -9 -33 -7 -4
-7 -12 0 -24 5 -10 7 -20 5 -23 -9 -8 -23 -110 -30 -203 -4 -49 -9 -103 -11
-120 -10 -67 -14 -137 -14 -275 0 -292 12 -428 54 -665 25 -136 28 -150 37
-161 5 -6 11 -29 13 -50 4 -39 39 -141 90 -264 15 -36 30 -74 34 -85 3 -11 26
-58 51 -105 24 -47 61 -117 81 -156 19 -39 50 -89 68 -111 17 -23 32 -46 32
-53 0 -7 10 -23 22 -35 13 -12 48 -50 78 -85 30 -35 83 -92 118 -126 34 -34
62 -66 62 -71 0 -10 54 -53 67 -53 4 0 24 -15 44 -33 50 -46 126 -107 133
-107 9 0 109 -62 124 -77 7 -7 18 -13 23 -13 6 0 7 -5 3 -12 -5 -7 -1 -9 13
-6 11 3 31 -1 44 -8 13 -7 41 -13 62 -14 26 0 45 -7 62 -24 13 -13 26 -22 29
-19 2 3 34 -9 70 -26 37 -17 79 -31 94 -31 15 0 34 -6 41 -13 6 -6 15 -12 19
-12 4 0 26 -6 50 -13 23 -6 61 -17 85 -23 23 -6 56 -14 72 -19 17 -5 59 -14
95 -20 36 -7 79 -18 95 -25 17 -7 56 -13 87 -13 31 0 66 -5 77 -12 12 -6 45
-9 76 -6 30 2 57 1 60 -4 6 -10 109 -20 260 -26 156 -5 340 -14 390 -18 93 -8
374 -7 419 2 30 6 61 6 83 0 19 -5 52 -7 73 -3 23 4 41 2 45 -4 3 -6 11 -9 16
-5 28 17 365 22 381 6 6 -6 20 -4 37 4 25 13 54 16 121 13 14 -1 72 2 130 5
58 3 202 9 320 11 118 3 305 8 415 10 110 3 279 9 375 14 96 6 182 10 190 10
8 1 76 4 150 8 74 3 212 7 307 8 94 1 180 6 190 10 25 10 125 18 345 29 42 2
80 6 85 9 14 9 163 27 233 28 36 1 73 6 83 11 10 5 44 11 75 14 31 2 77 10
102 18 92 30 124 36 134 26 12 -12 46 -13 46 -2 0 14 73 50 119 57 53 9 142
47 160 69 7 9 20 16 27 16 12 0 17 12 28 71 3 16 -16 121 -29 165 -11 35 14
45 65 28 68 -23 150 -67 150 -80 0 -6 14 -11 32 -12 18 0 38 -8 44 -16 6 -9
17 -16 23 -16 19 0 121 -52 121 -62 0 -4 9 -8 19 -8 11 0 32 -11 47 -25 15
-14 33 -25 40 -25 8 0 14 -7 14 -15 0 -8 6 -15 14 -15 34 0 24 -25 -36 -83
-35 -34 -77 -69 -93 -77 -17 -8 -32 -18 -35 -21 -3 -3 -15 -11 -27 -18 -13 -6
-23 -17 -23 -24 0 -7 -17 -23 -38 -37 -20 -14 -43 -33 -50 -43 -8 -10 -37 -36
-65 -59 -28 -22 -106 -91 -172 -153 -183 -173 -198 -185 -228 -192 -15 -3 -26
-11 -25 -17 3 -13 -102 -118 -144 -143 -14 -9 -32 -26 -38 -37 -6 -12 -24 -30
-40 -41 -17 -11 -30 -23 -30 -27 0 -5 -5 -8 -10 -8 -18 0 -130 -121 -130 -140
0 -6 -11 -16 -25 -22 -14 -6 -25 -15 -25 -19 0 -5 -12 -21 -26 -36 -14 -15
-38 -41 -53 -58 -15 -16 -58 -67 -94 -112 -37 -45 -71 -83 -75 -85 -4 -2 -19
-21 -35 -43 -15 -22 -47 -65 -72 -95 -24 -30 -56 -77 -71 -105 -15 -27 -29
-52 -33 -55 -9 -7 -29 -41 -41 -67 -5 -13 -14 -23 -19 -23 -5 0 -27 -24 -48
-52 -37 -51 -38 -55 -38 -138 0 -67 5 -95 22 -131 26 -54 74 -89 125 -89 19 0
39 -5 44 -10 13 -13 106 76 131 124 8 17 22 39 31 49 17 19 36 50 51 83 5 12
18 28 28 36 10 7 25 25 33 39 19 34 83 111 138 166 23 23 42 48 42 54 0 18
111 142 193 216 26 22 47 45 47 49 0 9 103 111 144 142 16 12 26 22 21 22 -5
0 9 16 31 35 21 19 44 35 49 35 14 0 85 69 85 83 0 15 58 67 75 67 8 0 15 5
15 10 0 6 5 10 11 10 7 0 33 19 60 42 26 24 62 56 81 73 18 16 55 47 83 68 27
21 55 48 62 60 7 12 70 65 142 117 71 52 130 100 130 107 1 6 32 31 71 55 38
24 69 49 70 56 0 18 25 42 44 42 9 0 16 7 16 15 0 25 77 95 104 95 14 0 28 4
31 10 4 6 67 10 155 10 l149 0 36 37 c19 20 40 54 47 75 6 21 17 43 25 49 7 6
13 18 13 25 0 8 4 22 9 32 16 29 24 56 28 87 6 53 5 69 -8 100 -7 17 -12 33
-11 36 3 15 -90 100 -104 95 -24 -9 -70 5 -97 30 -14 13 -29 24 -32 24 -3 0
-19 10 -36 22 -23 17 -42 22 -79 20 -38 -1 -60 4 -97 26 -74 43 -318 162 -334
162 -8 0 -25 9 -39 20 -14 11 -30 20 -36 20 -5 0 -30 13 -55 28 -24 15 -72 38
-106 51 -34 13 -63 26 -65 30 -3 6 -118 64 -130 65 -4 1 -43 19 -86 41 -72 37
-80 44 -105 95 -26 54 -29 57 -164 132 -76 42 -156 86 -178 98 -22 11 -47 25
-55 30 -8 5 -53 27 -100 48 -47 22 -129 61 -182 86 -54 25 -102 46 -108 46 -6
0 -18 4 -28 9 -60 33 -148 71 -162 71 -9 0 -20 4 -25 9 -6 5 -28 14 -50 21
-22 7 -78 32 -125 56 -47 23 -101 49 -121 58 -20 9 -62 42 -95 73 -68 64 -113
87 -156 78 -32 -8 -108 -80 -108 -105 0 -8 -9 -33 -21 -55 -40 -73 -49 -122
-42 -230 3 -58 11 -106 18 -115 7 -8 16 -25 20 -38 11 -39 69 -87 131 -111 80
-31 107 -44 122 -58 7 -7 21 -13 30 -13 9 0 31 -9 47 -20 31 -21 58 -34 135
-66 25 -10 52 -24 61 -31 8 -7 20 -13 25 -13 5 0 36 -16 69 -36 32 -20 67 -37
76 -39 10 -2 34 -15 56 -28 21 -14 58 -31 83 -38 25 -7 59 -23 76 -36 17 -13
43 -23 59 -23 16 0 41 -12 62 -30 18 -16 41 -30 51 -30 9 0 26 -7 36 -15 11
-8 26 -15 34 -15 8 0 48 -16 90 -36 42 -20 83 -37 90 -38 8 -2 17 -7 20 -13 4
-6 20 -15 35 -18 15 -4 30 -11 33 -16 3 -5 13 -9 23 -9 24 0 101 -38 101 -50
0 -6 -7 -10 -15 -10 -8 0 -15 -4 -15 -10 0 -12 -60 -28 -131 -35 -30 -3 -76
-10 -104 -16 -94 -19 -220 -40 -265 -44 -63 -5 -191 -22 -285 -36 -44 -7 -109
-12 -145 -12 -36 1 -103 -5 -150 -12 -47 -8 -123 -17 -170 -20 -146 -9 -321
-18 -420 -20 -52 -1 -176 -8 -275 -14 -99 -6 -218 -13 -265 -15 -47 -3 -116
-7 -155 -10 -38 -3 -160 -8 -270 -12 -110 -3 -285 -8 -390 -11 -104 -4 -255
-8 -335 -9 -80 -2 -170 -5 -200 -8 -30 -3 -91 -5 -135 -6 -158 0 -199 -1 -208
-7 -10 -6 -462 -5 -712 2 -381 11 -512 16 -565 22 -30 3 -64 6 -75 7 -11 1
-26 5 -33 9 -6 5 -16 6 -21 2 -8 -5 -41 0 -211 30 -59 10 -123 25 -170 39 -25
7 -70 19 -100 26 -104 25 -410 162 -410 185 0 6 -19 16 -42 22 -24 7 -53 21
-65 32 -12 12 -25 21 -28 21 -7 0 -63 49 -88 77 -12 13 -24 23 -29 23 -11 0
-168 159 -168 170 0 5 -9 17 -19 27 -19 18 -50 65 -73 113 -7 14 -15 27 -18
30 -27 24 -150 250 -155 284 -1 12 -12 47 -25 79 -12 31 -20 63 -17 70 2 6 -2
19 -9 27 -7 9 -23 54 -34 100 -24 96 -23 90 -39 220 -7 52 -16 111 -21 130
-20 84 -17 627 4 680 11 28 48 255 47 285 0 17 4 55 11 85 6 30 12 62 13 70 1
8 7 25 13 37 7 12 12 33 12 47 0 14 4 27 9 30 5 3 12 30 15 59 7 53 27 121 39
133 4 4 7 22 7 40 0 18 4 36 10 39 6 3 10 13 10 21 0 8 8 34 19 57 44 99 61
140 61 148 0 5 11 32 25 61 14 28 25 57 25 64 0 7 6 19 14 26 7 8 17 28 20 45
4 17 14 34 22 37 8 3 14 16 14 29 0 13 11 39 24 58 13 19 36 57 51 84 15 28
33 57 41 66 8 8 14 21 14 27 0 7 4 12 9 12 5 0 14 12 20 28 15 38 56 110 75
131 9 10 16 23 16 29 0 7 5 12 10 12 6 0 10 11 10 24 0 14 7 31 15 40 8 8 15
22 15 30 0 9 4 16 10 16 15 0 70 58 70 74 0 8 10 23 23 33 13 10 33 39 46 64
13 25 37 61 54 80 18 20 38 47 46 62 8 15 20 27 28 27 7 0 13 6 13 13 0 18
127 183 193 250 15 16 27 33 27 39 0 13 73 102 117 144 18 17 33 36 33 42 0 6
16 24 35 39 19 15 35 32 35 37 0 9 13 25 95 113 28 30 55 60 61 66 6 7 13 18
15 24 2 6 38 47 79 91 41 43 106 112 144 153 37 41 94 101 125 135 31 33 66
72 78 87 13 15 27 27 33 27 5 0 10 7 10 14 0 8 39 55 86 103 48 48 98 110 112
138 31 58 43 165 21 191 -7 9 -14 26 -14 37 -4 74 -89 173 -155 183 -8 2 -32
5 -52 8 -33 6 -43 1 -98 -45z"/>
</g>
</svg>
