<?xml version="1.0" standalone="no"?>
<!DOCTYPE svg PUBLIC "-//W3C//DTD SVG 20010904//EN"
 "http://www.w3.org/TR/2001/REC-SVG-20010904/DTD/svg10.dtd">
<svg version="1.0" xmlns="http://www.w3.org/2000/svg"
 width="900.000000pt" height="900.000000pt" viewBox="0 0 900.000000 900.000000"
 preserveAspectRatio="xMidYMid meet">

<g transform="translate(0.000000,900.000000) scale(0.100000,-0.100000)"
fill="#000000" stroke="none">
<path d="M2317 8938 c-47 -44 -77 -83 -101 -131 -19 -37 -48 -80 -65 -96 -17
-16 -31 -33 -31 -39 0 -5 -16 -27 -36 -48 -20 -22 -44 -51 -53 -65 -14 -23
-62 -80 -128 -154 -10 -11 -36 -42 -57 -70 -22 -27 -45 -53 -52 -58 -13 -8
-233 -267 -269 -317 -42 -58 -100 -120 -112 -120 -7 0 -13 -11 -13 -25 0 -14
-11 -35 -26 -47 -14 -13 -41 -46 -60 -75 -19 -29 -39 -53 -43 -53 -5 0 -16
-15 -24 -33 -9 -18 -25 -41 -37 -52 -11 -10 -20 -24 -20 -31 0 -7 -18 -31 -40
-52 -37 -36 -60 -68 -92 -129 -6 -13 -17 -23 -25 -23 -7 0 -13 -10 -13 -21 0
-12 -16 -37 -36 -56 -20 -19 -34 -37 -30 -40 3 -4 -2 -16 -13 -27 -11 -12 -31
-43 -45 -69 -14 -26 -42 -69 -64 -95 -36 -43 -80 -106 -108 -153 -6 -11 -18
-27 -26 -36 -8 -10 -21 -33 -29 -50 -8 -18 -17 -33 -21 -33 -5 0 -8 -6 -8 -12
0 -7 -18 -41 -39 -74 -21 -34 -42 -70 -45 -80 -3 -11 -19 -34 -36 -52 -16 -18
-33 -44 -36 -58 -3 -13 -10 -24 -15 -24 -5 0 -9 -10 -9 -23 0 -13 -11 -39 -26
-58 -14 -19 -39 -63 -55 -99 -17 -36 -37 -78 -45 -93 -8 -16 -14 -34 -14 -41
0 -7 -9 -21 -20 -31 -12 -10 -18 -25 -16 -32 5 -11 -5 -41 -33 -108 -22 -51
-51 -137 -72 -215 -12 -47 -28 -98 -36 -113 -8 -15 -16 -45 -19 -65 -10 -87
-17 -122 -44 -217 -6 -22 -11 -52 -11 -67 1 -15 -3 -29 -8 -33 -6 -3 -8 -12
-5 -20 3 -8 1 -45 -5 -82 -6 -37 -13 -102 -16 -143 -3 -41 -8 -93 -11 -115
-12 -100 -15 -160 -14 -290 1 -292 12 -425 54 -660 25 -135 28 -150 37 -161 5
-5 10 -26 13 -45 5 -40 46 -163 88 -264 16 -38 32 -79 36 -90 5 -19 47 -101
136 -266 45 -83 94 -160 127 -199 62 -73 130 -150 179 -201 30 -32 70 -74 89
-93 19 -20 39 -36 45 -36 6 0 27 -15 47 -33 50 -46 126 -107 133 -107 9 0 109
-62 124 -77 7 -7 18 -13 23 -13 6 0 7 -5 3 -12 -5 -7 -1 -9 13 -6 11 3 31 -1
44 -8 13 -7 40 -13 60 -14 24 0 45 -8 62 -24 14 -13 28 -22 31 -19 2 3 34 -9
70 -26 37 -17 79 -31 94 -31 15 0 32 -4 37 -9 11 -9 82 -33 155 -51 25 -6 59
-15 75 -20 17 -5 59 -14 95 -20 36 -7 79 -18 95 -25 17 -7 56 -13 87 -13 31 0
66 -5 77 -12 12 -6 45 -9 76 -6 30 2 57 1 60 -4 6 -10 109 -20 260 -26 156 -5
340 -14 390 -18 93 -8 374 -7 419 2 30 6 61 6 83 0 19 -5 52 -7 73 -3 23 4 41
2 45 -4 3 -6 11 -9 16 -5 28 17 365 22 381 6 6 -6 20 -4 37 4 25 13 54 16 121
13 14 -1 72 2 130 5 58 3 202 9 320 11 534 13 616 16 790 26 262 15 449 22
647 25 94 1 180 5 190 9 10 4 34 9 53 11 51 4 203 14 292 18 43 3 81 7 85 9
14 9 164 27 233 28 36 1 73 6 83 11 10 5 45 11 77 14 33 2 72 9 87 15 47 19
143 36 149 27 7 -10 44 -11 44 0 0 14 73 50 119 57 53 9 142 47 160 69 7 9 20
16 27 16 12 0 17 12 28 71 4 17 -17 133 -28 159 -4 9 -1 23 6 33 12 15 16 15
58 1 68 -23 150 -67 150 -80 0 -6 14 -11 32 -12 18 0 38 -8 44 -16 6 -9 17
-16 23 -16 19 0 121 -52 121 -62 0 -4 9 -8 19 -8 11 0 32 -11 47 -25 15 -14
33 -25 40 -25 8 0 14 -7 14 -15 0 -8 9 -15 20 -15 11 0 20 -5 20 -11 0 -16
-120 -131 -155 -149 -17 -8 -32 -18 -35 -21 -3 -3 -15 -11 -27 -18 -13 -6 -23
-17 -23 -24 0 -7 -16 -23 -35 -36 -20 -13 -57 -45 -83 -71 -26 -26 -54 -51
-63 -56 -9 -5 -72 -62 -140 -126 -186 -175 -202 -188 -232 -195 -15 -3 -26
-11 -25 -17 3 -13 -72 -89 -132 -134 -19 -15 -38 -32 -43 -39 -11 -17 -29 -34
-66 -63 -66 -51 -151 -141 -151 -160 0 -6 -11 -16 -25 -22 -14 -6 -25 -15 -25
-19 0 -5 -10 -19 -23 -32 -46 -48 -127 -143 -144 -167 -9 -14 -34 -43 -55 -65
-21 -22 -50 -57 -65 -77 -16 -20 -48 -63 -73 -95 -25 -32 -56 -78 -69 -103
-13 -25 -27 -47 -31 -50 -4 -3 -18 -24 -30 -47 -12 -24 -26 -43 -30 -43 -5 0
-25 -23 -46 -51 -37 -50 -38 -54 -38 -138 0 -147 46 -211 161 -224 53 -6 53
-6 99 40 25 26 52 60 61 77 8 17 22 39 31 49 17 19 36 50 51 83 5 12 18 28 28
36 10 7 25 25 33 39 19 34 83 111 138 166 23 23 42 48 42 54 0 18 111 142 193
216 26 22 47 45 47 50 1 13 37 53 49 53 6 0 18 11 27 25 9 14 35 38 57 55 23
16 37 30 31 30 -12 0 68 70 81 70 14 0 85 69 85 83 0 15 58 67 75 67 8 0 15 5
15 10 0 6 6 10 14 10 7 0 29 17 48 38 18 20 46 42 60 49 15 7 34 23 43 36 8
13 40 41 70 61 30 21 57 46 60 55 3 10 66 63 140 117 74 54 134 104 134 110 1
17 50 46 63 38 7 -4 8 -3 4 4 -4 6 10 21 34 34 22 13 40 29 40 36 0 18 25 42
44 42 9 0 16 7 16 16 0 26 76 94 105 94 14 0 25 5 25 10 0 6 58 10 155 10
l154 0 36 37 c19 20 40 54 47 75 6 21 17 43 25 49 7 6 13 18 13 25 0 8 4 22 9
32 21 39 30 76 33 137 2 56 -95 194 -128 181 -24 -9 -70 5 -97 30 -14 13 -29
24 -32 24 -3 0 -19 10 -36 22 -23 17 -42 22 -79 20 -38 -1 -60 4 -97 26 -74
43 -318 162 -334 162 -8 0 -25 9 -39 20 -14 11 -30 20 -36 20 -5 0 -30 13 -55
28 -24 15 -72 38 -106 51 -34 13 -63 26 -65 30 -3 6 -104 56 -123 61 -35 8
-185 95 -185 108 0 8 -9 31 -21 51 -16 29 -47 51 -157 113 -194 109 -518 269
-642 318 -30 12 -78 32 -107 46 -28 13 -58 24 -65 24 -8 0 -18 4 -23 9 -6 5
-28 14 -50 21 -22 7 -78 32 -125 56 -47 23 -101 49 -120 58 -19 9 -62 41 -95
72 -71 65 -115 88 -157 79 -35 -8 -108 -81 -108 -108 0 -11 -9 -34 -20 -52
-38 -62 -50 -122 -43 -230 3 -58 11 -106 18 -115 7 -8 16 -26 20 -39 11 -37
73 -88 135 -112 76 -29 103 -42 118 -56 7 -7 19 -13 27 -13 7 0 41 -16 75 -35
34 -19 67 -35 73 -36 7 0 32 -11 57 -24 25 -13 59 -30 76 -38 17 -8 50 -27 73
-42 24 -14 51 -28 61 -30 10 -2 35 -15 57 -28 21 -14 58 -31 83 -38 25 -7 59
-23 76 -36 17 -13 44 -23 60 -23 18 0 42 -12 63 -30 18 -17 41 -30 50 -30 10
0 26 -7 37 -15 10 -8 25 -15 32 -15 8 0 48 -16 90 -36 42 -20 83 -37 90 -38 8
-2 17 -7 20 -13 4 -6 20 -15 35 -18 15 -4 30 -11 33 -16 3 -5 13 -9 23 -9 24
0 101 -38 101 -50 0 -6 -7 -10 -15 -10 -8 0 -15 -4 -15 -10 0 -12 -64 -29
-137 -36 -32 -3 -85 -11 -118 -19 -68 -15 -179 -33 -245 -39 -68 -7 -196 -24
-280 -36 -41 -7 -120 -13 -175 -15 -55 -2 -122 -8 -150 -14 -66 -12 -348 -31
-565 -36 -52 -1 -176 -8 -275 -14 -99 -6 -218 -13 -265 -15 -47 -3 -116 -7
-155 -10 -38 -3 -160 -8 -270 -12 -110 -3 -285 -8 -390 -12 -104 -3 -255 -8
-335 -10 -80 -2 -210 -5 -290 -7 -80 -2 -194 -7 -255 -11 -164 -11 -473 -7
-1055 11 -91 3 -190 8 -220 12 -30 3 -64 6 -75 7 -11 1 -26 5 -32 9 -7 5 -17
6 -22 2 -14 -8 -295 43 -381 69 -25 7 -70 19 -100 26 -105 25 -410 162 -410
184 0 7 -19 17 -42 23 -24 7 -53 21 -65 32 -12 12 -25 21 -28 21 -7 0 -63 49
-88 77 -12 13 -24 23 -29 23 -10 0 -168 159 -168 169 0 4 -13 23 -30 41 -16
18 -30 37 -30 41 0 4 -22 41 -49 81 -58 88 -152 265 -156 293 -1 11 -12 46
-25 78 -12 32 -19 64 -16 72 2 7 -1 18 -8 24 -13 11 -53 151 -61 211 -13 106
-28 205 -36 245 -12 63 -16 327 -7 505 4 74 19 200 34 280 14 80 26 161 25
180 0 19 8 71 20 115 11 44 23 94 26 110 3 17 9 35 13 40 4 6 11 33 15 61 7
53 26 118 38 130 4 4 7 22 7 40 0 18 5 36 10 39 6 3 10 13 10 21 0 9 11 40 25
70 14 30 25 60 25 67 0 7 7 21 15 31 8 11 15 26 15 33 0 7 11 36 25 65 14 28
25 57 25 64 0 7 6 19 14 26 7 8 17 29 21 46 3 18 11 32 15 32 5 0 14 18 20 41
6 22 19 48 28 57 10 10 30 42 46 72 15 30 34 62 42 71 8 8 14 21 14 27 0 7 4
12 9 12 5 0 14 12 20 28 15 38 56 110 75 131 9 10 16 23 16 29 0 7 5 12 10 12
6 0 10 11 10 24 0 14 7 31 15 40 8 8 15 22 15 30 0 9 4 16 10 16 14 0 70 57
70 72 0 7 10 22 23 33 13 11 34 41 46 66 13 25 37 61 54 80 18 20 38 47 46 62
8 15 20 27 28 27 7 0 13 6 13 13 0 19 108 160 188 245 17 19 32 39 32 45 0 11
71 98 115 142 17 17 37 42 44 56 7 15 24 32 37 38 13 6 24 16 24 22 0 12 19
35 90 110 54 56 76 83 81 97 2 6 38 46 79 90 41 43 106 112 144 153 37 41 94
101 125 135 31 33 66 72 78 87 13 15 27 27 33 27 5 0 10 6 10 14 0 8 39 54 86
103 47 48 97 110 112 138 34 63 42 160 17 198 -9 14 -15 31 -14 39 7 42 -79
158 -118 158 -7 0 -13 4 -13 8 0 5 -6 9 -12 9 -7 0 -33 3 -58 6 -45 7 -46 6
-113 -55z"/>
</g>
</svg>
