<svg version="1.1" id="Layer_1" xmlns="http://www.w3.org/2000/svg" xmlns:xlink="http://www.w3.org/1999/xlink" x="0px" y="0px"
	 width="100%" viewBox="0 0 336 336" enable-background="new 0 0 336 336" xml:space="preserve">
<path fill="#000000" opacity="1.000000" stroke="none" 
	d="
M212.496002,179.574036 
	C203.412399,186.536972 193.362030,190.187210 182.528610,192.080872 
	C177.747345,192.916641 177.390335,194.143997 180.705811,197.511673 
	C181.751160,198.573486 182.206848,199.585205 182.286667,200.965149 
	C183.880081,228.518967 186.717590,256.011505 186.300308,283.664001 
	C186.162277,292.811096 183.775528,295.187622 174.785294,295.363190 
	C168.627670,295.483429 162.473557,295.829437 156.320847,296.134735 
	C152.941971,296.302368 150.920593,294.922119 150.460541,291.463684 
	C150.285416,290.147156 149.774475,288.845367 149.782043,287.538971 
	C149.875610,271.394714 147.150269,255.404678 147.491882,239.213074 
	C147.708328,228.954315 146.294876,218.666092 145.750870,208.383774 
	C145.551529,204.616348 145.330933,201.001587 148.676285,197.814514 
	C151.417892,195.202637 148.680725,188.064621 144.982285,186.808197 
	C140.107086,185.151978 135.081589,183.857758 130.357697,181.850204 
	C105.950111,171.477600 92.570335,153.157974 91.630264,126.450439 
	C90.630577,98.049301 101.138245,74.838577 124.188377,57.850094 
	C137.273819,48.205811 152.414490,45.573074 168.266357,46.795189 
	C202.840820,49.460732 230.684158,72.632835 237.665268,106.385063 
	C243.594925,135.053772 236.033188,160.135315 212.496002,179.574036 
M145.594772,181.775589 
	C149.773575,182.842743 153.990417,183.781036 158.123962,185.001511 
	C169.928421,188.486908 181.731949,188.872192 193.345383,184.546036 
	C218.647583,175.120636 231.559952,155.746109 234.436844,129.876709 
	C237.909760,98.647835 220.925797,70.788483 192.145782,57.942776 
	C163.899521,45.335293 134.868576,50.174660 115.606506,71.436699 
	C101.567207,86.933701 95.135666,105.553848 96.341644,126.492393 
	C97.460510,145.918594 105.313652,161.629593 122.365662,172.207108 
	C129.401611,176.571594 136.969635,179.324936 145.594772,181.775589 
M177.672989,209.722839 
	C177.118713,207.553085 179.012573,203.658585 175.381561,203.677872 
	C171.784058,203.696976 173.184250,207.537903 173.240250,209.722595 
	C173.908646,235.799774 178.707352,261.613037 178.270493,287.767212 
	C178.256165,288.624817 178.512802,289.408264 179.528259,289.782074 
	C181.406250,289.077789 181.598129,287.354309 181.594711,285.722443 
	C181.578720,278.070190 181.603760,270.413544 181.354065,262.766968 
	C180.785217,245.346878 179.495010,227.972122 177.672989,209.722839 
M170.692657,242.445312 
	C169.337845,230.266724 168.199966,218.074097 168.278915,205.800690 
	C168.289383,204.174973 167.417984,203.278320 165.816895,203.354843 
	C163.877670,203.447540 163.184967,204.853729 163.481247,206.481064 
	C164.853638,214.019012 164.782059,221.685349 165.619736,229.256058 
	C167.699051,248.048676 170.859665,266.735962 170.444748,285.744354 
	C170.409439,287.361542 169.723038,289.580078 172.424484,290.089844 
	C174.219223,288.882874 173.674667,287.050018 173.615173,285.501190 
	C173.328629,278.043732 173.406631,270.521515 172.379211,263.158417 
	C171.457916,256.555817 172.678650,249.827682 170.692657,242.445312 
M159.320770,241.317413 
	C160.103653,249.570511 160.533508,257.876923 161.769623,266.061584 
	C162.983597,274.099762 161.012421,282.490204 163.864090,290.318909 
	C166.969101,284.945587 160.937637,209.699356 157.039169,203.412933 
	C155.875214,216.510284 159.042755,228.376968 159.320770,241.317413 
M156.633804,261.752686 
	C154.925903,242.408157 153.218018,223.063614 151.510117,203.719086 
	C151.097443,203.751297 150.684769,203.783508 150.272095,203.815720 
	C152.992523,232.542572 152.421844,261.484985 156.243195,290.157196 
	C158.627487,280.961975 157.160294,271.820770 156.633804,261.752686 
M154.732803,195.658371 
	C159.335083,199.716797 165.240921,196.822205 170.327789,198.541473 
	C172.126907,199.149536 174.154663,198.207367 174.394608,195.949448 
	C174.661804,193.434845 172.909149,192.647247 170.658127,192.314896 
	C166.902069,191.760330 163.144623,191.124039 159.452515,190.248917 
	C154.183517,189.000061 153.996628,189.091461 154.732803,195.658371 
z"/>
<path fill="#000000" opacity="1.000000" stroke="none" 
	d="
M81.972885,64.017899 
	C79.771362,62.008656 75.317406,60.731937 77.501671,57.703117 
	C79.616211,54.770962 82.471275,58.194061 84.663330,59.730633 
	C87.659012,61.830528 90.562447,64.065269 93.456306,66.305649 
	C94.685829,67.257530 95.837929,68.537933 94.735321,70.117012 
	C93.435646,71.978310 91.786697,71.063217 90.374474,70.076515 
	C87.643692,68.168549 84.961357,66.191246 81.972885,64.017899 
z"/>
<path fill="#000000" opacity="1.000000" stroke="none" 
	d="
M110.952057,48.354950 
	C112.175957,50.444363 113.425423,52.655411 111.253639,53.957642 
	C108.989304,55.315361 107.769699,52.876049 106.628464,51.306881 
	C104.377609,48.212051 102.194290,45.067352 100.023956,41.915112 
	C99.172722,40.678757 98.103943,39.242489 99.893227,38.047024 
	C101.301147,37.106365 102.878555,37.481709 103.911240,38.814228 
	C106.254715,41.838123 108.475220,44.957321 110.952057,48.354950 
z"/>
<path fill="#000000" opacity="1.000000" stroke="none" 
	d="
M129.655334,40.913101 
	C128.849854,36.429646 128.115906,32.347176 127.307556,28.279484 
	C126.965370,26.557587 127.362663,25.208727 129.136902,24.775213 
	C130.919754,24.339594 131.974136,25.250013 132.251312,27.074697 
	C132.924438,31.505852 133.697510,35.923935 134.255371,40.369244 
	C134.430405,41.763912 134.705643,43.656658 132.805099,44.188812 
	C130.516357,44.829670 130.048645,43.030163 129.655334,40.913101 
z"/>
<path fill="#000000" opacity="1.000000" stroke="none" 
	d="
M145.006714,62.797012 
	C171.644150,52.407558 198.855087,62.404003 212.242203,87.217537 
	C230.290634,120.670937 220.017563,157.571259 187.862961,174.881104 
	C179.872314,179.182693 171.608170,181.604919 162.456497,179.337112 
	C146.578445,175.402527 131.362595,170.188828 120.840782,156.589417 
	C104.264465,135.164597 104.298645,103.822220 120.791183,81.212395 
	C126.936996,72.787018 135.017075,66.839653 145.006714,62.797012 
M139.951309,148.128159 
	C140.794800,156.307129 138.192230,159.077942 130.080551,158.551743 
	C131.373840,160.622986 133.257950,161.926407 135.239426,163.179871 
	C144.501984,169.039291 154.716049,172.371033 165.280029,174.954422 
	C170.070740,176.125961 174.513077,175.562912 178.926849,173.820389 
	C186.608826,170.787567 193.436630,166.339096 199.346161,160.613876 
	C220.474091,140.144836 221.423126,111.242752 205.241974,85.810036 
	C190.628540,62.841393 162.862793,56.656769 139.571701,70.574722 
	C122.640678,80.692139 114.423340,96.376862 113.411812,115.703300 
	C112.633957,130.565216 116.536903,144.186096 126.947784,155.438278 
	C125.818954,152.772247 125.561508,150.016571 125.604424,147.172134 
	C125.646698,144.369293 126.727386,142.415878 129.365723,141.300461 
	C132.193146,140.105087 134.573135,140.868622 136.702133,142.801102 
	C138.078262,144.050232 139.062210,145.594025 139.951309,148.128159 
M133.630707,147.212875 
	C132.470428,146.190140 130.867172,144.919510 130.473846,147.440781 
	C130.020020,150.349884 131.304077,152.708176 134.584457,153.299988 
	C136.500366,150.992325 134.612961,149.451935 133.630707,147.212875 
z"/>
<path fill="#000000" opacity="1.000000" stroke="none" 
	d="
M132.238846,129.026962 
	C132.398514,130.603287 132.552170,131.759186 132.629684,132.920181 
	C132.886215,136.761703 131.039169,138.426361 127.197632,137.847229 
	C121.231262,136.947784 117.341728,132.511108 116.727188,125.648247 
	C115.733421,114.550240 116.964928,103.732826 121.318138,93.399300 
	C122.606316,90.341446 123.987305,87.299675 127.282211,85.677437 
	C129.921219,84.378128 132.466217,84.229622 134.784271,86.057236 
	C137.031509,87.829041 137.172714,90.315346 136.287903,92.866386 
	C135.524948,95.066086 134.729233,97.261398 133.806381,99.397453 
	C129.681198,108.945641 128.977463,118.664803 132.238846,129.026962 
M131.256638,90.564552 
	C129.197983,88.712807 128.125366,90.557274 127.438324,91.891815 
	C121.560265,103.309700 119.382889,115.305283 122.400238,127.962822 
	C122.935638,130.208786 124.197662,132.075256 127.609375,131.970795 
	C123.834999,117.792206 125.287025,104.455849 131.510300,91.648003 
	C131.573303,91.518333 131.498169,91.321548 131.256638,90.564552 
z"/>
</svg>