<?xml version="1.0" standalone="no"?>
<!DOCTYPE svg PUBLIC "-//W3C//DTD SVG 20010904//EN"
 "http://www.w3.org/TR/2001/REC-SVG-20010904/DTD/svg10.dtd">
<svg version="1.0" xmlns="http://www.w3.org/2000/svg"
 width="467.000000pt" height="599.000000pt" viewBox="0 0 467.000000 599.000000"
 preserveAspectRatio="xMidYMid meet">

<g transform="translate(0.000000,599.000000) scale(0.100000,-0.100000)"
fill="#000000" stroke="none">
<path d="M0 5291 c0 -518 3 -702 12 -707 7 -4 8 -3 4 4 -14 22 7 12 60 -30 38
-31 57 -54 64 -80 6 -20 15 -40 19 -43 11 -6 83 -105 76 -105 -7 0 -110 142
-108 150 1 3 -5 7 -13 7 -12 0 -11 -3 2 -18 9 -10 13 -22 10 -27 -3 -6 6 -20
21 -31 16 -11 23 -21 17 -21 -14 0 -57 46 -60 65 -3 17 -84 115 -96 115 -4 0
-8 -1028 -8 -2285 l0 -2285 2335 0 2335 0 0 2120 c0 2098 0 2120 -20 2140 -11
11 -32 22 -47 26 -60 14 -337 95 -342 99 -13 14 80 -4 164 -30 11 -3 3 3 -19
15 -51 29 -175 39 -208 18 -49 -32 -129 -31 -127 1 0 10 2 11 6 4 6 -17 42
-16 73 3 l25 15 -28 -6 c-17 -3 -26 -2 -23 4 7 10 -32 27 -41 17 -5 -5 -33 18
-33 27 0 6 97 -17 134 -32 16 -6 31 -10 33 -8 5 6 -104 44 -143 51 -16 2 -46
1 -65 -3 -40 -9 -101 -3 -94 9 7 11 -28 22 -47 15 -9 -4 -18 1 -22 10 -5 14 1
16 37 13 23 -2 51 -9 62 -15 11 -6 54 -13 95 -16 44 -4 100 -16 135 -30 33
-14 89 -28 124 -32 64 -6 110 -23 143 -52 9 -8 64 -28 122 -43 l106 -29 0 850
0 849 -2335 0 -2335 0 0 -699z m1465 559 c-3 -5 -13 -10 -21 -10 -15 0 -137
-62 -162 -83 -28 -23 -71 -98 -65 -114 4 -10 2 -14 -4 -10 -6 4 -16 1 -21 -6
-16 -19 -34 -106 -26 -130 6 -20 7 -19 21 6 7 15 16 27 19 27 2 0 -3 -14 -12
-31 -24 -47 2 -174 33 -162 12 5 14 3 7 -8 -10 -16 -13 -60 -3 -53 10 6 19
-51 19 -125 0 -72 34 -208 77 -301 46 -101 5 -36 -69 110 -96 189 -113 258
-113 470 0 152 1 156 29 213 52 102 170 190 294 216 2 1 0 -3 -3 -9z m201
-508 c6 -41 6 -42 -17 -34 -12 5 -29 18 -36 29 -13 19 -12 23 8 42 28 26 36
19 45 -37z m34 33 c6 -8 9 -23 5 -36 -8 -25 -20 -15 -29 24 -7 29 4 36 24 12z
m-990 -35 c15 -11 39 -35 53 -54 22 -28 23 -34 9 -32 -9 2 -15 5 -12 7 10 8
-41 68 -58 68 -9 0 -28 3 -42 6 -35 9 -66 -23 -85 -89 -17 -57 -16 -259 0
-301 7 -17 6 -18 -6 -7 -11 10 -14 48 -14 170 l0 158 39 52 c34 47 42 53 64
47 14 -3 38 -15 52 -25z m1313 -221 c1 -85 -2 -103 -24 -145 -32 -63 -78 -91
-119 -74 -16 7 -40 22 -54 35 l-24 23 61 118 c35 66 70 131 80 147 9 15 24 39
34 54 l16 27 14 -44 c8 -25 15 -88 16 -141z m-1212 88 c1 -7 1 -18 0 -26 -2
-7 2 -10 8 -6 10 6 13 2 15 -27 1 -7 7 -19 14 -27 7 -7 10 -22 7 -32 -4 -10
-2 -19 2 -19 5 0 17 -16 26 -36 10 -20 12 -32 6 -28 -9 5 -10 0 -5 -17 11 -39
19 -262 9 -286 -5 -15 -8 15 -8 85 0 59 -3 139 -6 179 -6 68 -9 75 -45 109
-21 20 -31 31 -22 24 16 -11 17 -8 16 24 -1 19 -4 33 -8 31 -4 -2 -16 16 -27
40 -19 42 -19 44 -2 34 11 -5 20 -15 20 -22z m574 -85 c101 -51 265 -177 265
-202 0 -6 -19 -31 -41 -55 -63 -68 -127 -79 -177 -29 -7 7 -19 11 -26 8 -20
-8 -83 72 -107 135 -11 31 -23 92 -27 135 l-5 80 29 -21 c16 -11 56 -34 89
-51z m76 1 c13 -15 12 -15 -8 -4 -24 12 -29 21 -14 21 5 0 15 -7 22 -17z
m2511 -65 c-6 -6 -19 -7 -29 -3 -17 7 -17 8 2 15 24 9 41 2 27 -12z m-1506
-50 l19 -23 -25 20 c-14 11 -27 21 -29 22 -2 2 0 3 6 3 5 0 18 -10 29 -22z
m-1322 -217 c-7 -21 -15 -61 -18 -87 -2 -27 -8 -62 -13 -78 -8 -25 -10 -27
-22 -12 -7 9 -16 36 -19 61 -4 41 -1 50 37 100 23 30 43 55 45 55 2 0 -2 -17
-10 -39z m2286 15 c0 -11 -19 -15 -25 -6 -3 5 1 10 9 10 9 0 16 -2 16 -4z
m-2051 -52 c12 -20 20 -38 18 -40 -2 -2 -14 14 -26 36 -28 50 -21 53 8 4z
m1728 -54 c-7 -17 -13 -26 -15 -21 -3 10 15 51 22 51 3 0 -1 -14 -7 -30z
m-2053 8 c-4 -7 -23 -30 -43 -50 -24 -25 -39 -34 -46 -28 -7 6 -15 7 -18 3 -4
-3 -7 -3 -7 0 0 4 17 15 38 26 20 10 46 28 56 40 21 23 31 28 20 9z m2414 -27
c12 -6 22 -14 22 -17 0 -2 -13 2 -29 11 -17 8 -36 12 -44 9 -7 -2 -19 2 -26
10 -10 12 -7 13 21 7 19 -5 43 -13 56 -20z m-18 -11 c3 0 -6 -8 -20 -16 -24
-14 -22 -15 35 -11 33 2 71 0 85 -4 29 -8 12 -12 -43 -9 -21 1 -44 -3 -52 -10
-10 -8 -25 -5 -64 14 -28 13 -51 20 -51 15 0 -5 -9 -9 -20 -9 -11 0 -20 4 -20
8 0 5 -10 13 -22 19 -17 7 3 9 72 7 52 -2 97 -4 100 -4z m-373 -62 c-3 -7 -5
-2 -5 12 0 14 2 19 5 13 2 -7 2 -19 0 -25z m506 -3 c9 -4 17 -10 17 -14 0 -3
21 -5 48 -4 l47 2 -48 -10 c-37 -7 -58 -6 -93 6 -24 8 -52 15 -60 15 -8 0 -12
5 -9 11 7 11 65 7 98 -6z m-2778 -5 c-3 -5 -12 -10 -18 -10 -19 -1 -206 -216
-229 -264 -14 -30 -81 -85 -71 -60 3 11 21 35 39 55 17 20 54 70 82 110 27 41
65 88 83 106 51 47 132 93 114 63z m3234 -30 c-13 -16 -25 -28 -27 -25 -5 5
37 55 45 55 2 0 -6 -13 -18 -30z m-297 -20 c34 -11 86 -21 113 -22 46 -1 47
-2 10 -5 -61 -5 -86 -13 -80 -23 7 -11 -8 -14 -18 -3 -4 3 1 12 11 20 16 14
16 14 -1 9 -24 -8 -129 23 -122 35 8 13 14 12 87 -11z m388 16 c0 -2 -8 -10
-17 -17 -16 -13 -17 -12 -4 4 13 16 21 21 21 13z m-660 -20 c0 -2 -8 -10 -17
-17 -16 -13 -17 -12 -4 4 13 16 21 21 21 13z m760 -9 c0 -2 -12 -14 -27 -28
-24 -22 -24 -13 0 19 8 11 27 17 27 9z m-227 -104 c-7 -2 -19 -2 -25 0 -7 3
-2 5 12 5 14 0 19 -2 13 -5z m267 -69 c0 -2 -16 -4 -35 -4 -19 0 -35 4 -35 8
0 4 16 6 35 4 19 -2 35 -6 35 -8z m65 -14 c13 -6 15 -9 5 -9 -8 0 -22 4 -30 9
-18 12 -2 12 25 0z m-2174 -46 c19 -16 43 -41 54 -55 11 -13 -9 3 -45 35 -36
33 -67 62 -70 64 -3 3 2 1 11 -4 9 -5 32 -23 50 -40z m2339 -4 c18 -12 2 -12
-25 0 -13 6 -15 9 -5 9 8 0 22 -4 30 -9z m-3730 -30 c-6 -11 -13 -20 -16 -20
-2 0 0 9 6 20 6 11 13 20 16 20 2 0 0 -9 -6 -20z m3848 0 c15 0 15 -2 2 -10
-12 -8 -12 -10 -1 -10 8 0 12 -2 9 -5 -6 -7 -58 18 -58 29 0 4 7 5 16 2 9 -3
23 -6 32 -6z m-4296 -44 c3 3 9 0 14 -7 5 -8 3 -10 -6 -4 -8 5 -11 3 -8 -6 3
-8 10 -13 15 -12 5 1 10 -5 10 -13 0 -20 -1 -19 -38 29 -18 23 -24 34 -13 24
11 -9 23 -14 26 -11z m154 -101 c1 -64 -1 -113 -4 -110 -7 7 -12 32 -14 61 0
11 -6 21 -13 21 -13 0 -85 42 -85 50 0 2 16 -5 35 -17 l35 -22 9 24 c5 13 15
43 22 66 7 23 13 42 13 42 1 0 2 -52 2 -115z m54 -165 c0 -15 -5 -12 -26 11
-19 22 -19 22 4 10 12 -6 22 -16 22 -21z m1461 -107 c13 -16 12 -17 -3 -4 -10
7 -18 15 -18 17 0 8 8 3 21 -13z m-1236 -513 c-308 -12 -380 -52 -427 -234
l-18 -71 6 55 c11 103 51 168 125 206 89 45 141 53 329 52 l175 -1 -190 -7z
m238 -7 c-7 -2 -19 -2 -25 0 -7 3 -2 5 12 5 14 0 19 -2 13 -5z m1914 -1070
c-3 -10 -5 -4 -5 12 0 17 2 24 5 18 2 -7 2 -21 0 -30z m10 -75 c-3 -7 -5 -2
-5 12 0 14 2 19 5 13 2 -7 2 -19 0 -25z m31 -209 l-3 -44 -5 52 c-3 29 -1 48
3 44 5 -5 7 -28 5 -52z m-348 -931 c0 -39 -2 -69 -4 -67 -2 2 -7 37 -10 78 -5
51 -4 71 3 66 6 -3 11 -38 11 -77z m69 16 c-7 -9 -13 -30 -12 -47 0 -21 -1
-24 -4 -9 -3 13 -9 20 -16 15 -6 -3 -1 8 12 25 12 18 25 32 28 32 3 0 -1 -7
-8 -16z m-320 -24 c11 -24 11 -24 -3 -6 -9 11 -16 24 -16 30 0 12 5 7 19 -24z
m240 -202 c-7 -18 -29 -58 -48 -88 -20 -30 -36 -57 -36 -60 0 -3 -13 -18 -29
-35 l-28 -30 16 40 c8 22 10 32 3 22 -28 -43 -37 -49 -17 -12 11 22 30 51 41
65 12 14 17 19 13 11 -5 -10 -3 -12 5 -7 7 5 10 14 7 22 -3 8 0 13 6 11 6 -1
25 22 41 50 34 57 48 63 26 11z m-19 -103 c-24 -25 -49 -45 -54 -45 -10 0 83
89 94 90 2 0 -16 -20 -40 -45z m-149 -132 c-12 -20 -14 -14 -5 12 4 9 9 14 11
11 3 -2 0 -13 -6 -23z m-24 -85 c-3 -8 -6 -5 -6 6 -1 11 2 17 5 13 3 -3 4 -12
1 -19z m-10 -75 c-3 -10 -5 -4 -5 12 0 17 2 24 5 18 2 -7 2 -21 0 -30z"/>
<path d="M670 5346 c0 -2 7 -7 16 -10 8 -3 12 -2 9 4 -6 10 -25 14 -25 6z"/>
<path d="M1315 4970 c9 -31 73 -120 86 -120 6 0 -11 30 -37 68 -59 84 -58 82
-49 52z"/>
<path d="M33 4563 c9 -10 28 -31 42 -48 18 -22 24 -26 25 -13 0 9 -15 31 -32
47 -35 33 -63 43 -35 14z"/>
</g>
</svg>
